<svg width="245" height="97" fill="none" xmlns="http://www.w3.org/2000/svg"><path d="M23.196 35.064c-.144.336-.24.672-.288 1.008a7.119 7.119 0 0 0-.072 1.008c0 .312.024.624.072.936.048.288.072.576.072.864 0 .168-.036.336-.108.504a7.206 7.206 0 0 1-.144-.396c-.024-.144-.072-.216-.144-.216l-.144.432a64.45 64.45 0 0 1-.36 1.044l-.36 1.152a5.51 5.51 0 0 0-.216.864 1.15 1.15 0 0 1-.216.504c-.12.168-.252.348-.396.54a4.462 4.462 0 0 0-.396.54c-.12.192-.204.396-.252.612l-.216.396c-.12.264-.3.54-.54.828-.24.312-.528.588-.864.828a1.623 1.623 0 0 1-1.08.396c-.408 0-.756-.084-1.044-.252-.288-.168-.456-.312-.504-.432a1.356 1.356 0 0 0-.324-.54 3.71 3.71 0 0 0-.468-.396 6.471 6.471 0 0 1-.432-.396 1.343 1.343 0 0 1-.288-.648.95.95 0 0 0-.288-.36c-.144-.144-.216-.276-.216-.396 0-.096.024-.168.072-.216.072-.072.108-.132.108-.18 0-.024-.048-.084-.144-.18a3.123 3.123 0 0 0-.288-.324 3.928 3.928 0 0 0-.288-.324c-.072-.12-.108-.216-.108-.288 0-.216-.036-.384-.108-.504a1.261 1.261 0 0 0-.18-.36 3.794 3.794 0 0 0-.216-.324 1.057 1.057 0 0 1-.072-.396c0-.192-.036-.372-.108-.54a1.63 1.63 0 0 1-.108-.576c0-.024.06-.144.18-.36.144-.24.288-.492.432-.756.168-.264.312-.528.432-.792.144-.264.216-.468.216-.612a.32.32 0 0 0-.036-.144v-.18c0-.6.108-1.164.324-1.692a4.7 4.7 0 0 0 .324-1.728c0-.264-.012-.552-.036-.864-.024-.312-.168-.468-.432-.468a.444.444 0 0 0-.252.072c-.048.024-.132.06-.252.108l.036.036c-.072.072-.108.144-.108.216 0 .048.024.144.072.288 0 .12-.06.264-.18.432a2.86 2.86 0 0 1-.756.756c-.12.096-.204.144-.252.144-.12 0-.204-.048-.252-.144a1.285 1.285 0 0 1-.108-.324c0-.144-.012-.288-.036-.432a.583.583 0 0 0-.108-.36c-.12-.192-.3-.42-.54-.684-.24-.288-.372-.432-.396-.432-.072 0-.156.06-.252.18s-.204.18-.324.18c-.096 0-.24-.048-.432-.144a.912.912 0 0 0-.54-.18c-.048.024-.144.036-.288.036-.552.12-1.188.264-1.908.432a15.91 15.91 0 0 0-1.98.612 7.857 7.857 0 0 0-1.62.828c-.432.312-.648.672-.648 1.08 0 .216.048.432.144.648.096.192.144.384.144.576 0 .24-.096.408-.288.504-.192.072-.288.18-.288.324 0 .096.06.168.18.216.192.192.276.372.252.54 0 .144.024.336.072.576.048.288.144.552.288.792.168.24.252.456.252.648 0 .24-.048.456-.144.648a5.996 5.996 0 0 1-.252.576l-.288.504a1.45 1.45 0 0 0-.108.576v.288c.024.12.084.18.18.18a.479.479 0 0 1 .288-.108c.144 0 .288.084.432.252.144.144.252.276.324.396 0 .096-.012.192-.036.288v.252c0 .264.036.528.108.792.072.264.108.528.108.792 0 .24-.036.42-.108.54a.575.575 0 0 1-.324.252 1.91 1.91 0 0 1-.396.108l-.432.144c-.312.12-.552.312-.72.576-.144.264-.336.408-.576.432-.192 0-.396-.132-.612-.396-.192-.264-.288-.492-.288-.684 0-.096.012-.192.036-.288a.798.798 0 0 0 .036-.252c0-.384-.072-.72-.216-1.008-.12-.312-.18-.6-.18-.864 0-.24.048-.504.144-.792.12-.312.18-.612.18-.9 0-.336-.048-.672-.144-1.008a3.319 3.319 0 0 1-.144-.9c0-.24.048-.492.144-.756.12-.288.18-.564.18-.828a.714.714 0 0 0-.072-.324 1.184 1.184 0 0 1-.036-.288c0-.12.012-.24.036-.36.024-.12.06-.252.108-.396.096-.48.156-.972.18-1.476.024-.504.036-.984.036-1.44 0-.264-.012-.54-.036-.828a10.4 10.4 0 0 1-.036-.864c0-.264.048-.528.144-.792a1.9 1.9 0 0 0 .18-.792c0-.192-.072-.288-.216-.288-.096 0-.168.024-.216.072a.833.833 0 0 1-.18.108H.48c-.072 0-.108-.06-.108-.18.048-.144.12-.3.216-.468.096-.168.144-.312.144-.432a.527.527 0 0 0-.108-.324.646.646 0 0 1-.108-.324c0-.096.012-.192.036-.288a.639.639 0 0 0 .072-.288c0-.192-.024-.372-.072-.54a2.367 2.367 0 0 1-.072-.576v-.072c.024-.024.036-.048.036-.072.192-.624.288-1.26.288-1.908 0-.648.048-1.284.144-1.908a1.669 1.669 0 0 1-.036-.324v-.324c0-.456.024-.9.072-1.332.048-.456.072-.9.072-1.332 0-.6.12-.948.36-1.044.24-.12.564-.18.972-.18.48 0 .828.084 1.044.252.216.144.324.456.324.936 0 .24-.012.516-.036.828 0 .312-.024.636-.072.972-.048.312-.12.624-.216.936a2.4 2.4 0 0 1-.324.756.714.714 0 0 0-.072.324c0 .144.024.3.072.468a.959.959 0 0 1 .108.432c0 .096-.048.192-.144.288a.479.479 0 0 0-.108.288c0 .168.012.336.036.504.024.168.036.336.036.504 0 .24-.048.492-.144.756-.072.264-.12.528-.144.792-.048.144-.156.252-.324.324-.168.072-.252.156-.252.252 0 .048.072.12.216.216.264.192.432.456.504.792.072.336.108.672.108 1.008 0 .312-.012.54-.036.684a.847.847 0 0 1-.108.324.567.567 0 0 1-.144.216c-.048.072-.108.18-.18.324.12.072.228.156.324.252.12.072.264.108.432.108.216-.048.42-.096.612-.144.216-.072.42-.144.612-.216.408-.144 1.02-.312 1.836-.504.84-.192 1.668-.372 2.484-.54.84-.192 1.56-.372 2.16-.54.624-.192.936-.36.936-.504a.639.639 0 0 0-.072-.288.963.963 0 0 1-.072-.36c0-.168.024-.336.072-.504.048-.168.12-.252.216-.252.072 0 .144.036.216.108.096.072.204.168.324.288a.546.546 0 0 0 .324-.288.896.896 0 0 0 .108-.396c0-.192-.096-.312-.288-.36-.192-.048-.288-.204-.288-.468 0-.144-.012-.24-.036-.288-.024-.072-.06-.12-.108-.144a1.18 1.18 0 0 0-.18-.144 1.211 1.211 0 0 1-.18-.288c0-.048.048-.168.144-.36.12-.216.24-.444.36-.684.144-.24.264-.456.36-.648.12-.216.18-.36.18-.432 0-.24.048-.468.144-.684.096-.24.204-.456.324-.648l.36-.648c.144-.216.24-.456.288-.72.072-.312.204-.576.396-.792.216-.24.336-.528.36-.864.552.144 1.104.252 1.656.324a2.975 2.975 0 0 1 1.548.612c-.12.48-.18.924-.18 1.332 0 .12.048.204.144.252.12.024.24.036.36.036h.216a.592.592 0 0 1 .18-.036l.036-.036c-.048.048-.12.108-.216.18s-.144.144-.144.216c0 .144.048.216.144.216h.108a.32.32 0 0 1 .144-.036c.096 0 .192.024.288.072.096.024.204.036.324.036.048 0 .144-.024.288-.072a.553.553 0 0 0 .216.072c.12 0 .216-.06.288-.18.096-.144.192-.216.288-.216.12 0 .204.06.252.18.072.096.132.216.18.36.048.12.096.252.144.396.072.12.18.216.324.288l.036-.072v-.072a.32.32 0 0 0 .036-.144.646.646 0 0 0-.108-.324.884.884 0 0 1-.072-.324c0-.12.06-.18.18-.18.096 0 .18.072.252.216.072.12.108.264.108.432 0 .024-.012.048-.036.072v.072c0 .24.108.48.324.72.24.216.456.384.648.504a.898.898 0 0 0 .072-.396c0-.216-.072-.384-.216-.504a1.922 1.922 0 0 1-.36-.504c.144-.216.276-.324.396-.324a.32.32 0 0 1 .144.036c.48.24.804.468.972.684.192.216.348.54.468.972a9.4 9.4 0 0 1-.18.792c-.048.24-.096.492-.144.756.144.408.324.888.54 1.44.24.552.36 1.032.36 1.44 0 .12-.036.228-.108.324a13.29 13.29 0 0 1-.252.324c-.096.12-.18.252-.252.396a1.202 1.202 0 0 0-.108.54v.612c.024.192.036.396.036.612 0 .192-.036.432-.108.72a4.638 4.638 0 0 1-.252.9c-.096.312-.204.624-.324.936-.12.288-.228.54-.324.756Zm-9.144-4.932a2.96 2.96 0 0 1-.432.252c-.168.072-.252.18-.252.324 0 .048.012.12.036.216.024.096.084.144.18.144.096 0 .144-.048.144-.144a.444.444 0 0 0-.072-.252 1.407 1.407 0 0 0-.108-.288.69.69 0 0 1 .504-.216v-.036Zm-11.592 8.1c-.024.024-.036.06-.036.108 0-.024.012-.036.036-.036l-.072-.036-.072.072c0 .048.024.072.072.072.048 0 .072-.06.072-.18Zm20.016-12.78c-.024.024-.036.048-.036.072v-.072c.048 0 .072.06.072.18v.324c0 .12.012.24.036.36.024.096.072.144.144.144.048 0 .084-.024.108-.072a.32.32 0 0 0 .036-.144c0-.12-.036-.264-.108-.432a.584.584 0 0 0-.252-.36Zm-1.98-1.476c-.288-.096-.564-.18-.828-.252-.264-.072-.444-.108-.54-.108-.12 0-.228.012-.324.036H18.336a.68.68 0 0 0-.216-.036.959.959 0 0 0-.648.252c-.192.144-.36.336-.504.576a3.98 3.98 0 0 0-.36.792c-.072.288-.12.564-.144.828 0-.024-.06.096-.18.36-.096.264-.216.6-.36 1.008-.12.408-.24.84-.36 1.296a6.009 6.009 0 0 0-.144 1.224c0 .12.012.228.036.324a.512.512 0 0 1 .072.288c0 .312-.048.636-.144.972a3.654 3.654 0 0 0-.144 1.008c-.048.144-.12.276-.216.396-.072.12-.108.216-.108.288 0 .072.024.144.072.216.072.048.108.108.108.18 0 .12-.048.24-.144.36a.576.576 0 0 0-.144.36c0 .144.084.264.252.36.168.096.252.228.252.396 0 .192-.06.408-.18.648-.12.24-.18.492-.18.756v.72c.024.216.048.456.072.72.024.24.072.48.144.72l.288.648c.12.216.216.432.288.648.096.216.144.444.144.684 0 .096-.012.192-.036.288a.798.798 0 0 0-.036.252c0 .048.024.156.072.324.048.168.12.348.216.54.12.192.252.372.396.54a.69.69 0 0 0 .504.216c.408 0 .804-.252 1.188-.756.384-.504.732-1.14 1.044-1.908.336-.768.636-1.596.9-2.484a171.781 171.781 0 0 0 1.26-4.572c.168-.576.3-.9.396-.972a.781.781 0 0 0 .288-.504c.048-.192.072-.384.072-.576 0-.48-.048-.936-.144-1.368a6.624 6.624 0 0 1-.144-1.368c0-.144.012-.288.036-.432.024-.144.036-.3.036-.468a1.07 1.07 0 0 0-.144-.54 1.07 1.07 0 0 1-.144-.54v-.108a.32.32 0 0 0 .036-.144c0-.048-.048-.144-.144-.288a20.654 20.654 0 0 1-.324-.504 9.39 9.39 0 0 0-.396-.648 2.726 2.726 0 0 1-.324-.648Zm-6.804 14.148c-.048.336-.096.66-.144.972-.024.312-.036.6-.036.864 0 .12.024.264.072.432.072.144.144.216.216.216.144 0 .216-.084.216-.252 0-.24.036-.408.108-.504.096-.096.192-.168.288-.216.12-.072.228-.132.324-.18.096-.048.144-.168.144-.36 0-.456-.108-.72-.324-.792a4.856 4.856 0 0 0-.864-.18Zm.432-11.664c0-.072-.024-.192-.072-.36-.048-.168-.144-.252-.288-.252-.048 0-.072.024-.072.072 0 .048.024.12.072.216a.35.35 0 0 1 .072.18c0 .12-.072.276-.216.468-.144.168-.216.324-.216.468a.58.58 0 0 0 .072.252c.048.072.096.108.144.108.192 0 .312-.132.36-.396.072-.288.12-.54.144-.756Zm4.032-3.456a.419.419 0 0 0-.072-.108.32.32 0 0 0-.036-.144l-.144.072c-.048 0-.072.024-.072.072 0 .048.012.108.036.18.048.048.096.072.144.072.048 0 .096-.048.144-.144Zm5.652 1.692-.036-.036c0-.024-.012-.048-.036-.072 0 .024-.012.048-.036.072-.024 0-.036.012-.036.036 0 .024.024.06.072.108 0-.024.024-.06.072-.108Zm-21.96 9.18c-.048 0-.072-.024-.072-.072-.072 0-.108.048-.108.144 0 .024.024.036.072.036h.036c0-.024.024-.06.072-.108Zm12.6 3.456v.072l.108-.036-.108-.036Zm-11.88 2.052c-.024.024-.036.06-.036.108 0 .024.024.036.072.036.024 0 .036-.036.036-.108l-.072-.036Zm12.132 1.98c-.048-.048-.084-.072-.108-.072-.024 0-.06.024-.108.072 0 .072.036.108.108.108l.108-.108Zm9.828-15.444c.048.048.084.072.108.072.024-.024.036 0 .036.072-.024.048-.06.072-.108.072s-.072-.036-.072-.108v-.072c.024 0 .036-.012.036-.036Zm-3.096 17.388-.036-.072V43.2c.024-.024.048-.036.072-.036v.072c.024 0 .036.012.036.036l-.072.036ZM13.584 31.86h-.072c-.024 0-.036.012-.036.036l-.036-.036h.144Zm9.576 3.168.108-.036-.072.072-.036-.036Zm-4.356-12.852.036-.036-.036.036Zm-4.716 7.956c-.024 0-.036.012-.036.036l.036-.036Zm8.424-4.644h-.036c0-.024-.012-.036-.036-.036v.072l.036-.072.036.036Zm-2.484-1.08c0 .096-.036.144-.108.144-.048 0-.108-.072-.18-.216l.036-.036h.036c0-.024.012-.036.036-.036.048.024.072.048.072.072.024.024.06.048.108.072ZM32.368 31.824c-.12.384-.264.744-.432 1.08a2.805 2.805 0 0 0-.216 1.116v.18a.592.592 0 0 1 .036.18c0 .192-.072.432-.216.72-.144.264-.216.624-.216 1.08-.024.072-.096.18-.216.324-.096.144-.204.312-.324.504-.12.192-.228.396-.324.612a1.584 1.584 0 0 0-.144.648c0 .096.012.18.036.252a.798.798 0 0 1 .036.252.501.501 0 0 1-.036.216 9.492 9.492 0 0 0-.54 1.548c-.168.6-.36 1.188-.576 1.764a6.525 6.525 0 0 1-.756 1.476c-.288.408-.636.612-1.044.612a1.07 1.07 0 0 1-.54-.144 3.24 3.24 0 0 1-.468-.324 2.043 2.043 0 0 1-.324-.324c-.096-.12-.144-.204-.144-.252 0-.144.096-.336.288-.576.336-.504.588-1.116.756-1.836.168-.72.42-1.404.756-2.052.048-.144.072-.276.072-.396.096-.768.3-1.572.612-2.412.336-.84.744-1.608 1.224-2.304.048-.096.096-.264.144-.504.12-.624.348-1.188.684-1.692.336-.504.684-.984 1.044-1.44.144-.192.348-.492.612-.9.264-.432.576-.852.936-1.26a6.5 6.5 0 0 1 1.188-1.116c.432-.336.9-.504 1.404-.504.408 0 .792.108 1.152.324.384.192.744.384 1.08.576h-.036c0 .024.036.108.108.252.072.12.144.264.216.432l.216.432c.072.12.108.192.108.216 0 .216-.06.444-.18.684a1.754 1.754 0 0 0-.144.72v.144c.024.024.036.06.036.108-.168.264-.24.552-.216.864a1.61 1.61 0 0 1-.072.828 2.873 2.873 0 0 0-.108.756v.432l.072.432c0 .12-.012.24-.036.36 0 .096-.012.204-.036.324 0 .336-.12.648-.36.936a1.336 1.336 0 0 0-.324.864c0 .072.012.12.036.144.12.264.192.552.216.864.048.288.072.552.072.792 0 .576-.12 1.056-.36 1.44.192.696.312 1.284.36 1.764.072.48.108 1.008.108 1.584 0 .336.036.66.108.972.096.312.144.6.144.864 0 .192-.048.372-.144.54a3.925 3.925 0 0 1-.18.468.773.773 0 0 1-.144.252c-.048.072-.132.108-.252.108-.096.024-.24.036-.432.036a1.706 1.706 0 0 1-1.404-.684c-.336-.432-.6-.96-.792-1.584a12.74 12.74 0 0 1-.36-1.908 24.118 24.118 0 0 1-.072-1.656c0-.36.012-.768.036-1.224.048-.456.072-.96.072-1.512 0-.192-.012-.396-.036-.612v-.612c0-.336.024-.72.072-1.152.048-.456.096-.936.144-1.44.048-.504.096-1.02.144-1.548.048-.528.072-1.044.072-1.548v-.252c0-.096-.048-.144-.144-.144-.12 0-.252.096-.396.288a.584.584 0 0 1-.504.252c-.12 0-.276.156-.468.468a3.818 3.818 0 0 1-.72.864c0-.048.012-.072.036-.072.024-.024.036-.048.036-.072l-.108-.072a.276.276 0 0 1 .036.108l.036.072ZM57.996 43.416c-.192.696-.468 1.212-.828 1.548-.336.312-.804.552-1.404.72-.312-.216-.66-.444-1.044-.684-.36-.264-.54-.612-.54-1.044 0-.312-.084-.516-.252-.612-.168-.096-.252-.276-.252-.54v-.576c.024-.216.036-.42.036-.612-.048-.312-.108-.66-.18-1.044a8.258 8.258 0 0 1-.072-1.008c0-.144.012-.288.036-.432.024-.168.036-.324.036-.468a3.582 3.582 0 0 0-.108-.54l-.072-.504c0-.144.024-.288.072-.432.072-.168.108-.312.108-.432s-.024-.24-.072-.36a2.424 2.424 0 0 1-.036-.396c0-.384.036-.804.108-1.26.072-.456.108-.9.108-1.332 0-.12-.012-.228-.036-.324 0-.12-.06-.216-.18-.288a.32.32 0 0 0-.144.036h-.144c0 .048-.096.192-.288.432-.168.24-.372.516-.612.828-.216.288-.432.588-.648.9a4.655 4.655 0 0 0-.396.684c-.048.12-.108.276-.18.468a5.996 5.996 0 0 1-.252.576 8.798 8.798 0 0 1-.216.468l-.072.18a.805.805 0 0 0-.432.36c-.096.144-.18.3-.252.468a4.228 4.228 0 0 0-.18.504.82.82 0 0 1-.18.324c-.288.24-.564.612-.828 1.116a16.689 16.689 0 0 1-.9 1.512c-.336.504-.72.948-1.152 1.332-.432.384-.96.576-1.584.576-.576 0-1.152-.204-1.728-.612-.576-.408-.9-1.032-.972-1.872a5.052 5.052 0 0 0-.288-1.188 3.56 3.56 0 0 1-.216-1.188c0-.648.024-1.308.072-1.98a21.32 21.32 0 0 1 .288-1.908c0-.024.024-.192.072-.504.048-.336.084-.744.108-1.224a30.25 30.25 0 0 0 .108-1.692c.048-.624.072-1.26.072-1.908 0-.144-.024-.288-.072-.432a3.323 3.323 0 0 1-.036-.468c0-.12.048-.228.144-.324a.576.576 0 0 1 .36-.144c.432.048.852.18 1.26.396.408.192.612.504.612.936-.12 1.44-.252 2.844-.396 4.212a39.197 39.197 0 0 0-.216 4.176v.9l.072.972c.048.312.108.576.18.792.096.216.216.324.36.324.216 0 .504-.24.864-.72a20.74 20.74 0 0 0 1.224-1.728 60.1 60.1 0 0 0 1.332-2.052c.432-.72.816-1.32 1.152-1.8.192-.264.384-.456.576-.576.216-.144.36-.372.432-.684.096-.336.288-.648.576-.936.312-.312.576-.588.792-.828.144-.144.336-.384.576-.72.24-.336.504-.672.792-1.008.288-.336.576-.624.864-.864.288-.264.528-.396.72-.396.168 0 .348-.012.54-.036.216-.024.432-.036.648-.036.816 0 1.392.252 1.728.756.36.48.54 1.068.54 1.764s-.084 1.38-.252 2.052a7.629 7.629 0 0 0-.252 1.836v.396c.024.12.036.252.036.396 0 .504-.048.996-.144 1.476-.096.48-.144.96-.144 1.44.048.552.108 1.116.18 1.692a13.1 13.1 0 0 1 .108 1.62.32.32 0 0 1-.036.144v.108c0 .24.036.468.108.684.072.216.168.42.288.612ZM67.498 33.084c-.264 0-.54.024-.828.072a7.703 7.703 0 0 1-.684.036.68.68 0 0 1-.216-.036.4.4 0 0 0-.18-.036c-.096 0-.192.012-.288.036a1.184 1.184 0 0 1-.288.036 4.03 4.03 0 0 1-1.404-.252 5.442 5.442 0 0 1-1.224-.756 5.12 5.12 0 0 1-.936-1.188 4.455 4.455 0 0 1-.468-1.512c.072-.336.144-.624.216-.864.096-.264.168-.528.216-.792a.88.88 0 0 1 .288-.504c.144-.12.3-.228.468-.324.168-.096.336-.18.504-.252.168-.096.312-.216.432-.36.024-.024.12-.048.288-.072.168-.048.36-.096.576-.144.24-.048.468-.084.684-.108.216-.048.384-.072.504-.072.264 0 .528.024.792.072.288.024.576.06.864.108.12.12.264.18.432.18h.18a.68.68 0 0 1 .216-.036c.168 0 .3.048.396.144a.99.99 0 0 1 .252.288c.072.096.132.192.18.288.072.072.168.12.288.144.408 0 .66.18.756.54.096.336.144.66.144.972 0 .192-.012.36-.036.504v.432c0 .288.144.468.432.54.288.072.54.108.756.108.12 0 .24-.012.36-.036a1.261 1.261 0 0 1 .72-.036h.36c.192 0 .372-.012.54-.036.168-.048.348-.072.54-.072.384 0 .744.084 1.08.252.336.168.576.252.72.252a.631.631 0 0 0 .18-.072c.36.072.66.216.9.432s.444.48.612.792a.86.86 0 0 0 .216.576.682.682 0 0 1 .252.54c-.048.84-.18 1.644-.396 2.412a9.19 9.19 0 0 0-.288 2.232c0 .672.012 1.344.036 2.016.024.672.036 1.344.036 2.016 0 .312-.06.612-.18.9a2.51 2.51 0 0 0-.144.864c0 .192.012.396.036.612.048.216.072.42.072.612 0 .36-.096.672-.288.936-.072.192-.12.384-.144.576 0 .192-.06.384-.18.576l-.324.432a3.543 3.543 0 0 1-.504.54c-.192.192-.384.36-.576.504-.192.144-.36.216-.504.216-.072 0-.192-.084-.36-.252a5.84 5.84 0 0 1-.468-.54 5.1 5.1 0 0 1-.396-.72c-.12-.24-.18-.456-.18-.648 0-.096.012-.168.036-.216 0-.096-.072-.348-.216-.756-.144-.384-.216-.72-.216-1.008a.68.68 0 0 1 .036-.216.58.58 0 0 0 .072-.252c0-.264-.024-.516-.072-.756a8.744 8.744 0 0 1-.036-.792c0-.96.072-1.908.216-2.844.144-.96.312-1.908.504-2.844.12-.624.204-1.26.252-1.908.048-.672.156-1.32.324-1.944 0-.216-.084-.348-.252-.396-.144-.048-.348-.072-.612-.072-.144 0-.24.012-.288.036-.168.072-.444.12-.828.144-.384 0-.768.06-1.152.18-.384.12-.72.348-1.008.684-.288.312-.432.804-.432 1.476 0 .168-.036.324-.108.468a20.878 20.878 0 0 0-.432 1.512c-.072.384-.12.876-.144 1.476-.024.216-.048.444-.072.684-.024.216-.108.42-.252.612-.024.024-.036.06-.036.108a6.127 6.127 0 0 1-.468 1.98c-.24.6-.396 1.248-.468 1.944 0 .048-.012.084-.036.108 0 .048-.084.168-.252.36a6.247 6.247 0 0 1-.576.648c-.216.24-.468.444-.756.612-.264.192-.528.288-.792.288a1.33 1.33 0 0 1-.756-.216 2.873 2.873 0 0 1-.54-.54 17.02 17.02 0 0 1-.432-.684 4.095 4.095 0 0 0-.432-.684c-.384-.48-.66-1.116-.828-1.908a10.635 10.635 0 0 1-.252-2.196c0-.336.12-.552.36-.648.264-.12.54-.18.828-.18.168 0 .348.012.54.036.216.024.408.072.576.144a.991.991 0 0 1 .468.36c.144.144.216.348.216.612 0 .144-.024.288-.072.432a1.261 1.261 0 0 0-.072.396 2.843 2.843 0 0 0 .144.828c.072.144.144.264.216.36.072.096.144.144.216.144.048 0 .096-.048.144-.144.456-1.08.888-2.16 1.296-3.24a35.823 35.823 0 0 0 1.116-3.312c.048-.24.132-.48.252-.72.144-.24.216-.456.216-.648 0-.144-.06-.336-.18-.576Zm-2.016-2.376c.192.048.348.072.468.072.408 0 .816-.048 1.224-.144.432-.096.648-.312.648-.648 0-.144-.048-.348-.144-.612a3.23 3.23 0 0 0-.432-.792 2.504 2.504 0 0 0-.648-.684 1.438 1.438 0 0 0-.864-.288c-.216 0-.468.036-.756.108a2.802 2.802 0 0 0-.828.36c-.24.144-.444.336-.612.576-.168.24-.252.528-.252.864 0 .384.144.684.432.9a1.85 1.85 0 0 0 1.08.324h.324c.12-.024.24-.036.36-.036ZM95.1 42.912c.169.336.265.6.289.792.048.192.072.444.072.756 0 .264-.012.528-.036.792v.828c0-.024-.036.108-.108.396-.072.288-.18.6-.324.936-.12.36-.264.684-.432.972-.144.288-.288.432-.432.432-.336-.072-.6-.168-.792-.288a1.785 1.785 0 0 1-.54-.432 3.387 3.387 0 0 1-.432-.684c-.144-.264-.312-.6-.504-1.008a.896.896 0 0 0 .108-.396c0-.12-.024-.252-.072-.396a2.424 2.424 0 0 1-.036-.396c0-.12.012-.24.036-.36.048-.144.072-.276.072-.396a10.283 10.283 0 0 1-.144-1.692c.024-.576.012-1.152-.036-1.728l-.144-1.98a51.865 51.865 0 0 0-.108-1.98 1.91 1.91 0 0 0-.108-.396 2.624 2.624 0 0 1-.036-.432c0-.408.024-.828.072-1.26a11.41 11.41 0 0 0 .036-2.196v-1.62c.024-.24.036-.48.036-.72 0-.144-.024-.3-.072-.468a3.323 3.323 0 0 1-.036-.468c0-.144.024-.288.072-.432a.959.959 0 0 0 .108-.432c0-.312-.048-.636-.144-.972-.096-.336-.144-.612-.144-.828 0-.552.072-1.056.216-1.512.168-.48.252-.972.252-1.476 0-.912.12-1.836.36-2.772.24-.936.36-1.836.36-2.7 0-.408.036-.684.108-.828a6.35 6.35 0 0 0 .324-.684c.672 0 1.308.12 1.908.36.6.216 1.176.576 1.728 1.08.168.168.264.444.288.828.048.36.072.708.072 1.044 0 .504-.096.984-.288 1.44a3.74 3.74 0 0 0-.252 1.368c0 .36-.072.708-.216 1.044-.12.312-.18.648-.18 1.008v.432c0 .384-.096.84-.288 1.368-.192.504-.288 1.14-.288 1.908 0 .336-.072.696-.216 1.08-.144.36-.216.672-.216.936 0 .192.012.324.036.396-.12.048-.24.084-.36.108-.12 0-.18.096-.18.288l.036.036c0 .024.012.036.036.036.12 0 .192-.024.216-.072a.35.35 0 0 0 .072-.18c.024-.072.048-.132.072-.18.048-.072.132-.108.252-.108.072 0 .108.036.108.108 0 .12-.012.228-.036.324v.252c0 .168.156.288.468.36.336.072.6.108.792.108.288 0 .552-.12.792-.36.264-.264.516-.564.756-.9l.72-1.008c.264-.336.54-.588.828-.756.216-.12.408-.336.576-.648a2.6 2.6 0 0 1 .576-.792 3.73 3.73 0 0 0 .792-.936c.216-.36.48-.66.792-.9.312-.216.552-.48.72-.792.168-.312.384-.588.648-.828a.244.244 0 0 0 .072-.18c0-.096.024-.168.072-.216a.452.452 0 0 1 .18-.108.543.543 0 0 0 .216-.18.444.444 0 0 0 .072-.252c.024-.12.072-.204.144-.252.264-.216.468-.48.612-.792.144-.336.288-.648.432-.936.144-.312.324-.576.54-.792.216-.24.54-.36.972-.36a5.08 5.08 0 0 1 1.188.612c.384.264.576.66.576 1.188 0 .216-.06.42-.18.612a3.4 3.4 0 0 1-.396.54c-.144.192-.3.384-.468.576-.144.168-.264.36-.36.576a.773.773 0 0 1-.144.252 5.11 5.11 0 0 0-.252.288c-.096.12-.252.348-.468.684-.216.312-.504.792-.864 1.44-.144.24-.264.444-.36.612a7.998 7.998 0 0 1-.288.468c-.096.12-.216.24-.36.36a2.34 2.34 0 0 1-.504.288c-.24.12-.444.276-.612.468a5.034 5.034 0 0 0-.468.54c-.144.192-.3.384-.468.576-.168.168-.36.312-.576.432a5.84 5.84 0 0 1-.468.54c-.12.144-.24.276-.36.396-.096.096-.144.168-.144.216a.55.55 0 0 1-.18.396 5.447 5.447 0 0 1-.36.324c-.144.12-.288.252-.432.396a.88.88 0 0 0-.288.504c-.048.144-.156.288-.324.432-.144.12-.3.252-.468.396-.144.144-.288.3-.432.468a.966.966 0 0 0-.18.576c0 .12.072.324.216.612.144.288.312.612.504.972.192.336.396.696.612 1.08.216.36.396.684.54.972.456.912 1.008 1.656 1.656 2.232.648.552 1.452 1.092 2.412 1.62.168.096.36.168.576.216.216.048.42.108.612.18.216.048.384.108.504.18a.347.347 0 0 1 .252.288c0 .576-.18.948-.54 1.116-.36.144-.78.216-1.26.216-.672 0-1.368-.144-2.088-.432a12.494 12.494 0 0 1-2.124-1.188 15.137 15.137 0 0 1-1.908-1.62 15.2 15.2 0 0 1-1.548-1.872 22.25 22.25 0 0 1-.288-.396l-.36-.504a3.428 3.428 0 0 0-.36-.432c-.096-.12-.18-.18-.252-.18.024 0 0 .036-.072.108a.419.419 0 0 1-.072.108v.144a.32.32 0 0 1 .036.144.816.816 0 0 1-.216.54c-.12.144-.18.3-.18.468 0 .12.024.216.072.288a.244.244 0 0 1 .072.18.479.479 0 0 1-.108.288.444.444 0 0 0-.072.252c0 .12.072.216.216.288.144.072.216.204.216.396 0 .432-.024.708-.072.828a2.202 2.202 0 0 1-.288.396.618.618 0 0 1 .036.252v-.252Zm-.251-5.472a.618.618 0 0 0 .036-.252.805.805 0 0 0-.396-.72c-.096.048-.144.132-.144.252 0 .264.024.432.072.504.048.072.204.132.468.18-.144.24-.264.456-.36.648-.096.168-.144.48-.144.936 0 .288.036.552.108.792.048-.24.084-.468.108-.684.024-.216.084-.396.18-.54.096.072.18.108.252.108.072 0 .108-.072.108-.216a3.37 3.37 0 0 0-.036-.54c0-.144-.084-.3-.252-.468Zm-1.764-1.188c-.288.144-.432.288-.432.432 0 .12.036.252.108.396a.774.774 0 0 1 .144.432c0 .24-.048.468-.144.684a1.666 1.666 0 0 0-.144.684c0 .216.108.432.324.648.12.288.204.432.252.432.048 0 .096-.06.144-.18.048-.144.072-.24.072-.288-.024-.504-.048-1.044-.072-1.62 0-.6-.084-1.14-.252-1.62Zm.504-3.312a.726.726 0 0 0 .144-.468c0-.072-.012-.156-.036-.252 0-.12-.036-.18-.108-.18-.072.192-.108.36-.108.504 0 .168.036.3.108.396Zm-.252 8.424a.58.58 0 0 0 .072-.252c0-.144-.072-.216-.216-.216-.168 0-.276.024-.324.072a.773.773 0 0 0-.144.252.39.39 0 0 0 .288.108c.12 0 .228.012.324.036Zm-.252-8.568c-.096.048-.144.096-.144.144 0 .048.048.096.144.144 0-.024.012-.036.036-.036.024-.024.036-.084.036-.18l-.072-.072Zm-.108-1.836c.024 0 .06-.024.108-.072 0-.096-.048-.144-.144-.144-.072 0-.108.048-.108.144 0 .048.048.072.144.072Zm.756-5.472c-.048-.096-.084-.144-.108-.144-.024 0-.06.024-.108.072-.048.024-.072.06-.072.108 0 .072.06.108.18.108.072 0 .108-.048.108-.144ZM95.1 43.164a.618.618 0 0 0-.036-.252h.036v.252ZM128.246 30.708c.24.192.36.408.36.648 0 .24-.132.456-.396.648-.24.192-.588.288-1.044.288h-.324a7.034 7.034 0 0 0-.324-.072c-1.344.408-2.58.948-3.708 1.62-.384.24-.588.552-.612.936-.024.36-.048.684-.072.972a3.153 3.153 0 0 1-.288 1.044c-.144.288-.216.636-.216 1.044a.82.82 0 0 1-.324.684c-.192.168-.288.408-.288.72v.18a.32.32 0 0 1 .036.144c0 .336-.072.624-.216.864-.12.216-.288.48-.504.792-.048.168-.204.456-.468.864-.24.384-.528.78-.864 1.188a7.654 7.654 0 0 1-1.08 1.08c-.36.312-.684.468-.972.468-.144 0-.36.108-.648.324a4.45 4.45 0 0 1-.828.54 13.13 13.13 0 0 1-1.548-.432 3.712 3.712 0 0 1-1.26-.792 8.888 8.888 0 0 1-.828-1.152 12.117 12.117 0 0 1-.684-1.368 18.53 18.53 0 0 1-.432-1.404 6.15 6.15 0 0 1-.144-1.26c0-.432.048-.84.144-1.224a5.18 5.18 0 0 0 .144-1.188c0-.144.036-.336.108-.576l.288-.72c.096-.264.18-.528.252-.792.096-.264.144-.492.144-.684 0-.168-.06-.384-.18-.648a11.275 11.275 0 0 0-.36-.864l-.36-.936a3.057 3.057 0 0 1-.144-.9c0-.936.084-1.668.252-2.196.192-.528.456-.924.792-1.188.36-.288.768-.468 1.224-.54.48-.072 1.008-.108 1.584-.108h1.656c.216 0 .588.096 1.116.288a8.114 8.114 0 0 1 1.692.792c.6.36 1.152.816 1.656 1.368.504.552.84 1.2 1.008 1.944.048.24.132.492.252.756.144.264.348.396.612.396a.501.501 0 0 0 .216-.036c.936-.336 1.848-.66 2.736-.972a9.964 9.964 0 0 1 2.844-.54ZM120.254 36a4.857 4.857 0 0 1-.108-.576c0-.216-.096-.324-.288-.324-.096 0-.24.024-.432.072l-1.8.648a5.59 5.59 0 0 1-1.908.324c-.288 0-.504.216-.648.648a7.123 7.123 0 0 0-.324 1.404c-.072.504-.12.996-.144 1.476v.9c0 .48.12.96.36 1.44.24.456.564.684.972.684.456 0 .888-.228 1.296-.684a9.56 9.56 0 0 0 1.152-1.584c.36-.576.66-1.116.9-1.62.264-.504.456-.804.576-.9.144-.24.228-.552.252-.936.048-.384.096-.708.144-.972Zm-7.596-5.364c.024.144.048.372.072.684.048.312.168.468.36.468.096 0 .18-.036.252-.108a2.35 2.35 0 0 1 .216-.252 2.35 2.35 0 0 1 .216-.252.448.448 0 0 1 .324-.144l.432.108c.312.072.648.18 1.008.324.36.144.696.324 1.008.54.312.192.468.408.468.648 0 .144-.072.348-.216.612-.144.24-.252.444-.324.612 0 .168.048.276.144.324.12.048.204.072.252.072.24 0 .528-.024.864-.072.36-.072.696-.168 1.008-.288a3.63 3.63 0 0 0 .864-.432c.24-.192.36-.408.36-.648 0-.48-.156-1.008-.468-1.584a6.078 6.078 0 0 0-1.152-1.584 6.38 6.38 0 0 0-1.584-1.224c-.576-.336-1.128-.504-1.656-.504-.768 0-1.368.288-1.8.864-.432.576-.648 1.188-.648 1.836Z" fill="#302E2E"/><path d="M129.232 33.624h.216a.592.592 0 0 1 .18-.036c.168 0 .336-.12.504-.36.168-.24.348-.516.54-.828.216-.336.444-.66.684-.972.24-.312.504-.54.792-.684.168-.216.42-.492.756-.828.336-.36.72-.708 1.152-1.044.456-.36.96-.66 1.512-.9a4.635 4.635 0 0 1 1.8-.36c.24 0 .468.036.684.108.216.048.432.108.648.18.192.048.312.156.36.324.048.144.168.216.36.216a.979.979 0 0 1 .468.324c.144.168.264.36.36.576.12.192.204.396.252.612.072.192.108.336.108.432 0 .504-.072 1.104-.216 1.8a7.148 7.148 0 0 1-.576 1.836 8.703 8.703 0 0 1-.756 1.296 6.614 6.614 0 0 0-.684 1.296c-.12.36-.324.672-.612.936-.264.264-.528.552-.792.864-.12.12-.228.276-.324.468a5.93 5.93 0 0 1-.324.504 3.71 3.71 0 0 1-.396.468.955.955 0 0 1-.504.216c-.192 0-.312.048-.36.144a.714.714 0 0 0-.072.324c0 .168-.192.36-.576.576a14.7 14.7 0 0 1-1.332.576c-.504.168-1.008.312-1.512.432-.48.12-.84.18-1.08.18a1.27 1.27 0 0 1-.504-.108.827.827 0 0 0-.468-.144c-.168 0-.312.132-.432.396-.12.24-.228.54-.324.9-.072.36-.132.72-.18 1.08-.024.36-.036.648-.036.864 0 .192.012.384.036.576.048.216.072.42.072.612s-.012.372-.036.54v.54c0 .216.06.384.18.504.144.12.24.264.288.432.072.192.12.396.144.612.024.216.036.432.036.648 0 .24.012.444.036.612.072.312.156.576.252.792.096.216.144.456.144.72v.468a.827.827 0 0 1-.144.468c-.072.144-.204.264-.396.36-.192.096-.48.144-.864.144-.216 0-.42-.108-.612-.324-.192-.192-.36-.456-.504-.792a6.354 6.354 0 0 1-.36-1.188 8.318 8.318 0 0 1-.108-1.368c0-.192.036-.396.108-.612.096-.216.144-.396.144-.54a5.733 5.733 0 0 1-.396-.9 6.977 6.977 0 0 1-.252-.756c-.072-.24-.108-.42-.108-.54 0-.12.036-.24.108-.36a.695.695 0 0 0 .036-.684.714.714 0 0 1-.036-.54.639.639 0 0 0 .072-.288.936.936 0 0 0-.036-.288 1.338 1.338 0 0 1-.036-.324c0-.072.024-.18.072-.324 0-.192-.048-.384-.144-.576a1.278 1.278 0 0 1-.144-.576c0-.336.06-.708.18-1.116.144-.432.216-.756.216-.972 0-.048-.012-.084-.036-.108a.32.32 0 0 1-.036-.144c0-.096.024-.168.072-.216a.345.345 0 0 0 .108-.252c0-.144-.072-.276-.216-.396-.12-.144-.18-.264-.18-.36 0-.072.072-.168.216-.288.144-.12.216-.24.216-.36 0-.096-.036-.228-.108-.396a1.27 1.27 0 0 1-.108-.504c0-.288.036-.516.108-.684.072-.168.156-.3.252-.396.096-.096.18-.168.252-.216a.345.345 0 0 0 .108-.252.342.342 0 0 0-.144-.288c-.096-.072-.18-.228-.252-.468.096-.216.192-.456.288-.72.12-.288.18-.552.18-.792s-.084-.48-.252-.72c-.168-.24-.252-.54-.252-.9 0-.168.072-.396.216-.684.168-.312.252-.648.252-1.008 0-.264-.036-.528-.108-.792a5.04 5.04 0 0 1-.072-.828c0-.264.084-.516.252-.756.192-.24.288-.516.288-.828 0-.168-.012-.324-.036-.468a3.323 3.323 0 0 1-.036-.468c0-.192.012-.408.036-.648.024-.24.072-.468.144-.684.072-.216.168-.396.288-.54a.551.551 0 0 1 .468-.252c.168 0 .384.036.648.108.288.072.552.192.792.36.24.144.444.348.612.612.192.24.288.54.288.9 0 .24-.06.516-.18.828a9.764 9.764 0 0 1-.36.972 15.58 15.58 0 0 0-.396.936 2.86 2.86 0 0 0-.144.828c0 .552-.072 1.044-.216 1.476-.144.408-.24.852-.288 1.332 0 .12.036.228.108.324a.479.479 0 0 1 .108.288c0 .096-.048.18-.144.252a.39.39 0 0 0-.108.288c0 .048.048.144.144.288-.216.096-.372.204-.468.324a1.37 1.37 0 0 0-.252.36 6.917 6.917 0 0 0-.144.504 2.094 2.094 0 0 1-.216.612l.072.072c.12 0 .216-.048.288-.144.072-.096.132-.204.18-.324.048-.144.084-.276.108-.396.024-.12.036-.216.036-.288a1.07 1.07 0 0 0-.144-.54.58.58 0 0 1 .252-.072.8.8 0 0 0 .252-.108Zm3.636-1.332c0 .264-.036.468-.108.612-.072.12-.156.24-.252.36a13.29 13.29 0 0 1-.252.324c-.096.096-.168.24-.216.432-.096.312-.24.588-.432.828a20.7 20.7 0 0 0-.576.756c-.072.096-.18.3-.324.612-.12.288-.252.624-.396 1.008-.12.36-.228.732-.324 1.116a4.131 4.131 0 0 0-.144.972c0 .168.012.384.036.648.048.24.168.36.36.36.048 0 .288-.036.72-.108.456-.096.96-.24 1.512-.432a7.771 7.771 0 0 0 1.62-.792c.528-.36.9-.816 1.116-1.368.192-.24.372-.48.54-.72.144-.192.3-.384.468-.576a9.87 9.87 0 0 1 .432-.468c.096-.072.216-.336.36-.792.168-.48.324-1.02.468-1.62.168-.6.3-1.2.396-1.8.12-.624.18-1.116.18-1.476 0-.288-.072-.468-.216-.54a1.202 1.202 0 0 0-.54-.108c-.408 0-.804.132-1.188.396a12.56 12.56 0 0 0-1.152.9c-.36.336-.72.66-1.08.972-.336.288-.672.456-1.008.504Zm-5.184 3.672c-.096.048-.144.144-.144.288 0 .072.012.12.036.144.024.024.036.06.036.108a.419.419 0 0 1 .072-.108.419.419 0 0 0 .072-.108c0-.072-.024-.18-.072-.324Zm.468 11.196.108.036-.072-.144-.036.108Zm-.504-1.836c.048-.144.072-.228.072-.252l-.072-.072a.58.58 0 0 0-.072.252l.072.072ZM157.416 42.156c.024.144.048.324.072.54.024.216.06.432.108.648.072.192.168.36.288.504a.58.58 0 0 0 .468.216c.12 0 .252-.036.396-.108.168-.096.324-.192.468-.288.168-.12.324-.216.468-.288a.73.73 0 0 1 .396-.144c.048 0 .108.036.18.108.096.048.144.108.144.18 0 .696-.132 1.248-.396 1.656-.264.408-.564.852-.9 1.332a.886.886 0 0 1-.432.036c-.144-.024-.264.036-.36.18-.624.48-1.284.72-1.98.72-.24 0-.528-.036-.864-.108-.336-.072-.528-.216-.576-.432a.993.993 0 0 0-.216-.54 6.471 6.471 0 0 0-.396-.432 7.94 7.94 0 0 1-.36-.468c-.12-.144-.192-.336-.216-.576a1.572 1.572 0 0 0-.396-.828c-.216-.264-.324-.54-.324-.828 0-.096.036-.204.108-.324-.144-.528-.216-.972-.216-1.332 0-.384-.036-.732-.108-1.044 0-.168.06-.324.18-.468.12-.144.18-.288.18-.432 0-.12-.108-.192-.324-.216-.192-.024-.288-.108-.288-.252 0-.096.012-.192.036-.288a.83.83 0 0 0 .072-.288c0-.24-.048-.48-.144-.72a2.017 2.017 0 0 1-.144-.756c0-.528-.108-.864-.324-1.008-.192-.168-.456-.252-.792-.252-.408 0-.84.036-1.296.108-.432.048-.852.096-1.26.144-.624.12-1.176.228-1.656.324-.408.096-.78.204-1.116.324-.336.12-.504.228-.504.324v.504c.024.144.036.3.036.468 0 .24-.024.48-.072.72-.048.24-.072.492-.072.756 0 .12.012.252.036.396.048.144.072.276.072.396s-.06.24-.18.36a1.97 1.97 0 0 1-.396.36c-.144.12-.3.216-.468.288a1.195 1.195 0 0 1-.468.108c-.36 0-.636-.168-.828-.504-.192-.36-.336-.804-.432-1.332-.072-.552-.12-1.14-.144-1.764l-.072-1.8c0-.264.024-.54.072-.828.072-.312.108-.6.108-.864 0-.12-.024-.24-.072-.36a1.359 1.359 0 0 1-.072-.432c.024-.48.072-.972.144-1.476s.132-.996.18-1.476c.024-.12.108-.216.252-.288.144-.096.3-.168.468-.216.192-.048.372-.084.54-.108a3.82 3.82 0 0 1 .432-.036c.288 0 .564.096.828.288.264.168.396.42.396.756 0 .552-.036 1.092-.108 1.62a15.939 15.939 0 0 0-.072 1.512c0 .192.06.384.18.576.12.168.276.252.468.252.144 0 .408-.012.792-.036.384-.024.816-.06 1.296-.108.48-.048.984-.096 1.512-.144a49.513 49.513 0 0 0 1.44-.216 8.65 8.65 0 0 0 1.044-.288c.288-.12.432-.24.432-.36s-.012-.24-.036-.36a2.424 2.424 0 0 1-.036-.396c0-.192.048-.384.144-.576.096-.192.144-.384.144-.576a.512.512 0 0 0-.072-.288 1.338 1.338 0 0 1-.036-.324c0-.408.072-.804.216-1.188.168-.408.252-.816.252-1.224 0-.264-.012-.516-.036-.756a8.744 8.744 0 0 1-.036-.792c0-.264.036-.492.108-.684.096-.192.336-.288.72-.288.648 0 1.152.108 1.512.324.384.216.672.504.864.864.192.36.312.768.36 1.224.072.432.108.876.108 1.332 0 .672.024 1.32.072 1.944.072.624.108 1.248.108 1.872 0 .384-.06.756-.18 1.116-.096.36-.144.732-.144 1.116a.551.551 0 0 1-.252.468c-.168.096-.252.276-.252.54 0 .048.024.096.072.144.072.024.144.06.216.108a.322.322 0 0 1 .216.18c.072.072.108.18.108.324a.35.35 0 0 1-.072.18c-.048.048-.072.12-.072.216 0 .648.072 1.2.216 1.656.144.432.216.78.216 1.044a.639.639 0 0 1-.072.288 1.338 1.338 0 0 0-.036.324c0 .12.048.228.144.324l.288.216Zm-1.008-7.38v-.072c-.024 0-.048.012-.072.036.024.024.048.036.072.036.048 0 .072-.036.072-.108l-.072-.036-.072.072.072.072ZM177.352 43.416c-.192.696-.468 1.212-.828 1.548-.336.312-.804.552-1.404.72-.312-.216-.66-.444-1.044-.684-.36-.264-.54-.612-.54-1.044 0-.312-.084-.516-.252-.612-.168-.096-.252-.276-.252-.54v-.576c.024-.216.036-.42.036-.612-.048-.312-.108-.66-.18-1.044a8.258 8.258 0 0 1-.072-1.008c0-.144.012-.288.036-.432.024-.168.036-.324.036-.468a3.582 3.582 0 0 0-.108-.54l-.072-.504c0-.144.024-.288.072-.432.072-.168.108-.312.108-.432s-.024-.24-.072-.36a2.424 2.424 0 0 1-.036-.396c0-.384.036-.804.108-1.26.072-.456.108-.9.108-1.332 0-.12-.012-.228-.036-.324 0-.12-.06-.216-.18-.288a.32.32 0 0 0-.144.036h-.144c0 .048-.096.192-.288.432-.168.24-.372.516-.612.828-.216.288-.432.588-.648.9a4.655 4.655 0 0 0-.396.684c-.048.12-.108.276-.18.468a5.996 5.996 0 0 1-.252.576 8.798 8.798 0 0 1-.216.468l-.072.18a.805.805 0 0 0-.432.36c-.096.144-.18.3-.252.468a4.228 4.228 0 0 0-.18.504.82.82 0 0 1-.18.324c-.288.24-.564.612-.828 1.116a16.689 16.689 0 0 1-.9 1.512c-.336.504-.72.948-1.152 1.332-.432.384-.96.576-1.584.576-.576 0-1.152-.204-1.728-.612-.576-.408-.9-1.032-.972-1.872a5.052 5.052 0 0 0-.288-1.188 3.56 3.56 0 0 1-.216-1.188c0-.648.024-1.308.072-1.98a21.32 21.32 0 0 1 .288-1.908c0-.024.024-.192.072-.504.048-.336.084-.744.108-1.224a30.25 30.25 0 0 0 .108-1.692c.048-.624.072-1.26.072-1.908 0-.144-.024-.288-.072-.432a3.323 3.323 0 0 1-.036-.468c0-.12.048-.228.144-.324a.576.576 0 0 1 .36-.144c.432.048.852.18 1.26.396.408.192.612.504.612.936-.12 1.44-.252 2.844-.396 4.212a39.197 39.197 0 0 0-.216 4.176v.9l.072.972c.048.312.108.576.18.792.096.216.216.324.36.324.216 0 .504-.24.864-.72a20.74 20.74 0 0 0 1.224-1.728 60.1 60.1 0 0 0 1.332-2.052c.432-.72.816-1.32 1.152-1.8.192-.264.384-.456.576-.576.216-.144.36-.372.432-.684.096-.336.288-.648.576-.936.312-.312.576-.588.792-.828.144-.144.336-.384.576-.72.24-.336.504-.672.792-1.008.288-.336.576-.624.864-.864.288-.264.528-.396.72-.396.168 0 .348-.012.54-.036.216-.024.432-.036.648-.036.816 0 1.392.252 1.728.756.36.48.54 1.068.54 1.764s-.084 1.38-.252 2.052a7.629 7.629 0 0 0-.252 1.836v.396c.024.12.036.252.036.396 0 .504-.048.996-.144 1.476-.096.48-.144.96-.144 1.44.048.552.108 1.116.18 1.692a13.1 13.1 0 0 1 .108 1.62.32.32 0 0 1-.036.144v.108c0 .24.036.468.108.684.072.216.168.42.288.612ZM184.946 31.824c-.12.384-.264.744-.432 1.08a2.805 2.805 0 0 0-.216 1.116v.18a.592.592 0 0 1 .036.18c0 .192-.072.432-.216.72-.144.264-.216.624-.216 1.08-.024.072-.096.18-.216.324-.096.144-.204.312-.324.504-.12.192-.228.396-.324.612a1.584 1.584 0 0 0-.144.648c0 .096.012.18.036.252a.798.798 0 0 1 .036.252.501.501 0 0 1-.036.216 9.492 9.492 0 0 0-.54 1.548c-.168.6-.36 1.188-.576 1.764a6.525 6.525 0 0 1-.756 1.476c-.288.408-.636.612-1.044.612a1.07 1.07 0 0 1-.54-.144 3.24 3.24 0 0 1-.468-.324 2.043 2.043 0 0 1-.324-.324c-.096-.12-.144-.204-.144-.252 0-.144.096-.336.288-.576.336-.504.588-1.116.756-1.836.168-.72.42-1.404.756-2.052.048-.144.072-.276.072-.396.096-.768.3-1.572.612-2.412.336-.84.744-1.608 1.224-2.304.048-.096.096-.264.144-.504.12-.624.348-1.188.684-1.692.336-.504.684-.984 1.044-1.44.144-.192.348-.492.612-.9.264-.432.576-.852.936-1.26a6.5 6.5 0 0 1 1.188-1.116c.432-.336.9-.504 1.404-.504.408 0 .792.108 1.152.324.384.192.744.384 1.08.576h-.036c0 .024.036.108.108.252.072.12.144.264.216.432l.216.432c.072.12.108.192.108.216 0 .216-.06.444-.18.684a1.754 1.754 0 0 0-.144.72v.144c.024.024.036.06.036.108-.168.264-.24.552-.216.864a1.61 1.61 0 0 1-.072.828 2.873 2.873 0 0 0-.108.756v.432l.072.432c0 .12-.012.24-.036.36 0 .096-.012.204-.036.324 0 .336-.12.648-.36.936a1.336 1.336 0 0 0-.324.864c0 .072.012.12.036.144.12.264.192.552.216.864.048.288.072.552.072.792 0 .576-.12 1.056-.36 1.44.192.696.312 1.284.36 1.764.072.48.108 1.008.108 1.584 0 .336.036.66.108.972.096.312.144.6.144.864 0 .192-.048.372-.144.54a3.925 3.925 0 0 1-.18.468.773.773 0 0 1-.144.252c-.048.072-.132.108-.252.108-.096.024-.24.036-.432.036a1.706 1.706 0 0 1-1.404-.684c-.336-.432-.6-.96-.792-1.584a12.74 12.74 0 0 1-.36-1.908 24.118 24.118 0 0 1-.072-1.656c0-.36.012-.768.036-1.224.048-.456.072-.96.072-1.512 0-.192-.012-.396-.036-.612v-.612c0-.336.024-.72.072-1.152.048-.456.096-.936.144-1.44.048-.504.096-1.02.144-1.548.048-.528.072-1.044.072-1.548v-.252c0-.096-.048-.144-.144-.144-.12 0-.252.096-.396.288a.584.584 0 0 1-.504.252c-.12 0-.276.156-.468.468a3.818 3.818 0 0 1-.72.864c0-.048.012-.072.036-.072.024-.024.036-.048.036-.072l-.108-.072a.276.276 0 0 1 .036.108l.036.072ZM212.374 30.708c.24.192.36.408.36.648 0 .24-.132.456-.396.648-.24.192-.588.288-1.044.288h-.324a7.034 7.034 0 0 0-.324-.072c-1.344.408-2.58.948-3.708 1.62-.384.24-.588.552-.612.936-.024.36-.048.684-.072.972a3.153 3.153 0 0 1-.288 1.044c-.144.288-.216.636-.216 1.044a.82.82 0 0 1-.324.684c-.192.168-.288.408-.288.72v.18a.32.32 0 0 1 .036.144c0 .336-.072.624-.216.864-.12.216-.288.48-.504.792-.048.168-.204.456-.468.864-.24.384-.528.78-.864 1.188a7.654 7.654 0 0 1-1.08 1.08c-.36.312-.684.468-.972.468-.144 0-.36.108-.648.324a4.45 4.45 0 0 1-.828.54 13.13 13.13 0 0 1-1.548-.432 3.712 3.712 0 0 1-1.26-.792 8.888 8.888 0 0 1-.828-1.152 12.117 12.117 0 0 1-.684-1.368 18.53 18.53 0 0 1-.432-1.404 6.15 6.15 0 0 1-.144-1.26c0-.432.048-.84.144-1.224a5.18 5.18 0 0 0 .144-1.188c0-.144.036-.336.108-.576l.288-.72c.096-.264.18-.528.252-.792.096-.264.144-.492.144-.684 0-.168-.06-.384-.18-.648a11.275 11.275 0 0 0-.36-.864l-.36-.936a3.057 3.057 0 0 1-.144-.9c0-.936.084-1.668.252-2.196.192-.528.456-.924.792-1.188.36-.288.768-.468 1.224-.54.48-.072 1.008-.108 1.584-.108h1.656c.216 0 .588.096 1.116.288a8.114 8.114 0 0 1 1.692.792c.6.36 1.152.816 1.656 1.368.504.552.84 1.2 1.008 1.944.048.24.132.492.252.756.144.264.348.396.612.396a.501.501 0 0 0 .216-.036c.936-.336 1.848-.66 2.736-.972a9.964 9.964 0 0 1 2.844-.54ZM204.382 36a4.857 4.857 0 0 1-.108-.576c0-.216-.096-.324-.288-.324-.096 0-.24.024-.432.072l-1.8.648a5.59 5.59 0 0 1-1.908.324c-.288 0-.504.216-.648.648a7.123 7.123 0 0 0-.324 1.404c-.072.504-.12.996-.144 1.476v.9c0 .48.12.96.36 1.44.24.456.564.684.972.684.456 0 .888-.228 1.296-.684a9.56 9.56 0 0 0 1.152-1.584c.36-.576.66-1.116.9-1.62.264-.504.456-.804.576-.9.144-.24.228-.552.252-.936.048-.384.096-.708.144-.972Zm-7.596-5.364c.024.144.048.372.072.684.048.312.168.468.36.468.096 0 .18-.036.252-.108a2.35 2.35 0 0 1 .216-.252 2.35 2.35 0 0 1 .216-.252.448.448 0 0 1 .324-.144l.432.108c.312.072.648.18 1.008.324.36.144.696.324 1.008.54.312.192.468.408.468.648 0 .144-.072.348-.216.612-.144.24-.252.444-.324.612 0 .168.048.276.144.324.12.048.204.072.252.072.24 0 .528-.024.864-.072.36-.072.696-.168 1.008-.288a3.63 3.63 0 0 0 .864-.432c.24-.192.36-.408.36-.648 0-.48-.156-1.008-.468-1.584a6.078 6.078 0 0 0-1.152-1.584 6.38 6.38 0 0 0-1.584-1.224c-.576-.336-1.128-.504-1.656-.504-.768 0-1.368.288-1.8.864-.432.576-.648 1.188-.648 1.836Z" fill="#302E2E"/><path d="M211.705 28.008c.072-.648.228-1.188.468-1.62.24-.456.36-.936.36-1.44 0-.432.096-.852.288-1.26.216-.408.324-.732.324-.972a.73.73 0 0 0-.144-.396c-.072-.144-.108-.24-.108-.288 0-.072.072-.168.216-.288.24-.24.384-.468.432-.684.048-.216.072-.492.072-.828 0-.12-.012-.24-.036-.36a1.832 1.832 0 0 1-.036-.36c0-.408.084-.72.252-.936a1.25 1.25 0 0 0 .252-.792c0-.168.024-.288.072-.36a.838.838 0 0 1 .144-.216l.144-.144c.048-.048.072-.12.072-.216 0-.12-.012-.228-.036-.324a1.184 1.184 0 0 1-.036-.288c0-.024.06-.18.18-.468.144-.312.288-.66.432-1.044.144-.384.276-.768.396-1.152.144-.384.216-.672.216-.864a.32.32 0 0 0-.036-.144.592.592 0 0 1-.036-.18c0-.48.108-.816.324-1.008.216-.216.324-.432.324-.648 0-.072-.012-.156-.036-.252v-.252c.048-.288.168-.504.36-.648.192-.168.288-.324.288-.468 0-.336.048-.648.144-.936.12-.312.264-.648.432-1.008.168-.384.36-.816.576-1.296.216-.48.444-1.068.684-1.764.216-.648.492-1.164.828-1.548.36-.384.744-.852 1.152-1.404.168 0 .36-.048.576-.144.24-.096.516-.204.828-.324.312-.12.672-.228 1.08-.324a7.03 7.03 0 0 1 1.512-.144c.48 0 .924.156 1.332.468.408.312.756.72 1.044 1.224.288.48.516 1.032.684 1.656.168.6.252 1.212.252 1.836 0 .456-.072.888-.216 1.296-.144.408-.216.84-.216 1.296v.432c.024.144.036.3.036.468 0 .312-.048.636-.144.972-.072.312-.156.624-.252.936a32.48 32.48 0 0 1-.288.828c-.072.24-.108.432-.108.576 0 .336-.048.624-.144.864a5.255 5.255 0 0 1-.288.684 5.121 5.121 0 0 0-.36.972c-.072.336-.156.684-.252 1.044s-.228.72-.396 1.08a3.265 3.265 0 0 1-.72.936 1.4 1.4 0 0 0-.324.504c-.072.168-.144.36-.216.576-.048.216-.12.456-.216.72-.096.24-.252.504-.468.792-.096.096-.168.252-.216.468 0 .192-.072.432-.216.72-.12.264-.276.552-.468.864-.168.288-.348.588-.54.9-.168.312-.324.588-.468.828a14.82 14.82 0 0 1-.9 1.476c-.264.408-.504.756-.72 1.044-.216.288-.408.54-.576.756-.144.216-.24.432-.288.648 0 .096-.108.24-.324.432-.216.192-.468.396-.756.612-.264.192-.54.372-.828.54-.264.144-.444.228-.54.252-.096.024-.264.06-.504.108-.216.048-.456.12-.72.216-.24.096-.456.216-.648.36-.192.12-.288.276-.288.468 0 .072.012.156.036.252a.68.68 0 0 1 .036.216c0 .144-.048.324-.144.54a1.584 1.584 0 0 0-.144.648c0 .264.012.54.036.828l.072.9c0 .216-.06.396-.18.54a.73.73 0 0 0-.144.396c0 .096.012.192.036.288.024.072.048.156.072.252 0 .096-.012.192-.036.288a.68.68 0 0 0-.036.216c0 .144.036.24.108.288a.936.936 0 0 0 .288.036h.504a4.64 4.64 0 0 1 .576-.036c.36 0 .672.096.936.288.264.192.54.288.828.288.576 0 1.008.156 1.296.468.312.312.648.672 1.008 1.08.264.288.552.612.864.972.312.36.468.84.468 1.44 0 .144-.048.24-.144.288-.072.024-.108.06-.108.108 0 .072.06.18.18.324.144.144.216.264.216.36 0 .144-.06.288-.18.432a.59.59 0 0 0-.18.432c0 .12-.048.444-.144.972-.096.528-.312 1.08-.648 1.656-.336.6-.828 1.14-1.476 1.62-.648.48-1.524.72-2.628.72-.696 0-1.32-.216-1.872-.648-.552-.432-.948-.924-1.188-1.476a1.52 1.52 0 0 0-.288-.396 5.66 5.66 0 0 0-.396-.288 1.218 1.218 0 0 1-.324-.288.647.647 0 0 1-.108-.396c0-.264.096-.456.288-.576.192-.12.288-.312.288-.576v-.18c0-.096-.012-.192-.036-.288a.547.547 0 0 0-.144-.288c-.048-.096-.12-.144-.216-.144-.12 0-.24.048-.36.144-.12.072-.204.108-.252.108-.096 0-.144-.048-.144-.144 0-.216.12-.504.36-.864s.36-.708.36-1.044a.448.448 0 0 0-.144-.324.576.576 0 0 1-.144-.36c0-.096.012-.18.036-.252.024-.096.036-.192.036-.288 0-.216-.096-.36-.288-.432-.168-.096-.252-.264-.252-.504s.024-.492.072-.756c.072-.288.108-.564.108-.828 0-.192-.036-.396-.108-.612a3.492 3.492 0 0 1-.072-.684c0-.312.072-.612.216-.9.168-.288.252-.6.252-.936 0-.288-.024-.516-.072-.684-.024-.192-.156-.432-.396-.72l.036.036c.216-.072.348-.168.396-.288.072-.144.108-.3.108-.468 0-.12-.012-.228-.036-.324v-.36c0-.24.072-.456.216-.648.144-.168.216-.432.216-.792 0-.384.024-.72.072-1.008a.583.583 0 0 0-.108-.36 4.292 4.292 0 0 1-.144-.324Zm2.196-.54c.048-.144.072-.228.072-.252 0-.024-.012-.048-.036-.072l-.036.072c0 .048.024.12.072.216-.024-.024-.06-.036-.108-.036h.036c0-.024.012-.036.036-.036 0 .024-.012.048-.036.072v.036Zm.684 17.1a.58.58 0 0 1 .072-.252v-.108c0-.048-.024-.072-.072-.072 0 .024-.012.048-.036.072v.252c.024.024.036.06.036.108 0-.048.024-.072.072-.072 0 .024.012.036.036.036l.036.036c0 .024-.012.048-.036.072v.036h-.036c-.048 0-.072-.036-.072-.108Zm11.484-38.484a7.961 7.961 0 0 1-.18-.972c0-.264-.048-.552-.144-.864l-.216-.54a2.088 2.088 0 0 0-.396-.756 2.504 2.504 0 0 0-.648-.684c-.264-.192-.588-.288-.972-.288-.192 0-.408.132-.648.396-.216.24-.432.552-.648.936-.216.36-.42.744-.612 1.152-.192.384-.324.72-.396 1.008-.048.144-.12.348-.216.612s-.204.528-.324.792c-.096.24-.204.456-.324.648-.096.192-.18.312-.252.36a2.74 2.74 0 0 0-.504.72c-.12.288-.24.612-.36.972a61.24 61.24 0 0 0-.288 1.044 25.405 25.405 0 0 1-1.152 3.276c-.36.912-.804 2.148-1.332 3.708v.144c.024.024.036.06.036.108 0 .6-.108 1.152-.324 1.656-.192.48-.288.888-.288 1.224 0 .6-.06 1.188-.18 1.764-.12.576-.264 1.152-.432 1.728a34.908 34.908 0 0 0-.396 1.692 8.452 8.452 0 0 0-.18 1.728c0 .144.012.312.036.504.024.192.144.288.36.288s.468-.096.756-.288a5.94 5.94 0 0 0 .9-.684c.312-.264.588-.54.828-.828.24-.312.42-.564.54-.756.288-.552.624-1.08 1.008-1.584a8.878 8.878 0 0 0 1.044-1.62c.072-.216.18-.408.324-.576l.432-.576c.144-.192.276-.384.396-.576.144-.192.252-.408.324-.648.12-.144.252-.336.396-.576.168-.24.324-.492.468-.756.144-.288.264-.564.36-.828.096-.264.156-.504.18-.72l.18-.18c.144-.12.288-.3.432-.54.168-.24.312-.516.432-.828.144-.312.216-.648.216-1.008 0-.072.072-.144.216-.216.144-.096.216-.168.216-.216.072-.312.12-.588.144-.828.024-.24.048-.468.072-.684.048-.24.108-.48.18-.72a3.62 3.62 0 0 1 .396-.828c.048-.12.132-.384.252-.792.144-.408.216-.84.216-1.296 0-.168-.024-.336-.072-.504a3.56 3.56 0 0 1-.036-.504.67.67 0 0 1 .144-.432.953.953 0 0 0 .144-.54l-.072-.648a4.11 4.11 0 0 0-.036-.576ZM217.465 44.1c0-.36-.072-.744-.216-1.152-.12-.432-.3-.84-.54-1.224a4.75 4.75 0 0 0-.864-1.08 4.162 4.162 0 0 0-1.08-.792.592.592 0 0 0-.18.036c-.072 0-.108.036-.108.108.072.384.156.888.252 1.512a15.6 15.6 0 0 0 .396 1.836c.192.6.42 1.116.684 1.548.288.432.648.648 1.08.648.312 0 .48-.156.504-.468.048-.312.072-.636.072-.972Zm-3.528-1.404a.419.419 0 0 1-.108-.072c-.024-.048-.06-.072-.108-.072l-.072.072c0 .072.024.132.072.18.048.024.096.06.144.108a.276.276 0 0 0 .036-.108c0-.024.012-.06.036-.108Zm-.684 3.564c0-.216-.048-.324-.144-.324-.072 0-.108.072-.108.216 0 .072.06.132.18.18l.072-.072Zm-1.764-10.656c0 .048-.012.084-.036.108v.252c.024.048.06.072.108.072s.072-.024.072-.072v-.216c0-.096-.048-.144-.144-.144Zm1.224 9.216c-.024.024-.036.048-.036.072v.036c.024.048.048.072.072.072l.036-.036.036-.072c0-.048-.036-.072-.108-.072Zm13.536-32.04c0-.024-.024-.06-.072-.108-.072.072-.108.132-.108.18 0 .024.012.048.036.072l.072.072c.072-.024.108-.06.108-.108s-.012-.084-.036-.108ZM243.792 37.224a19.59 19.59 0 0 1-.684 1.872 29.938 29.938 0 0 0-.72 1.872c-.12.336-.228.708-.324 1.116-.096.408-.192.804-.288 1.188-.072.36-.156.708-.252 1.044-.072.336-.18.6-.324.792 0 .048-.12.408-.36 1.08-.24.672-.36 1.548-.36 2.628 0 .432-.084.78-.252 1.044-.168.264-.36.588-.576.972a.994.994 0 0 1-.756.504 6.647 6.647 0 0 1-.936.072c-.288 0-.516-.036-.684-.108a1.275 1.275 0 0 1-.396-.216 3.928 3.928 0 0 1-.288-.324 1.71 1.71 0 0 0-.432-.36.663.663 0 0 1-.36-.54c-.024-.216-.096-.372-.216-.468-.264-.264-.408-.552-.432-.864 0-.288-.012-.6-.036-.936 0-.192.012-.384.036-.576.024-.168.036-.348.036-.54a.684.684 0 0 0-.288-.576c-.192-.144-.288-.348-.288-.612 0-.888.012-1.788.036-2.7.048-.936.108-1.86.18-2.772.024-.432.048-.9.072-1.404.024-.528.048-1.032.072-1.512.048-.504.108-.96.18-1.368.096-.432.24-.768.432-1.008a.535.535 0 0 0 .144-.396c0-.12-.012-.24-.036-.36a2.624 2.624 0 0 1-.036-.432c0-.192.012-.384.036-.576.048-.192.072-.384.072-.576a.798.798 0 0 0-.036-.252 1.184 1.184 0 0 1-.036-.288c0-.216.096-.372.288-.468.192-.12.288-.252.288-.396l-.144-.576-.144-.576c-.408.048-.684.132-.828.252-.144.12-.252.252-.324.396-.048.12-.108.24-.18.36-.048.096-.18.156-.396.18-.168.048-.288.204-.36.468-.072.264-.216.444-.432.54a1.175 1.175 0 0 0-.36.288l-.252.252c-.072.096-.18.216-.324.36-.12.12-.324.264-.612.432-.12.168-.192.36-.216.576 0 .192-.012.384-.036.576a1.42 1.42 0 0 1-.18.504c-.096.144-.264.24-.504.288-.288.192-.432.348-.432.468 0 .12-.048.288-.144.504-.12.288-.324.6-.612.936-.264.312-.42.66-.468 1.044a.811.811 0 0 1-.144.288l-.144.288a21.578 21.578 0 0 0-.72 1.512c-.192.504-.432.96-.72 1.368-.264.408-.6.744-1.008 1.008-.408.24-.936.36-1.584.36s-1.224-.288-1.728-.864c-.48-.576-.72-1.476-.72-2.7 0-.6.072-1.188.216-1.764.144-.6.264-1.188.36-1.764.048-.288.144-.54.288-.756.168-.24.276-.528.324-.864a3.16 3.16 0 0 1 .216-.72c.096-.216.204-.444.324-.684.144-.24.3-.504.468-.792.168-.288.36-.636.576-1.044l.72-1.008c.264-.36.468-.744.612-1.152.072-.216.216-.408.432-.576a2.67 2.67 0 0 1 .756-.432 4.04 4.04 0 0 1 .828-.252c.288-.072.54-.108.756-.108.72 0 1.452.204 2.196.612.264.144.492.384.684.72.192.312.372.468.54.468.144-.024.3-.12.468-.288l.576-.576c.216-.24.444-.456.684-.648.264-.216.528-.372.792-.468.24-.072.504-.24.792-.504.312-.264.612-.396.9-.396.528 0 1.02.144 1.476.432.456.288.684.708.684 1.26a56.696 56.696 0 0 0-.108 2.016 5.306 5.306 0 0 1-.468 1.98c-.12.336-.204.744-.252 1.224l-.072 1.44c0 .456-.024.876-.072 1.26-.048.384-.144.66-.288.828-.144.216-.264.528-.36.936-.072.384-.132.816-.18 1.296l-.072 1.404v1.44a.4.4 0 0 1 .036.18c0 .264-.036.516-.108.756-.048.24-.072.492-.072.756 0 .6.048 1.188.144 1.764.096.576.144 1.032.144 1.368a.32.32 0 0 1-.036.144v.18l.036.216c.048.144.096.3.144.468.048.168.096.324.144.468.072.144.132.216.18.216.12 0 .252-.18.396-.54.168-.36.324-.66.468-.9.24-.384.396-.912.468-1.584.096-.648.24-1.248.432-1.8.072-.24.144-.516.216-.828.096-.312.18-.612.252-.9.096-.312.192-.588.288-.828.12-.264.24-.456.36-.576.096-.048.168-.192.216-.432.048-.264.096-.552.144-.864l.216-.936c.096-.336.228-.612.396-.828.336-.408.612-.864.828-1.368.24-.504.588-.96 1.044-1.368.072 0 .144.036.216.108a.773.773 0 0 1 .144.252c.048.12.072.288.072.504 0 .192-.024.432-.072.72a9.119 9.119 0 0 1-.252 1.044Zm-11.844-7.164a1.383 1.383 0 0 0-.9-.324 1.52 1.52 0 0 0-.828.252c-.576.408-1.092.9-1.548 1.476-.456.576-.864 1.2-1.224 1.872-.36.672-.684 1.368-.972 2.088a20.57 20.57 0 0 0-.648 2.088c-.024.024-.036.072-.036.144 0 .048.012.108.036.18.024.048.06.072.108.072.072 0 .204-.108.396-.324a7.05 7.05 0 0 0 .648-.756 23.12 23.12 0 0 0 1.188-1.692c.264-.408.54-.792.828-1.152.288-.36.6-.696.936-1.008.288-.264.528-.564.72-.9.192-.336.456-.6.792-.792-.024 0 .036-.132.18-.396s.264-.492.36-.684c0-.024-.012-.036-.036-.036v-.108ZM81.804 70.792a2.926 2.926 0 0 1-.416.864 3.03 3.03 0 0 1-.64.64c-.235.576-.352 1.12-.352 1.632 0 .213-.043.416-.128.608a1.812 1.812 0 0 0-.096.576c0 .107.01.203.032.288a.83.83 0 0 1 .032.256c0 .128-.01.256-.032.384l-.064.384c-.107.81-.213 1.706-.32 2.688-.085.981-.128 1.92-.128 2.816v.16a.355.355 0 0 1 .032.16c0 .042-.043.106-.128.192a.304.304 0 0 0-.128.256c0 .085.021.16.064.224a.394.394 0 0 1 .064.224c0 .106-.043.245-.128.416a1.45 1.45 0 0 0-.096.512c0 .213.021.416.064.608.064.17.096.341.096.512 0 .064-.01.128-.032.192v.192c0 .128.021.267.064.416a.852.852 0 0 1 .096.384c0 .298-.064.608-.192.928a2.74 2.74 0 0 0-.16.928c0 .427.043.896.128 1.408.107.49.16.981.16 1.472 0 .832.021 1.61.064 2.336.043.725.064 1.45.064 2.176 0 .256-.085.459-.256.608-.17.15-.384.256-.64.32-.235.064-.49.106-.768.128a8.5 8.5 0 0 1-.704.032.972.972 0 0 1-.352-.096 2.104 2.104 0 0 1-.416-.288 2.034 2.034 0 0 1-.352-.384.637.637 0 0 1-.16-.416c0-.128.032-.267.096-.416.064-.15.096-.31.096-.48 0-.107-.01-.224-.032-.352a1.63 1.63 0 0 1-.032-.32c0-.107.01-.192.032-.256a1.04 1.04 0 0 0 .128-.16.517.517 0 0 0 .128-.288c.043-.107.064-.278.064-.512 0-.17-.01-.33-.032-.48v-.384a.49.49 0 0 0-.224-.416.49.49 0 0 1-.224-.416c0-.15.064-.33.192-.544.128-.235.192-.49.192-.768 0-.32.01-.64.032-.96.021-.32.032-.64.032-.96 0-.49-.032-.992-.096-1.504a12.12 12.12 0 0 1-.096-1.504c0-.299.043-.608.128-.928.085-.32.128-.64.128-.96 0-.17-.01-.341-.032-.512v-.544c0-.704.043-1.387.128-2.048.107-.683.16-1.376.16-2.08 0-.64.053-1.376.16-2.208.107-.832.213-1.654.32-2.464 0-.128-.021-.277-.064-.448-.043-.17-.15-.256-.32-.256a.618.618 0 0 0-.32.096.855.855 0 0 1-.32.064 3.42 3.42 0 0 1-.672-.064 2.217 2.217 0 0 0-.64-.096 6.44 6.44 0 0 0-1.568.192 6.573 6.573 0 0 1-1.6.192c-.597 0-1.173-.032-1.728-.096a14.504 14.504 0 0 0-1.664-.096c-.192 0-.405.01-.64.032-.213.021-.32.128-.32.32a131.483 131.483 0 0 1-.16 2.976c-.043.981-.085 1.984-.128 3.008v.864c.021.277.032.565.032.864 0 1.707-.032 3.403-.096 5.088a416.819 416.819 0 0 1-.16 5.088c0 .234-.01.512-.032.832 0 .32-.021.65-.064.992a8.87 8.87 0 0 1-.096.864c-.043.277-.096.47-.16.576-.107.15-.181.33-.224.544a2.085 2.085 0 0 1-.224.608 1.087 1.087 0 0 1-.416.512c-.17.15-.448.224-.832.224a.635.635 0 0 1-.288-.064 1.054 1.054 0 0 0-.512 0 .707.707 0 0 1-.224.032c-.043 0-.107-.064-.192-.192a4.198 4.198 0 0 1-.256-.448 5.327 5.327 0 0 1-.224-.512 1.252 1.252 0 0 1-.096-.416c.021-.15.032-.299.032-.448.021-.15.032-.299.032-.448 0-.277-.043-.544-.128-.8a3.034 3.034 0 0 1-.096-.736c0-.107.01-.214.032-.32a1.12 1.12 0 0 0 .064-.352c0-.235-.043-.48-.128-.736a3.156 3.156 0 0 1-.096-.768c0-.81.021-1.621.064-2.432.043-.832.064-1.654.064-2.464 0-.15-.01-.299-.032-.448a3.168 3.168 0 0 1-.032-.448c0-.49.043-.96.128-1.408.107-.47.16-.886.16-1.248a1.12 1.12 0 0 0-.064-.352 2.158 2.158 0 0 1-.032-.352c0-.278.032-.544.096-.8s.096-.512.096-.768a1.379 1.379 0 0 1-.032-.256v-.288c0-.299.021-.63.064-.992.043-.384.064-.758.064-1.12 0-.15-.01-.288-.032-.416v-.448c0-.363.043-.715.128-1.056.085-.363.128-.725.128-1.088a.856.856 0 0 0-.064-.32.292.292 0 0 0-.192-.224 35.954 35.954 0 0 0-1.632-.16 6.997 6.997 0 0 1-.768-.128 1.015 1.015 0 0 1-.384-.288 11.918 11.918 0 0 0-.48-.64 1.022 1.022 0 0 1-.256-.704c0-.15.01-.267.032-.352.021-.085.15-.16.384-.224.256-.064.544-.128.864-.192.32-.064.64-.118.96-.16.341-.043.608-.085.8-.128.896-.15 1.803-.245 2.72-.288a62.283 62.283 0 0 1 2.784-.128c.939-.022 1.856-.053 2.752-.096a28.604 28.604 0 0 0 2.72-.256h.128a.528.528 0 0 1 .16-.032c.17 0 .33.01.48.032.17.021.341.032.512.032.107 0 .224-.01.352-.032a1.21 1.21 0 0 1 .384-.064c.299 0 .587.01.864.032.277.021.565.032.864.032.17 0 .341-.01.512-.032.192-.022.373-.032.544-.032.085 0 .32.01.704.032.384.021.779.064 1.184.128.405.064.768.17 1.088.32.341.128.512.32.512.576a.688.688 0 0 1-.128.384c-.085.128-.15.245-.192.352ZM84.366 87.976c0-.64.075-1.259.224-1.856a6.61 6.61 0 0 0 .256-1.824c0-.17.043-.395.128-.672.086-.299.192-.608.32-.928.128-.341.267-.683.416-1.024.17-.341.33-.65.48-.928.17-.299.363-.555.576-.768.214-.235.374-.501.48-.8.064-.213.182-.363.352-.448.17-.085.278-.245.32-.48a.3.3 0 0 1 .16-.224c.107-.043.214-.075.32-.096.107-.022.203-.043.288-.064a.292.292 0 0 0 .224-.192c.064-.15.17-.288.32-.416.15-.15.31-.278.48-.384.17-.128.342-.224.512-.288.17-.064.299-.096.384-.096.619.106 1.184.245 1.696.416.427.15.822.33 1.184.544.363.213.544.48.544.8 0 .213-.032.512-.096.896a6.58 6.58 0 0 1-.224 1.088c-.106.341-.245.65-.416.928-.17.256-.373.384-.608.384-.234 0-.437-.128-.608-.384-.15-.256-.224-.501-.224-.736 0-.192.01-.374.032-.544l.064-.544c0-.15-.074-.224-.224-.224-.32 0-.661.128-1.024.384a5.755 5.755 0 0 0-1.024.928 9.268 9.268 0 0 0-.96 1.216c-.298.448-.554.864-.768 1.248-.15.661-.341 1.312-.576 1.952a5.902 5.902 0 0 0-.352 2.048c0 .298.022.661.064 1.088.043.427.107.843.192 1.248.107.384.224.715.352.992.15.277.33.416.544.416.086 0 .31-.107.672-.32.384-.235.8-.512 1.248-.832.448-.32.875-.64 1.28-.96.427-.341.736-.608.928-.8.278-.32.63-.683 1.056-1.088.448-.406.896-.79 1.344-1.152.47-.363.928-.662 1.376-.896.448-.256.822-.384 1.12-.384.15 0 .278.021.384.064.107.043.16.139.16.288 0 .17-.085.341-.256.512-.15.15-.33.31-.544.48a6.72 6.72 0 0 0-.64.512c-.192.17-.33.352-.416.544-.042 0-.213.15-.512.448-.277.299-.597.63-.96.992l-1.056 1.056c-.32.341-.544.576-.672.704-.128.15-.384.405-.768.768-.362.362-.778.736-1.248 1.12-.47.362-.95.693-1.44.992-.49.277-.928.416-1.312.416-.64 0-1.152-.118-1.536-.352a2.78 2.78 0 0 1-.864-.864 4.864 4.864 0 0 1-.512-1.12 9.244 9.244 0 0 0-.448-1.152 1.912 1.912 0 0 1-.16-.8c0-.299-.01-.576-.032-.832Z" fill="#302E2E"/><path d="M110.243 91.592c-.17.618-.416 1.077-.736 1.376-.298.277-.714.49-1.248.64a23.109 23.109 0 0 0-.928-.608 1.097 1.097 0 0 1-.48-.928c0-.278-.074-.459-.224-.544-.149-.086-.224-.246-.224-.48v-.512c.022-.192.032-.374.032-.544a27.322 27.322 0 0 0-.16-.928 7.476 7.476 0 0 1-.064-.896c0-.128.011-.256.032-.384.022-.15.032-.288.032-.416a3.107 3.107 0 0 0-.096-.48 69.96 69.96 0 0 0-.064-.448c0-.128.022-.256.064-.384.064-.15.096-.278.096-.384a.85.85 0 0 0-.064-.32 2.192 2.192 0 0 1-.032-.352c0-.341.032-.715.096-1.12.064-.405.096-.8.096-1.184 0-.107-.01-.203-.032-.288 0-.107-.053-.192-.16-.256a.288.288 0 0 0-.128.032h-.128c0 .043-.085.17-.256.384-.149.213-.33.459-.544.736-.192.256-.384.522-.576.8-.17.256-.288.459-.352.608-.042.106-.096.245-.16.416-.064.17-.138.341-.224.512-.064.15-.128.288-.192.416l-.064.16a.72.72 0 0 0-.384.32c-.085.128-.16.266-.224.416-.064.15-.117.299-.16.448a.721.721 0 0 1-.16.288c-.256.213-.501.544-.736.992-.234.448-.501.896-.8 1.344-.298.448-.64.843-1.024 1.184-.384.341-.853.512-1.408.512-.512 0-1.024-.181-1.536-.544-.512-.363-.8-.918-.864-1.664a4.494 4.494 0 0 0-.256-1.056 3.164 3.164 0 0 1-.192-1.056c0-.576.022-1.163.064-1.76.064-.597.15-1.163.256-1.696 0-.022.022-.17.064-.448.043-.299.075-.661.096-1.088.043-.448.075-.95.096-1.504.043-.555.064-1.12.064-1.696a1.21 1.21 0 0 0-.064-.384 2.944 2.944 0 0 1-.032-.416c0-.107.043-.203.128-.288a.512.512 0 0 1 .32-.128c.384.042.758.16 1.12.352.363.17.544.448.544.832-.106 1.28-.224 2.528-.352 3.744a34.842 34.842 0 0 0-.192 3.712v.8l.064.864c.043.277.096.512.16.704.086.192.192.288.32.288.192 0 .448-.213.768-.64.342-.427.704-.939 1.088-1.536.406-.597.8-1.206 1.184-1.824.384-.64.726-1.173 1.024-1.6.171-.235.342-.406.512-.512.192-.128.32-.33.384-.608.086-.299.256-.576.512-.832.278-.278.512-.523.704-.736.128-.128.299-.341.512-.64.214-.299.448-.597.704-.896.256-.299.512-.555.768-.768.256-.235.47-.352.64-.352.15 0 .31-.01.48-.032a5.22 5.22 0 0 1 .576-.032c.726 0 1.238.224 1.536.672.32.427.48.95.48 1.568a7.46 7.46 0 0 1-.224 1.824 6.799 6.799 0 0 0-.224 1.632v.352c.022.106.032.224.032.352 0 .448-.042.885-.128 1.312a6.538 6.538 0 0 0-.128 1.28c.043.49.096.992.16 1.504s.096.992.096 1.44c0 .043-.01.085-.032.128v.096c0 .213.032.416.096.608s.15.373.256.544ZM113.794 92.36c0 .17-.043.352-.128.544-.086.17-.128.352-.128.544 0 .192-.075.427-.224.704a1.98 1.98 0 0 0-.224.896v.192a.613.613 0 0 1 .032.192c0 .128-.075.203-.224.224-.15.021-.267.032-.352.032-.427 0-.736-.064-.928-.192-.214-.128-.32-.405-.32-.832 0-.085.01-.203.032-.352 0-.15.021-.299.064-.448.021-.15.064-.278.128-.384.042-.107.096-.16.16-.16.021 0 .117.021.288.064-.043-.043-.064-.075-.064-.096.042 0 .074.01.096.032h-.064c0 .021-.011.032-.032.032a2.45 2.45 0 0 1-.096-.384 2.505 2.505 0 0 0-.096-.416v.032c-.022 0-.032-.01-.032-.032 0-.064.074-.203.224-.416.128-.235.266-.47.416-.704l.448-.672c.149-.214.234-.33.256-.352.064-.085.149-.181.256-.288l.352-.352.32-.32.128-.128c0-.064-.043-.139-.128-.224a.617.617 0 0 1-.096-.32c0-.128.042-.256.128-.384.085-.128.181-.235.288-.32.128-.107.234-.192.32-.256.085-.085.128-.16.128-.224 0-.043-.032-.117-.096-.224a.573.573 0 0 1 .192-.256.435.435 0 0 0 .128-.32c.042.085.117.128.224.128.042 0 .117-.032.224-.096.128-.064.192-.139.192-.224 0-.043-.011-.075-.032-.096v-.128c0-.064.032-.15.096-.256.234-.47.405-.886.512-1.248.106-.384.16-.822.16-1.312 0-.235-.011-.48-.032-.736l-.064-.736a6.348 6.348 0 0 1-.256-1.408 30.225 30.225 0 0 0-.16-1.568c-.043-.49-.128-.907-.256-1.248-.107-.342-.299-.512-.576-.512-.192 0-.47.117-.832.352-.342.235-.64.437-.896.608a3.376 3.376 0 0 1-.736-.288c-.278-.17-.416-.32-.416-.448 0-.043.106-.15.32-.32.234-.17.522-.341.864-.512a9.587 9.587 0 0 1 1.056-.512c.384-.15.725-.224 1.024-.224.256 0 .544.053.864.16.32.106.618.245.896.416.277.17.512.384.704.64.192.256.288.522.288.8 0 .043-.011.075-.032.096v.096c.106.15.213.32.32.512.128.17.192.31.192.416a.537.537 0 0 1-.032.16.507.507 0 0 0-.032.16c.106.192.16.416.16.672 0 .107-.022.224-.064.352a.85.85 0 0 0-.064.32c0 .128.064.256.192.384s.256.192.384.192a.77.77 0 0 0 .448-.16 3.316 3.316 0 0 0 .768-.768c.106-.15.192-.246.256-.288.106-.064.234-.192.384-.384.17-.192.352-.416.544-.672.213-.256.437-.501.672-.736.256-.256.533-.459.832-.608.021 0 .117-.085.288-.256l.544-.544c.213-.214.416-.395.608-.544.213-.17.362-.256.448-.256.17 0 .405.064.704.192.298.106.586.256.864.448.298.17.554.362.768.576.213.213.32.405.32.576 0 .107-.086.192-.256.256-.171.064-.31.096-.416.096-.576 0-1.131.139-1.664.416a9.833 9.833 0 0 0-1.568 1.024c-.512.384-1.014.81-1.504 1.28a18.64 18.64 0 0 1-1.472 1.216c-.107.234-.235.394-.384.48-.15.085-.288.192-.416.32a1.465 1.465 0 0 0-.352.48c-.086.213-.128.554-.128 1.024 0 .49.01.992.032 1.504.042.49.064.992.064 1.504 0 .234.064.533.192.896.149.362.341.715.576 1.056.234.32.501.608.8.864.32.234.64.352.96.352.384 0 .778-.128 1.184-.384.405-.256.8-.544 1.184-.864.405-.32.789-.608 1.152-.864.362-.256.693-.384.992-.384.064 0 .149.01.256.032.106.021.16.085.16.192 0 .256-.086.49-.256.704a3.32 3.32 0 0 1-.512.576c-.192.15-.374.298-.544.448-.171.128-.278.256-.32.384-.107.32-.31.565-.608.736-.278.17-.587.31-.928.416-.47.128-.918.31-1.344.544a2.465 2.465 0 0 1-1.248.352c-.384 0-.747-.085-1.088-.256a5.445 5.445 0 0 1-.896-.672 8.812 8.812 0 0 1-.768-.8 11.747 11.747 0 0 0-.64-.704.427.427 0 0 1-.128-.384.433.433 0 0 0-.128-.384 1.434 1.434 0 0 1-.256-.256 3.362 3.362 0 0 1-.192-.288c-.043-.043-.075-.139-.096-.288 0-.15-.011-.31-.032-.48a.99.99 0 0 0-.096-.448c-.043-.128-.107-.192-.192-.192-.171 0-.342.096-.512.288-.15.192-.299.427-.448.704l-.384.832a6.317 6.317 0 0 1-.352.672 4.43 4.43 0 0 0-.576 1.248 2.617 2.617 0 0 1-.672 1.152c.042-.043.064-.075.064-.096 0 .021-.011.043-.032.064v.032Zm-.928.768c0-.085-.022-.128-.064-.128-.064 0-.118.053-.16.16 0 .064.042.096.128.096.064 0 .096-.043.096-.128Zm6.08-7.712c0 .043.01.075.032.096a.402.402 0 0 1 .064.096.35.35 0 0 1 .064-.096c.021-.022.032-.053.032-.096 0-.022-.011-.043-.032-.064l-.064-.128-.096.192Zm-5.44 5.792-.032-.064c-.086 0-.128.021-.128.064s.032.064.096.064l.064-.064Zm1.216-2.912c.021-.022.032-.053.032-.096l-.064-.032c0 .021-.011.042-.032.064v.032l.064.032Zm-.928 2.112a.22.22 0 0 0-.064-.16l-.032.032v.128h.096ZM143.625 80.296c.213.17.32.362.32.576 0 .213-.118.405-.352.576-.214.17-.523.256-.928.256h-.288a6.825 6.825 0 0 0-.288-.064 14.806 14.806 0 0 0-3.296 1.44c-.342.213-.523.49-.544.832-.022.32-.043.608-.064.864a2.81 2.81 0 0 1-.256.928c-.128.256-.192.565-.192.928a.73.73 0 0 1-.288.608c-.171.15-.256.363-.256.64v.16a.289.289 0 0 1 .032.128c0 .298-.064.554-.192.768a8.861 8.861 0 0 1-.448.704c-.043.15-.182.405-.416.768-.214.341-.47.693-.768 1.056a6.835 6.835 0 0 1-.96.96c-.32.277-.608.416-.864.416-.128 0-.32.096-.576.288-.235.192-.48.352-.736.48-.491-.107-.95-.235-1.376-.384a3.29 3.29 0 0 1-1.12-.704 7.833 7.833 0 0 1-.736-1.024c-.235-.405-.438-.81-.608-1.216-.15-.427-.278-.843-.384-1.248a5.42 5.42 0 0 1-.128-1.12c0-.384.042-.747.128-1.088.085-.363.128-.715.128-1.056 0-.128.032-.299.096-.512l.256-.64c.085-.235.16-.47.224-.704.085-.235.128-.438.128-.608 0-.15-.054-.341-.16-.576-.086-.235-.192-.49-.32-.768a273.28 273.28 0 0 1-.32-.832 2.695 2.695 0 0 1-.128-.8c0-.832.074-1.483.224-1.952.17-.47.405-.822.704-1.056a2.28 2.28 0 0 1 1.088-.48 9.52 9.52 0 0 1 1.408-.096h1.472c.192 0 .522.085.992.256.469.15.97.384 1.504.704.533.32 1.024.725 1.472 1.216.448.49.746 1.067.896 1.728.042.213.117.437.224.672.128.235.309.352.544.352.085 0 .149-.01.192-.032.832-.299 1.642-.587 2.432-.864a8.857 8.857 0 0 1 2.528-.48ZM136.521 85a4.184 4.184 0 0 1-.096-.512c0-.192-.086-.288-.256-.288-.086 0-.214.021-.384.064l-1.6.576a4.973 4.973 0 0 1-1.696.288c-.256 0-.448.192-.576.576a6.333 6.333 0 0 0-.288 1.248 14.23 14.23 0 0 0-.128 1.312v.8c0 .427.106.853.32 1.28.213.405.501.608.864.608.405 0 .789-.203 1.152-.608a8.514 8.514 0 0 0 1.024-1.408c.32-.512.586-.992.8-1.44.234-.448.405-.715.512-.8.128-.213.202-.49.224-.832.042-.342.085-.63.128-.864Zm-6.752-4.768c.021.128.042.33.064.608.042.277.149.416.32.416.085 0 .16-.032.224-.096.064-.085.128-.16.192-.224.064-.086.128-.16.192-.224a.397.397 0 0 1 .288-.128l.384.096c.277.064.576.16.896.288.32.128.618.288.896.48.277.17.416.363.416.576 0 .128-.064.31-.192.544a4.705 4.705 0 0 0-.288.544c0 .15.042.245.128.288a.725.725 0 0 0 .224.064c.213 0 .469-.022.768-.064.32-.064.618-.15.896-.256.298-.107.554-.235.768-.384.213-.17.32-.363.32-.576 0-.427-.139-.896-.416-1.408a5.418 5.418 0 0 0-1.024-1.408 5.679 5.679 0 0 0-1.408-1.088c-.512-.299-1.003-.448-1.472-.448-.683 0-1.216.256-1.6.768-.384.512-.576 1.056-.576 1.632Z" fill="#302E2E"/><path d="M145.494 81.288a6.5 6.5 0 0 1-.384.96c-.128.298-.192.63-.192.992v.16a.537.537 0 0 1 .032.16c0 .17-.064.384-.192.64-.128.234-.192.554-.192.96-.022.064-.086.16-.192.288-.086.128-.182.277-.288.448a4.3 4.3 0 0 0-.288.544 1.397 1.397 0 0 0-.128.576c0 .085.01.16.032.224a.719.719 0 0 1 .032.224.45.45 0 0 1-.032.192 8.378 8.378 0 0 0-.48 1.376c-.15.533-.32 1.056-.512 1.568s-.416.95-.672 1.312c-.256.362-.566.544-.928.544a.95.95 0 0 1-.48-.128 2.839 2.839 0 0 1-.416-.288 1.81 1.81 0 0 1-.288-.288c-.086-.107-.128-.181-.128-.224 0-.128.085-.299.256-.512.298-.448.522-.992.672-1.632.149-.64.373-1.248.672-1.824a1.14 1.14 0 0 0 .064-.352 9.54 9.54 0 0 1 .544-2.144c.298-.747.661-1.43 1.088-2.048.042-.086.085-.235.128-.448a4.048 4.048 0 0 1 .608-1.504c.298-.448.608-.875.928-1.28.128-.17.309-.438.544-.8.234-.384.512-.757.832-1.12a5.78 5.78 0 0 1 1.056-.992c.384-.299.8-.448 1.248-.448.362 0 .704.096 1.024.288.341.17.661.341.96.512h-.032c0 .021.032.096.096.224.064.107.128.235.192.384l.192.384c.064.107.096.17.096.192 0 .192-.054.394-.16.608a1.548 1.548 0 0 0-.128.64v.128c.021.021.032.053.032.096-.15.235-.214.49-.192.768.042.256.021.501-.064.736a2.554 2.554 0 0 0-.096.672v.384l.064.384c0 .106-.011.213-.032.32 0 .085-.011.181-.032.288 0 .299-.107.576-.32.832-.192.235-.288.49-.288.768 0 .064.01.106.032.128.106.234.17.49.192.768.042.256.064.49.064.704 0 .512-.107.938-.32 1.28.17.618.277 1.141.32 1.568.064.426.096.896.096 1.408 0 .298.032.587.096.864.085.277.128.533.128.768 0 .17-.043.33-.128.48-.064.192-.118.33-.16.416a.704.704 0 0 1-.128.224c-.043.064-.118.096-.224.096a1.71 1.71 0 0 1-.384.032c-.512 0-.928-.203-1.248-.608-.299-.384-.534-.853-.704-1.408a11.24 11.24 0 0 1-.32-1.696 21.226 21.226 0 0 1-.064-1.472c0-.32.01-.683.032-1.088.042-.405.064-.853.064-1.344 0-.17-.011-.352-.032-.544v-.544c0-.299.021-.64.064-1.024.042-.406.085-.832.128-1.28l.128-1.376c.042-.47.064-.928.064-1.376v-.224c0-.086-.043-.128-.128-.128-.107 0-.224.085-.352.256a.52.52 0 0 1-.448.224c-.107 0-.246.139-.416.416a3.42 3.42 0 0 1-.64.768c0-.043.01-.064.032-.064.021-.022.032-.043.032-.064l-.096-.064a.252.252 0 0 1 .032.096l.032.064ZM169.875 80.296c.213.17.32.362.32.576 0 .213-.118.405-.352.576-.214.17-.523.256-.928.256h-.288a6.825 6.825 0 0 0-.288-.064 14.806 14.806 0 0 0-3.296 1.44c-.342.213-.523.49-.544.832-.022.32-.043.608-.064.864a2.81 2.81 0 0 1-.256.928c-.128.256-.192.565-.192.928a.73.73 0 0 1-.288.608c-.171.15-.256.363-.256.64v.16a.289.289 0 0 1 .032.128c0 .298-.064.554-.192.768a8.861 8.861 0 0 1-.448.704c-.043.15-.182.405-.416.768-.214.341-.47.693-.768 1.056a6.835 6.835 0 0 1-.96.96c-.32.277-.608.416-.864.416-.128 0-.32.096-.576.288-.235.192-.48.352-.736.48-.491-.107-.95-.235-1.376-.384a3.29 3.29 0 0 1-1.12-.704 7.833 7.833 0 0 1-.736-1.024c-.235-.405-.438-.81-.608-1.216-.15-.427-.278-.843-.384-1.248a5.42 5.42 0 0 1-.128-1.12c0-.384.042-.747.128-1.088.085-.363.128-.715.128-1.056 0-.128.032-.299.096-.512l.256-.64c.085-.235.16-.47.224-.704.085-.235.128-.438.128-.608 0-.15-.054-.341-.16-.576-.086-.235-.192-.49-.32-.768a273.28 273.28 0 0 1-.32-.832 2.695 2.695 0 0 1-.128-.8c0-.832.074-1.483.224-1.952.17-.47.405-.822.704-1.056a2.28 2.28 0 0 1 1.088-.48 9.52 9.52 0 0 1 1.408-.096h1.472c.192 0 .522.085.992.256.469.15.97.384 1.504.704.533.32 1.024.725 1.472 1.216.448.49.746 1.067.896 1.728.042.213.117.437.224.672.128.235.309.352.544.352.085 0 .149-.01.192-.032.832-.299 1.642-.587 2.432-.864a8.857 8.857 0 0 1 2.528-.48ZM162.771 85a4.184 4.184 0 0 1-.096-.512c0-.192-.086-.288-.256-.288-.086 0-.214.021-.384.064l-1.6.576a4.973 4.973 0 0 1-1.696.288c-.256 0-.448.192-.576.576a6.333 6.333 0 0 0-.288 1.248 14.23 14.23 0 0 0-.128 1.312v.8c0 .427.106.853.32 1.28.213.405.501.608.864.608.405 0 .789-.203 1.152-.608a8.514 8.514 0 0 0 1.024-1.408c.32-.512.586-.992.8-1.44.234-.448.405-.715.512-.8.128-.213.202-.49.224-.832.042-.342.085-.63.128-.864Zm-6.752-4.768c.021.128.042.33.064.608.042.277.149.416.32.416.085 0 .16-.032.224-.096.064-.085.128-.16.192-.224.064-.086.128-.16.192-.224a.397.397 0 0 1 .288-.128l.384.096c.277.064.576.16.896.288.32.128.618.288.896.48.277.17.416.363.416.576 0 .128-.064.31-.192.544a4.705 4.705 0 0 0-.288.544c0 .15.042.245.128.288a.725.725 0 0 0 .224.064c.213 0 .469-.022.768-.064.32-.064.618-.15.896-.256.298-.107.554-.235.768-.384.213-.17.32-.363.32-.576 0-.427-.139-.896-.416-1.408a5.418 5.418 0 0 0-1.024-1.408 5.679 5.679 0 0 0-1.408-1.088c-.512-.299-1.003-.448-1.472-.448-.683 0-1.216.256-1.6.768-.384.512-.576 1.056-.576 1.632Z" fill="#302E2E"/><path d="M168.473 85.768a2.33 2.33 0 0 1-1.216-.48c-.384-.299-.576-.597-.576-.896 0-.277.064-.587.192-.928.128-.363.288-.725.48-1.088.171-.384.374-.747.608-1.088.214-.363.416-.672.608-.928.235-.32.502-.694.8-1.12.32-.427.662-.779 1.024-1.056.128-.107.235-.245.32-.416.086-.17.203-.31.352-.416.64-.49 1.312-.95 2.016-1.376a4.263 4.263 0 0 1 2.336-.672c.32 0 .619.075.896.224.299.128.555.31.768.544.214.234.384.501.512.8.128.277.192.555.192.832 0 .363-.064.704-.192 1.024-.106.32-.16.661-.16 1.024v.16a.507.507 0 0 1 .032.16.432.432 0 0 1-.128.32c-.17.234-.288.512-.352.832-.042.32-.064.608-.064.864 0 .107-.032.256-.096.448a22.84 22.84 0 0 1-.224.64c-.085.213-.16.437-.224.672a2.453 2.453 0 0 0-.096.64l-.096.288c-.042.17-.096.373-.16.608a6.055 6.055 0 0 1-.224.672c-.064.213-.128.362-.192.448-.149.17-.234.459-.256.864a8.468 8.468 0 0 1-.128 1.12 2.044 2.044 0 0 1-.224.64 1.13 1.13 0 0 0-.16.608c0 .085.011.192.032.32.022.128.086.192.192.192.086 0 .171-.053.256-.16a2.26 2.26 0 0 0 .288-.352c.107-.15.203-.299.288-.448.086-.15.16-.267.224-.352.235-.32.48-.619.736-.896.256-.278.48-.576.672-.896.022-.064.118-.192.288-.384.171-.192.363-.384.576-.576.235-.213.48-.395.736-.544.256-.15.491-.224.704-.224.128 0 .256.043.384.128.128.064.192.203.192.416 0 .235-.192.587-.576 1.056-.384.448-.789.906-1.216 1.376a1.66 1.66 0 0 0-.352.864c-.042.32-.085.501-.128.544a1.204 1.204 0 0 0-.352.64l-.064.704a1.354 1.354 0 0 1-.192.608c-.106.15-.224.288-.352.416l-.32.384a.791.791 0 0 0-.128.448.891.891 0 0 1-.192.544 1.936 1.936 0 0 1-.512.512c-.213.17-.448.299-.704.384-.234.106-.469.16-.704.16a.525.525 0 0 1-.384-.16.593.593 0 0 0-.384-.128.894.894 0 0 1-.608-.224 1.519 1.519 0 0 1-.416-.48 2.842 2.842 0 0 1-.192-.64 3.668 3.668 0 0 1-.064-.64c0-.448.011-.886.032-1.312.043-.427.064-.854.064-1.28 0-.235-.021-.48-.064-.736a4.383 4.383 0 0 1-.064-.704c0-.107.032-.203.096-.288a.586.586 0 0 0 .064-.512v-.16c0-.278.118-.501.352-.672.235-.192.352-.374.352-.544a.342.342 0 0 0-.064-.192.576.576 0 0 1-.064-.256c0-.256.032-.448.096-.576.064-.15.128-.267.192-.352.064-.085.128-.16.192-.224a.518.518 0 0 0 .096-.32.468.468 0 0 0-.096-.288.869.869 0 0 1-.064-.32c0-.235.054-.501.16-.8.107-.32.224-.63.352-.928.128-.299.246-.566.352-.8.107-.256.16-.448.16-.576a.342.342 0 0 0-.064-.192.576.576 0 0 1-.064-.256c0-.384.032-.81.096-1.28.086-.49.15-.95.192-1.376a.631.631 0 0 0-.064-.288c-.021-.107-.085-.16-.192-.16a43.71 43.71 0 0 1-.896.768c-.149.128-.277.235-.384.32a1.31 1.31 0 0 0-.576.32c-.192.17-.394.363-.608.576-.192.213-.384.437-.576.672-.192.234-.362.448-.512.64-.149.17-.234.362-.256.576a1.163 1.163 0 0 1-.256.608 5.024 5.024 0 0 0-.64 1.152c-.149.427-.288.853-.416 1.28-.128.405-.266.79-.416 1.152-.149.341-.352.597-.608.768Zm9.664.032.032.096h-.064l.032-.096Z" fill="#302E2E"/></svg>