<svg width="45" height="40" viewBox="0 0 45 40" fill="none" xmlns="http://www.w3.org/2000/svg">
<g clip-path="url(#clip0_90_198)">
<path d="M11.3199 18.6879C17.3222 16.2402 21.3247 14.6263 23.3273 13.8467C29.0452 11.6205 30.2333 11.2338 31.0078 11.2208C31.178 11.2181 31.5588 11.2577 31.8056 11.445C32.0138 11.6032 32.0711 11.8169 32.0987 11.967C32.126 12.1169 32.1602 12.4587 32.133 12.7257C31.8232 15.7732 30.4824 23.1686 29.8003 26.5818C29.5117 28.0261 28.9433 28.5104 28.3931 28.5577C27.1976 28.6607 26.2896 27.8181 25.1315 27.1075C23.3193 25.9956 22.2956 25.3033 20.5366 24.2184C18.5038 22.9644 19.8216 22.2753 20.9802 21.149C21.2833 20.8542 26.5515 16.3689 26.6534 15.9619C26.6662 15.911 26.678 15.7214 26.5576 15.6211C26.4372 15.5211 26.2596 15.5553 26.1313 15.5826C25.9496 15.6211 23.0546 17.4123 17.4465 20.9557C16.6248 21.484 15.8805 21.7413 15.2137 21.7278C14.4785 21.7129 13.0644 21.3386 12.0131 21.0188C10.7237 20.6265 9.69889 20.419 9.78813 19.7528C9.83461 19.4057 10.3452 19.0507 11.3199 18.6879Z" fill="#302E2E"/>
</g>
<defs>
<clipPath id="clip0_90_198">
<rect width="44.7205" height="40" fill="white"/>
</clipPath>
</defs>
</svg>
