<svg width="45" height="40" viewBox="0 0 45 40" fill="none" xmlns="http://www.w3.org/2000/svg">
<path d="M11.46 18.651C11.46 13.9138 11.46 11.5487 13.0252 10.0696C14.6128 8.60449 17.1395 8.60449 22.1929 8.60449H23.0873C28.1481 8.60449 30.6748 8.60449 32.255 10.0696C33.8202 11.5557 33.8202 13.9208 33.8202 18.651V19.4882C33.8202 24.2254 33.8202 26.5905 32.255 28.0696C30.6674 29.5347 28.1407 29.5347 23.0873 29.5347H22.1929C17.1321 29.5347 14.6053 29.5347 13.0252 28.0696C11.46 26.5836 11.46 24.2184 11.46 19.4882V18.651Z" fill="#302E2E"/>
<path d="M23.3107 22.6675C18.2126 22.6675 15.3057 19.4024 15.1865 13.9605H17.7504C17.8324 17.9513 19.7107 19.6396 21.2014 19.9885V13.9605H23.6088V17.4C25.0772 17.2535 26.6274 15.6838 27.1493 13.9536H29.5492C29.3536 14.8493 28.9627 15.6975 28.4009 16.4454C27.8392 17.1932 27.1188 17.8247 26.2846 18.3C27.2155 18.7338 28.0375 19.3473 28.6967 20.1C29.3558 20.8529 29.8368 21.728 30.1082 22.6675H27.4623C26.8957 21.014 25.4796 19.7304 23.6088 19.5559V22.6675H23.3181H23.3107Z" fill="white"/>
</svg>
