<svg width="46" height="40" viewBox="0 0 46 40" fill="none" xmlns="http://www.w3.org/2000/svg">
<g clip-path="url(#clip0_90_201)">
<path fill-rule="evenodd" clip-rule="evenodd" d="M30.826 11.6132C28.7298 9.651 25.9347 8.60449 22.9999 8.60449C16.8509 8.60449 11.8198 13.3138 11.8198 19.0696C11.8198 20.901 12.3788 22.7324 13.3571 24.3022L11.8198 29.5347L17.6894 28.0958C19.3664 28.8807 21.1832 29.4039 22.9999 29.4039C29.149 29.4039 34.1801 24.6946 34.1801 18.9388C34.1801 16.1917 32.9223 13.5754 30.826 11.6132ZM22.9999 27.7033C21.3229 27.7033 19.6459 27.3109 18.2484 26.526L17.9689 26.3952L14.4751 27.3109L15.4534 24.1714L15.1739 23.7789C14.1956 22.34 13.7763 20.7702 13.7763 19.2004C13.7763 14.4911 17.9689 10.5667 22.9999 10.5667C25.5155 10.5667 27.7515 11.4824 29.5683 13.0522C31.385 14.7527 32.2236 16.8458 32.2236 19.2004C32.2236 23.7789 28.1708 27.7033 22.9999 27.7033ZM28.031 21.1626C27.7515 21.0318 26.354 20.3777 26.0745 20.3777C25.795 20.2469 25.6552 20.2469 25.5155 20.5086C25.3757 20.7702 24.8167 21.2934 24.677 21.5551C24.5372 21.6859 24.3975 21.6859 24.118 21.6859C23.8385 21.5551 22.9999 21.2934 21.8819 20.3777C21.0434 19.7237 20.4844 18.808 20.3447 18.5464C20.2049 18.2847 20.3447 18.1539 20.4844 18.0231C20.6242 17.8923 20.7639 17.7615 20.9037 17.6307C21.0434 17.4998 21.0434 17.369 21.1832 17.2382C21.3229 17.1074 21.1832 16.9766 21.1832 16.8458C21.1832 16.715 20.6242 15.4068 20.3447 14.8836C20.2049 14.4911 19.9254 14.4911 19.7857 14.4911C19.6459 14.4911 19.5062 14.4911 19.2267 14.4911C19.0869 14.4911 18.8074 14.4911 18.5279 14.7527C18.2484 15.0144 17.5496 15.6684 17.5496 16.9766C17.5496 18.2847 18.5279 19.4621 18.6676 19.7237C18.8074 19.8545 20.6242 22.6016 23.4192 23.6481C25.795 24.5638 26.2142 24.3022 26.7732 24.3022C27.3322 24.3022 28.4503 23.6481 28.59 23.1248C28.8695 22.4708 28.8695 21.9475 28.7298 21.9475C28.59 21.2934 28.3105 21.2934 28.031 21.1626Z" fill="#302E2E"/>
</g>
<defs>
<clipPath id="clip0_90_201">
<rect width="44.7205" height="40" fill="white" transform="translate(0.639648)"/>
</clipPath>
</defs>
</svg>
