<svg width="388" height="149" fill="none" xmlns="http://www.w3.org/2000/svg"><path d="M50.293 53.096a5.977 5.977 0 0 0-.432 1.512 10.679 10.679 0 0 0-.108 1.512c0 .468.036.936.108 1.404.072.432.108.864.108 1.296 0 .252-.054.504-.162.756-.072-.18-.144-.378-.216-.594-.036-.216-.108-.324-.216-.324l-.216.648c-.144.432-.324.954-.54 1.566l-.54 1.728c-.18.576-.288 1.008-.324 1.296a1.724 1.724 0 0 1-.324.756c-.18.252-.378.522-.594.81a6.693 6.693 0 0 0-.594.81c-.18.288-.306.594-.378.918l-.324.594c-.18.396-.45.81-.81 1.242a6.08 6.08 0 0 1-1.296 1.242 2.434 2.434 0 0 1-1.62.594c-.612 0-1.134-.126-1.566-.378-.432-.252-.684-.468-.756-.648a2.033 2.033 0 0 0-.486-.81 5.565 5.565 0 0 0-.702-.594 9.707 9.707 0 0 1-.648-.594c-.216-.252-.36-.576-.432-.972-.072-.18-.216-.36-.432-.54-.216-.216-.324-.414-.324-.594 0-.144.036-.252.108-.324.108-.108.162-.198.162-.27 0-.036-.072-.126-.216-.27a4.685 4.685 0 0 0-.432-.486 5.892 5.892 0 0 0-.432-.486c-.108-.18-.162-.324-.162-.432 0-.324-.054-.576-.162-.756a1.892 1.892 0 0 0-.27-.54 5.69 5.69 0 0 0-.324-.486 1.586 1.586 0 0 1-.108-.594c0-.288-.054-.558-.162-.81a2.446 2.446 0 0 1-.162-.864c0-.036.09-.216.27-.54.216-.36.432-.738.648-1.134.252-.396.468-.792.648-1.188.216-.396.324-.702.324-.918a.48.48 0 0 0-.054-.216v-.27c0-.9.162-1.746.486-2.538a7.05 7.05 0 0 0 .486-2.592c0-.396-.018-.828-.054-1.296-.036-.468-.252-.702-.648-.702a.665.665 0 0 0-.378.108 5.71 5.71 0 0 1-.378.162l.054.054c-.108.108-.162.216-.162.324 0 .072.036.216.108.432 0 .18-.09.396-.27.648a4.291 4.291 0 0 1-1.134 1.134c-.18.144-.306.216-.378.216-.18 0-.306-.072-.378-.216a1.928 1.928 0 0 1-.162-.486c0-.216-.018-.432-.054-.648a.875.875 0 0 0-.162-.54c-.18-.288-.45-.63-.81-1.026-.36-.432-.558-.648-.594-.648-.108 0-.234.09-.378.27-.144.18-.306.27-.486.27-.144 0-.36-.072-.648-.216a1.368 1.368 0 0 0-.81-.27c-.072.036-.216.054-.432.054-.828.18-1.782.396-2.862.648a23.866 23.866 0 0 0-2.97.918c-.936.36-1.746.774-2.43 1.242-.648.468-.972 1.008-.972 1.62 0 .324.072.648.216.972.144.288.216.576.216.864 0 .36-.144.612-.432.756-.288.108-.432.27-.432.486 0 .144.09.252.27.324.288.288.414.558.378.81 0 .216.036.504.108.864.072.432.216.828.432 1.188.252.36.378.684.378.972 0 .36-.072.684-.216.972a8.994 8.994 0 0 1-.378.864l-.432.756c-.108.252-.162.54-.162.864v.432c.036.18.126.27.27.27a.718.718 0 0 1 .432-.162c.216 0 .432.126.648.378.216.216.378.414.486.594 0 .144-.018.288-.054.432v.378c0 .396.054.792.162 1.188.108.396.162.792.162 1.188 0 .36-.054.63-.162.81a.862.862 0 0 1-.486.378c-.18.072-.378.126-.594.162l-.648.216c-.468.18-.828.468-1.08.864-.216.396-.504.612-.864.648-.288 0-.594-.198-.918-.594-.288-.396-.432-.738-.432-1.026 0-.144.018-.288.054-.432.036-.108.054-.234.054-.378 0-.576-.108-1.08-.324-1.512-.18-.468-.27-.9-.27-1.296 0-.36.072-.756.216-1.188.18-.468.27-.918.27-1.35 0-.504-.072-1.008-.216-1.512-.144-.504-.216-.954-.216-1.35 0-.36.072-.738.216-1.134.18-.432.27-.846.27-1.242 0-.18-.036-.342-.108-.486a1.775 1.775 0 0 1-.054-.432c0-.18.018-.36.054-.54.036-.18.09-.378.162-.594.144-.72.234-1.458.27-2.214.036-.756.054-1.476.054-2.16 0-.396-.018-.81-.054-1.242a15.6 15.6 0 0 1-.054-1.296c0-.396.072-.792.216-1.188.18-.396.27-.792.27-1.188 0-.288-.108-.432-.324-.432-.144 0-.252.036-.324.108a1.25 1.25 0 0 1-.27.162h-.27c-.108 0-.162-.09-.162-.27.072-.216.18-.45.324-.702.144-.252.216-.468.216-.648a.79.79 0 0 0-.162-.486c-.108-.18-.162-.342-.162-.486 0-.144.018-.288.054-.432a.959.959 0 0 0 .108-.432c0-.288-.036-.558-.108-.81a3.55 3.55 0 0 1-.108-.864v-.108c.036-.036.054-.072.054-.108.288-.936.432-1.89.432-2.862 0-.972.072-1.926.216-2.862a2.503 2.503 0 0 1-.054-.486v-.486c0-.684.036-1.35.108-1.998.072-.684.108-1.35.108-1.998 0-.9.18-1.422.54-1.566.36-.18.846-.27 1.458-.27.72 0 1.242.126 1.566.378.324.216.486.684.486 1.404 0 .36-.018.774-.054 1.242 0 .468-.036.954-.108 1.458-.072.468-.18.936-.324 1.404a3.6 3.6 0 0 1-.486 1.134 1.072 1.072 0 0 0-.108.486c0 .216.036.45.108.702.108.216.162.432.162.648 0 .144-.072.288-.216.432a.718.718 0 0 0-.162.432c0 .252.018.504.054.756.036.252.054.504.054.756 0 .36-.072.738-.216 1.134-.108.396-.18.792-.216 1.188-.072.216-.234.378-.486.486-.252.108-.378.234-.378.378 0 .072.108.18.324.324.396.288.648.684.756 1.188.108.504.162 1.008.162 1.512 0 .468-.018.81-.054 1.026-.036.216-.09.378-.162.486a.85.85 0 0 1-.216.324c-.072.108-.162.27-.27.486.18.108.342.234.486.378.18.108.396.162.648.162.324-.072.63-.144.918-.216.324-.108.63-.216.918-.324.612-.216 1.53-.468 2.754-.756 1.26-.288 2.502-.558 3.726-.81a70.52 70.52 0 0 0 3.24-.81c.936-.288 1.404-.54 1.404-.756a.959.959 0 0 0-.108-.432 1.445 1.445 0 0 1-.108-.54c0-.252.036-.504.108-.756.072-.252.18-.378.324-.378.108 0 .216.054.324.162.144.108.306.252.486.432a.82.82 0 0 0 .486-.432c.108-.216.162-.414.162-.594 0-.288-.144-.468-.432-.54-.288-.072-.432-.306-.432-.702 0-.216-.018-.36-.054-.432-.036-.108-.09-.18-.162-.216a1.77 1.77 0 0 0-.27-.216c-.072-.072-.162-.216-.27-.432 0-.072.072-.252.216-.54.18-.324.36-.666.54-1.026.216-.36.396-.684.54-.972.18-.324.27-.54.27-.648 0-.36.072-.702.216-1.026.144-.36.306-.684.486-.972l.54-.972a2.84 2.84 0 0 0 .432-1.08 2.65 2.65 0 0 1 .594-1.188c.324-.36.504-.792.54-1.296.828.216 1.656.378 2.484.486.828.072 1.602.378 2.322.918-.18.72-.27 1.386-.27 1.998 0 .18.072.306.216.378.18.036.36.054.54.054h.324a.888.888 0 0 1 .27-.054l.054-.054c-.072.072-.18.162-.324.27-.144.108-.216.216-.216.324 0 .216.072.324.216.324h.162a.48.48 0 0 1 .216-.054c.144 0 .288.036.432.108.144.036.306.054.486.054.072 0 .216-.036.432-.108.144.072.252.108.324.108.18 0 .324-.09.432-.27.144-.216.288-.324.432-.324.18 0 .306.09.378.27.108.144.198.324.27.54.072.18.144.378.216.594.108.18.27.324.486.432l.054-.108v-.108a.48.48 0 0 0 .054-.216c0-.144-.054-.306-.162-.486a1.327 1.327 0 0 1-.108-.486c0-.18.09-.27.27-.27.144 0 .27.108.378.324.108.18.162.396.162.648 0 .036-.018.072-.054.108v.108c0 .36.162.72.486 1.08.36.324.684.576.972.756.072-.144.108-.342.108-.594 0-.324-.108-.576-.324-.756a2.883 2.883 0 0 1-.54-.756c.216-.324.414-.486.594-.486a.48.48 0 0 1 .216.054c.72.36 1.206.702 1.458 1.026.288.324.522.81.702 1.458a14.1 14.1 0 0 1-.27 1.188c-.072.36-.144.738-.216 1.134.216.612.486 1.332.81 2.16.36.828.54 1.548.54 2.16a.79.79 0 0 1-.162.486c-.108.144-.234.306-.378.486s-.27.378-.378.594c-.108.216-.162.486-.162.81v.918c.036.288.054.594.054.918 0 .288-.054.648-.162 1.08a6.957 6.957 0 0 1-.378 1.35c-.144.468-.306.936-.486 1.404-.18.432-.342.81-.486 1.134Zm-13.716-7.398a4.44 4.44 0 0 1-.648.378c-.252.108-.378.27-.378.486 0 .072.018.18.054.324.036.144.126.216.27.216.144 0 .216-.072.216-.216a.665.665 0 0 0-.108-.378 2.11 2.11 0 0 0-.162-.432c.216-.216.468-.324.756-.324v-.054ZM19.19 57.848c-.036.036-.054.09-.054.162 0-.036.018-.054.054-.054l-.108-.054-.108.108c0 .072.036.108.108.108.072 0 .108-.09.108-.27Zm30.024-19.17c-.036.036-.054.072-.054.108v-.108c.072 0 .108.09.108.27v.486c0 .18.018.36.054.54.036.144.108.216.216.216.072 0 .126-.036.162-.108a.48.48 0 0 0 .054-.216c0-.18-.054-.396-.162-.648-.072-.252-.198-.432-.378-.54Zm-2.97-2.214c-.432-.144-.846-.27-1.242-.378-.396-.108-.666-.162-.81-.162-.18 0-.342.018-.486.054h-.702a1.02 1.02 0 0 0-.324-.054c-.36 0-.684.126-.972.378-.288.216-.54.504-.756.864a5.97 5.97 0 0 0-.54 1.188c-.108.432-.18.846-.216 1.242 0-.036-.09.144-.27.54-.144.396-.324.9-.54 1.512-.18.612-.36 1.26-.54 1.944a9.014 9.014 0 0 0-.216 1.836c0 .18.018.342.054.486a.768.768 0 0 1 .108.432 5.3 5.3 0 0 1-.216 1.458 5.481 5.481 0 0 0-.216 1.512c-.072.216-.18.414-.324.594-.108.18-.162.324-.162.432a.58.58 0 0 0 .108.324c.108.072.162.162.162.27 0 .18-.072.36-.216.54-.144.18-.216.36-.216.54 0 .216.126.396.378.54.252.144.378.342.378.594 0 .288-.09.612-.27.972-.18.36-.27.738-.27 1.134v1.08c.036.324.072.684.108 1.08.036.36.108.72.216 1.08l.432.972c.18.324.324.648.432.972.144.324.216.666.216 1.026 0 .144-.018.288-.054.432a1.197 1.197 0 0 0-.054.378c0 .072.036.234.108.486.072.252.18.522.324.81.18.288.378.558.594.81.216.216.468.324.756.324.612 0 1.206-.378 1.782-1.134.576-.756 1.098-1.71 1.566-2.862a32.156 32.156 0 0 0 1.35-3.726 289.911 289.911 0 0 0 1.89-6.858c.252-.864.45-1.35.594-1.458.252-.216.396-.468.432-.756a3.55 3.55 0 0 0 .108-.864c0-.72-.072-1.404-.216-2.052a9.936 9.936 0 0 1-.216-2.052c0-.216.018-.432.054-.648.036-.216.054-.45.054-.702 0-.288-.072-.558-.216-.81a1.606 1.606 0 0 1-.216-.81v-.162a.48.48 0 0 0 .054-.216c0-.072-.072-.216-.216-.432a30.982 30.982 0 0 1-.486-.756c-.18-.324-.378-.648-.594-.972a4.089 4.089 0 0 1-.486-.972ZM36.037 57.686c-.072.504-.144.99-.216 1.458-.036.468-.054.9-.054 1.296 0 .18.036.396.108.648.108.216.216.324.324.324.216 0 .324-.126.324-.378 0-.36.054-.612.162-.756.144-.144.288-.252.432-.324.18-.108.342-.198.486-.27.144-.072.216-.252.216-.54 0-.684-.162-1.08-.486-1.188-.324-.108-.756-.198-1.296-.27Zm.648-17.496c0-.108-.036-.288-.108-.54-.072-.252-.216-.378-.432-.378-.072 0-.108.036-.108.108 0 .072.036.18.108.324.072.108.108.198.108.27 0 .18-.108.414-.324.702-.216.252-.324.486-.324.702a.87.87 0 0 0 .108.378c.072.108.144.162.216.162.288 0 .468-.198.54-.594.108-.432.18-.81.216-1.134Zm6.048-5.184a.628.628 0 0 0-.108-.162.48.48 0 0 0-.054-.216l-.216.108c-.072 0-.108.036-.108.108 0 .072.018.162.054.27.072.072.144.108.216.108.072 0 .144-.072.216-.216Zm8.478 2.538-.054-.054c0-.036-.018-.072-.054-.108 0 .036-.018.072-.054.108-.036 0-.054.018-.054.054 0 .036.036.09.108.162 0-.036.036-.09.108-.162Zm-32.94 13.77c-.072 0-.108-.036-.108-.108-.108 0-.162.072-.162.216 0 .036.036.054.108.054h.054c0-.036.036-.09.108-.162Zm18.9 5.184v.108l.162-.054-.162-.054Zm-17.82 3.078c-.036.036-.054.09-.054.162 0 .036.036.054.108.054.036 0 .054-.054.054-.162l-.108-.054Zm18.198 2.97c-.072-.072-.126-.108-.162-.108-.036 0-.09.036-.162.108 0 .108.054.162.162.162l.162-.162ZM52.291 39.38c.072.072.126.108.162.108.036-.036.054 0 .054.108-.036.072-.09.108-.162.108-.072 0-.108-.054-.108-.162v-.108c.036 0 .054-.018.054-.054Zm-4.644 26.082-.054-.108V65.3c.036-.036.072-.054.108-.054v.108c.036 0 .054.018.054.054l-.108.054ZM35.875 48.29h-.108c-.036 0-.054.018-.054.054l-.054-.054h.216Zm14.364 4.752.162-.054-.108.108-.054-.054Zm-6.534-19.278.054-.054-.054.054Zm-7.074 11.934c-.036 0-.054.018-.054.054l.054-.054Zm12.636-6.966h-.054c0-.036-.018-.054-.054-.054v.108l.054-.108.054.054Zm-3.726-1.62c0 .144-.054.216-.162.216-.072 0-.162-.108-.27-.324l.054-.054h.054c0-.036.018-.054.054-.054.072.036.108.072.108.108.036.036.09.072.162.108ZM64.052 48.236c-.18.576-.396 1.116-.648 1.62a4.207 4.207 0 0 0-.324 1.674v.27a.888.888 0 0 1 .054.27c0 .288-.108.648-.324 1.08-.216.396-.324.936-.324 1.62-.036.108-.144.27-.324.486-.144.216-.306.468-.486.756a7.4 7.4 0 0 0-.486.918 2.376 2.376 0 0 0-.216.972c0 .144.018.27.054.378.036.108.054.234.054.378a.752.752 0 0 1-.054.324c-.288.612-.558 1.386-.81 2.322-.252.9-.54 1.782-.864 2.646-.324.864-.702 1.602-1.134 2.214-.432.612-.954.918-1.566.918-.288 0-.558-.072-.81-.216a4.86 4.86 0 0 1-.702-.486 3.064 3.064 0 0 1-.486-.486c-.144-.18-.216-.306-.216-.378 0-.216.144-.504.432-.864.504-.756.882-1.674 1.134-2.754a13.15 13.15 0 0 1 1.134-3.078c.072-.216.108-.414.108-.594.144-1.152.45-2.358.918-3.618a17.527 17.527 0 0 1 1.836-3.456c.072-.144.144-.396.216-.756a6.859 6.859 0 0 1 1.026-2.538 33.237 33.237 0 0 1 1.566-2.16c.216-.288.522-.738.918-1.35.396-.648.864-1.278 1.404-1.89a9.75 9.75 0 0 1 1.782-1.674c.648-.504 1.35-.756 2.106-.756.612 0 1.188.162 1.728.486.576.288 1.116.576 1.62.864h-.054c0 .036.054.162.162.378.108.18.216.396.324.648l.324.648c.108.18.162.288.162.324 0 .324-.09.666-.27 1.026a2.63 2.63 0 0 0-.216 1.08v.216c.036.036.054.09.054.162a2.06 2.06 0 0 0-.324 1.296c.072.432.036.846-.108 1.242a4.31 4.31 0 0 0-.162 1.134v.648l.108.648c0 .18-.018.36-.054.54 0 .144-.018.306-.054.486 0 .504-.18.972-.54 1.404-.324.396-.486.828-.486 1.296 0 .108.018.18.054.216.18.396.288.828.324 1.296.072.432.108.828.108 1.188 0 .864-.18 1.584-.54 2.16.288 1.044.468 1.926.54 2.646.108.72.162 1.512.162 2.376 0 .504.054.99.162 1.458.144.468.216.9.216 1.296 0 .288-.072.558-.216.81a5.888 5.888 0 0 1-.27.702c-.072.18-.144.306-.216.378-.072.108-.198.162-.378.162-.144.036-.36.054-.648.054-.864 0-1.566-.342-2.106-1.026-.504-.648-.9-1.44-1.188-2.376a19.11 19.11 0 0 1-.54-2.862 36.177 36.177 0 0 1-.108-2.484c0-.54.018-1.152.054-1.836.072-.684.108-1.44.108-2.268 0-.288-.018-.594-.054-.918v-.918c0-.504.036-1.08.108-1.728.072-.684.144-1.404.216-2.16.072-.756.144-1.53.216-2.322.072-.792.108-1.566.108-2.322v-.378c0-.144-.072-.216-.216-.216-.18 0-.378.144-.594.432a.876.876 0 0 1-.756.378c-.18 0-.414.234-.702.702-.252.432-.612.864-1.08 1.296 0-.072.018-.108.054-.108.036-.036.054-.072.054-.108l-.162-.108a.414.414 0 0 1 .054.162l.054.108ZM102.494 65.624c-.288 1.044-.701 1.818-1.241 2.322-.504.468-1.207.828-2.106 1.08-.469-.324-.99-.666-1.567-1.026-.54-.396-.81-.918-.81-1.566 0-.468-.126-.774-.377-.918-.252-.144-.379-.414-.379-.81v-.864c.037-.324.055-.63.055-.918-.073-.468-.163-.99-.27-1.566a12.387 12.387 0 0 1-.109-1.512c0-.216.019-.432.055-.648.035-.252.053-.486.053-.702a5.374 5.374 0 0 0-.162-.81l-.108-.756c0-.216.036-.432.108-.648.109-.252.163-.468.163-.648s-.037-.36-.109-.54a3.636 3.636 0 0 1-.053-.594c0-.576.053-1.206.162-1.89.107-.684.161-1.35.161-1.998 0-.18-.017-.342-.053-.486 0-.18-.09-.324-.27-.432a.48.48 0 0 0-.216.054h-.217c0 .072-.143.288-.431.648-.252.36-.558.774-.918 1.242-.325.432-.648.882-.973 1.35-.288.432-.486.774-.594 1.026-.072.18-.162.414-.27.702a8.994 8.994 0 0 1-.377.864c-.109.252-.217.486-.325.702l-.108.27a1.207 1.207 0 0 0-.647.54c-.145.216-.27.45-.379.702a6.342 6.342 0 0 0-.27.756c-.072.216-.162.378-.27.486-.431.36-.846.918-1.242 1.674a25.033 25.033 0 0 1-1.35 2.268 10.303 10.303 0 0 1-1.727 1.998c-.648.576-1.44.864-2.376.864-.865 0-1.728-.306-2.593-.918-.864-.612-1.35-1.548-1.457-2.808a7.578 7.578 0 0 0-.433-1.782 5.34 5.34 0 0 1-.323-1.782c0-.972.035-1.962.108-2.97a31.98 31.98 0 0 1 .431-2.862c0-.036.036-.288.108-.756.073-.504.127-1.116.163-1.836.072-.756.126-1.602.162-2.538.072-.936.108-1.89.108-2.862 0-.216-.037-.432-.109-.648a4.985 4.985 0 0 1-.053-.702c0-.18.072-.342.216-.486.18-.144.36-.216.54-.216.648.072 1.278.27 1.89.594.612.288.918.756.918 1.404-.18 2.16-.379 4.266-.595 6.318a58.796 58.796 0 0 0-.324 6.264v1.35c.037.504.073.99.109 1.458.072.468.162.864.27 1.188.144.324.323.486.54.486.323 0 .755-.36 1.295-1.08a31.11 31.11 0 0 0 1.836-2.592 90.149 90.149 0 0 0 1.998-3.078 46.71 46.71 0 0 1 1.729-2.7c.288-.396.576-.684.864-.864.323-.216.54-.558.648-1.026.144-.504.431-.972.864-1.404.468-.468.864-.882 1.188-1.242.215-.216.504-.576.864-1.08.36-.504.755-1.008 1.188-1.512.431-.504.864-.936 1.296-1.296.431-.396.791-.594 1.08-.594.252 0 .522-.018.81-.054.323-.036.647-.054.971-.054 1.225 0 2.088.378 2.592 1.134.54.72.811 1.602.811 2.646 0 1.044-.127 2.07-.379 3.078s-.378 1.926-.378 2.754v.594c.036.18.054.378.054.594 0 .756-.071 1.494-.215 2.214a10.99 10.99 0 0 0-.217 2.16c.072.828.162 1.674.27 2.538.108.864.162 1.674.162 2.43a.48.48 0 0 1-.054.216v.162c0 .36.055.702.162 1.026.109.324.252.63.432.918ZM116.748 50.126c-.396 0-.81.036-1.242.108-.396.036-.738.054-1.026.054a1.02 1.02 0 0 1-.324-.054.601.601 0 0 0-.27-.054c-.144 0-.288.018-.432.054a1.775 1.775 0 0 1-.432.054c-.72 0-1.422-.126-2.106-.378a8.163 8.163 0 0 1-1.836-1.134 7.681 7.681 0 0 1-1.404-1.782 6.682 6.682 0 0 1-.702-2.268c.108-.504.216-.936.324-1.296.144-.396.252-.792.324-1.188.072-.324.216-.576.432-.756.216-.18.45-.342.702-.486a7.4 7.4 0 0 1 .756-.378c.252-.144.468-.324.648-.54.036-.036.18-.072.432-.108.252-.072.54-.144.864-.216.36-.072.702-.126 1.026-.162.324-.072.576-.108.756-.108.396 0 .792.036 1.188.108.432.036.864.09 1.296.162.18.18.396.27.648.27h.27a1.02 1.02 0 0 1 .324-.054c.252 0 .45.072.594.216.144.108.27.252.378.432.108.144.198.288.27.432.108.108.252.18.432.216.612 0 .99.27 1.134.81a5.3 5.3 0 0 1 .216 1.458c0 .288-.018.54-.054.756v.648c0 .432.216.702.648.81.432.108.81.162 1.134.162.18 0 .36-.018.54-.054a1.892 1.892 0 0 1 1.08-.054h.54c.288 0 .558-.018.81-.054.252-.072.522-.108.81-.108.576 0 1.116.126 1.62.378s.864.378 1.08.378c.036 0 .126-.036.27-.108.54.108.99.324 1.35.648.36.324.666.72.918 1.188 0 .324.108.612.324.864.252.216.378.486.378.81a16.882 16.882 0 0 1-.594 3.618 13.786 13.786 0 0 0-.432 3.348c0 1.008.018 2.016.054 3.024a84.72 84.72 0 0 1 .054 3.024c0 .468-.09.918-.27 1.35a3.766 3.766 0 0 0-.216 1.296c0 .288.018.594.054.918.072.324.108.63.108.918 0 .54-.144 1.008-.432 1.404-.108.288-.18.576-.216.864 0 .288-.09.576-.27.864l-.486.648a5.314 5.314 0 0 1-.756.81 8.11 8.11 0 0 1-.864.756c-.288.216-.54.324-.756.324-.108 0-.288-.126-.54-.378a8.759 8.759 0 0 1-.702-.81 7.651 7.651 0 0 1-.594-1.08c-.18-.36-.27-.684-.27-.972 0-.144.018-.252.054-.324 0-.144-.108-.522-.324-1.134-.216-.576-.324-1.08-.324-1.512 0-.108.018-.216.054-.324a.87.87 0 0 0 .108-.378c0-.396-.036-.774-.108-1.134a13.115 13.115 0 0 1-.054-1.188c0-1.44.108-2.862.324-4.266.216-1.44.468-2.862.756-4.266.18-.936.306-1.89.378-2.862.072-1.008.234-1.98.486-2.916 0-.324-.126-.522-.378-.594-.216-.072-.522-.108-.918-.108-.216 0-.36.018-.432.054-.252.108-.666.18-1.242.216-.576 0-1.152.09-1.728.27-.576.18-1.08.522-1.512 1.026-.432.468-.648 1.206-.648 2.214 0 .252-.054.486-.162.702-.072.216-.162.504-.27.864-.108.36-.234.828-.378 1.404-.108.576-.18 1.314-.216 2.214-.036.324-.072.666-.108 1.026-.036.324-.162.63-.378.918-.036.036-.054.09-.054.162a9.19 9.19 0 0 1-.702 2.97c-.36.9-.594 1.872-.702 2.916 0 .072-.018.126-.054.162 0 .072-.126.252-.378.54a9.37 9.37 0 0 1-.864.972 4.7 4.7 0 0 1-1.134.918c-.396.288-.792.432-1.188.432-.432 0-.81-.108-1.134-.324a4.31 4.31 0 0 1-.81-.81 25.529 25.529 0 0 1-.648-1.026 6.143 6.143 0 0 0-.648-1.026c-.576-.72-.99-1.674-1.242-2.862-.252-1.188-.378-2.286-.378-3.294 0-.504.18-.828.54-.972.396-.18.81-.27 1.242-.27.252 0 .522.018.81.054.324.036.612.108.864.216.288.108.522.288.702.54.216.216.324.522.324.918 0 .216-.036.432-.108.648a1.892 1.892 0 0 0-.108.594c0 .144.018.342.054.594.036.216.09.432.162.648.108.216.216.396.324.54.108.144.216.216.324.216.072 0 .144-.072.216-.216.684-1.62 1.332-3.24 1.944-4.86a53.735 53.735 0 0 0 1.674-4.968c.072-.36.198-.72.378-1.08.216-.36.324-.684.324-.972 0-.216-.09-.504-.27-.864Zm-3.024-3.564c.288.072.522.108.702.108.612 0 1.224-.072 1.836-.216.648-.144.972-.468.972-.972 0-.216-.072-.522-.216-.918a4.845 4.845 0 0 0-.648-1.188 3.757 3.757 0 0 0-.972-1.026 2.157 2.157 0 0 0-1.296-.432 4.76 4.76 0 0 0-1.134.162 4.202 4.202 0 0 0-1.242.54c-.36.216-.666.504-.918.864s-.378.792-.378 1.296c0 .576.216 1.026.648 1.35.468.324 1.008.486 1.62.486h.486c.18-.036.36-.054.54-.054ZM158.151 64.868c.252.504.396.9.432 1.188.072.288.108.666.108 1.134 0 .396-.018.792-.054 1.188v1.242c0-.036-.054.162-.162.594-.108.432-.27.9-.486 1.404a7.75 7.75 0 0 1-.648 1.458c-.216.432-.432.648-.648.648-.504-.108-.9-.252-1.188-.432a2.678 2.678 0 0 1-.81-.648c-.216-.252-.432-.594-.648-1.026-.216-.396-.468-.9-.756-1.512.108-.216.162-.414.162-.594s-.036-.378-.108-.594a3.636 3.636 0 0 1-.054-.594c0-.18.018-.36.054-.54.072-.216.108-.414.108-.594a15.424 15.424 0 0 1-.216-2.538 20.77 20.77 0 0 0-.054-2.592 1131.86 1131.86 0 0 0-.216-2.97 77.798 77.798 0 0 0-.162-2.97 2.864 2.864 0 0 0-.162-.594 3.935 3.935 0 0 1-.054-.648c0-.612.036-1.242.108-1.89a17.116 17.116 0 0 0 .054-3.294V47.264c.036-.36.054-.72.054-1.08 0-.216-.036-.45-.108-.702a4.985 4.985 0 0 1-.054-.702c0-.216.036-.432.108-.648.108-.216.162-.432.162-.648a5.3 5.3 0 0 0-.216-1.458c-.144-.504-.216-.918-.216-1.242 0-.828.108-1.584.324-2.268.252-.72.378-1.458.378-2.214 0-1.368.18-2.754.54-4.158.36-1.404.54-2.754.54-4.05 0-.612.054-1.026.162-1.242.144-.252.306-.594.486-1.026 1.008 0 1.962.18 2.862.54.9.324 1.764.864 2.592 1.62.252.252.396.666.432 1.242.072.54.108 1.062.108 1.566a5.51 5.51 0 0 1-.432 2.16 5.611 5.611 0 0 0-.378 2.052c0 .54-.108 1.062-.324 1.566-.18.468-.27.972-.27 1.512v.648c0 .576-.144 1.26-.432 2.052-.288.756-.432 1.71-.432 2.862 0 .504-.108 1.044-.324 1.62-.216.54-.324 1.008-.324 1.404 0 .288.018.486.054.594-.18.072-.36.126-.54.162-.18 0-.27.144-.27.432l.054.054c0 .036.018.054.054.054.18 0 .288-.036.324-.108.072-.108.108-.198.108-.27.036-.108.072-.198.108-.27.072-.108.198-.162.378-.162.108 0 .162.054.162.162 0 .18-.018.342-.054.486v.378c0 .252.234.432.702.54.504.108.9.162 1.188.162.432 0 .828-.18 1.188-.54a10.69 10.69 0 0 0 1.134-1.35l1.08-1.512c.396-.504.81-.882 1.242-1.134.324-.18.612-.504.864-.972.252-.504.54-.9.864-1.188a5.594 5.594 0 0 0 1.188-1.404c.324-.54.72-.99 1.188-1.35.468-.324.828-.72 1.08-1.188a4.64 4.64 0 0 1 .972-1.242.366.366 0 0 0 .108-.27c0-.144.036-.252.108-.324a.678.678 0 0 1 .27-.162.815.815 0 0 0 .324-.27.665.665 0 0 0 .108-.378c.036-.18.108-.306.216-.378.396-.324.702-.72.918-1.188.216-.504.432-.972.648-1.404.216-.468.486-.864.81-1.188.324-.36.81-.54 1.458-.54a7.62 7.62 0 0 1 1.782.918c.576.396.864.99.864 1.782 0 .324-.09.63-.27.918a5.099 5.099 0 0 1-.594.81c-.216.288-.45.576-.702.864-.216.252-.396.54-.54.864-.072.18-.144.306-.216.378a7.665 7.665 0 0 0-.378.432c-.144.18-.378.522-.702 1.026-.324.468-.756 1.188-1.296 2.16-.216.36-.396.666-.54.918-.144.252-.288.486-.432.702-.144.18-.324.36-.54.54a3.51 3.51 0 0 1-.756.432c-.36.18-.666.414-.918.702a7.55 7.55 0 0 0-.702.81c-.216.288-.45.576-.702.864-.252.252-.54.468-.864.648a8.759 8.759 0 0 1-.702.81 8.87 8.87 0 0 1-.54.594c-.144.144-.216.252-.216.324 0 .216-.09.414-.27.594a8.17 8.17 0 0 1-.54.486c-.216.18-.432.378-.648.594-.216.18-.36.432-.432.756-.072.216-.234.432-.486.648-.216.18-.45.378-.702.594-.216.216-.432.45-.648.702-.18.252-.27.54-.27.864 0 .18.108.486.324.918.216.432.468.918.756 1.458.288.504.594 1.044.918 1.62.324.54.594 1.026.81 1.458.684 1.368 1.512 2.484 2.484 3.348.972.828 2.178 1.638 3.618 2.43.252.144.54.252.864.324.324.072.63.162.918.27.324.072.576.162.756.27a.52.52 0 0 1 .378.432c0 .864-.27 1.422-.81 1.674-.54.216-1.17.324-1.89.324-1.008 0-2.052-.216-3.132-.648a18.74 18.74 0 0 1-3.186-1.782 22.724 22.724 0 0 1-2.862-2.43 22.8 22.8 0 0 1-2.322-2.808 33.375 33.375 0 0 1-.432-.594l-.54-.756a5.142 5.142 0 0 0-.54-.648c-.144-.18-.27-.27-.378-.27.036 0 0 .054-.108.162a.628.628 0 0 1-.108.162v.216a.48.48 0 0 1 .054.216c0 .288-.108.558-.324.81-.18.216-.27.45-.27.702 0 .18.036.324.108.432a.366.366 0 0 1 .108.27.718.718 0 0 1-.162.432.665.665 0 0 0-.108.378c0 .18.108.324.324.432.216.108.324.306.324.594 0 .648-.036 1.062-.108 1.242-.072.144-.216.342-.432.594.036.072.054.198.054.378v-.378Zm-.378-8.208c.036-.072.054-.198.054-.378 0-.468-.198-.828-.594-1.08-.144.072-.216.198-.216.378 0 .396.036.648.108.756.072.108.306.198.702.27-.216.36-.396.684-.54.972-.144.252-.216.72-.216 1.404 0 .432.054.828.162 1.188.072-.36.126-.702.162-1.026.036-.324.126-.594.27-.81.144.108.27.162.378.162.108 0 .162-.108.162-.324 0-.324-.018-.594-.054-.81 0-.216-.126-.45-.378-.702Zm-2.646-1.782c-.432.216-.648.432-.648.648 0 .18.054.378.162.594.144.216.216.432.216.648 0 .36-.072.702-.216 1.026a2.498 2.498 0 0 0-.216 1.026c0 .324.162.648.486.972.18.432.306.648.378.648.072 0 .144-.09.216-.27.072-.216.108-.36.108-.432-.036-.756-.072-1.566-.108-2.43 0-.9-.126-1.71-.378-2.43Zm.756-4.968c.144-.18.216-.414.216-.702 0-.108-.018-.234-.054-.378 0-.18-.054-.27-.162-.27a2.2 2.2 0 0 0-.162.756c0 .252.054.45.162.594Zm-.378 12.636a.87.87 0 0 0 .108-.378c0-.216-.108-.324-.324-.324-.252 0-.414.036-.486.108-.072.072-.144.198-.216.378a.584.584 0 0 0 .432.162c.18 0 .342.018.486.054Zm-.378-12.852c-.144.072-.216.144-.216.216 0 .072.072.144.216.216 0-.036.018-.054.054-.054.036-.036.054-.126.054-.27l-.108-.108Zm-.162-2.754c.036 0 .09-.036.162-.108 0-.144-.072-.216-.216-.216-.108 0-.162.072-.162.216 0 .072.072.108.216.108Zm1.134-8.208c-.072-.144-.126-.216-.162-.216-.036 0-.09.036-.162.108-.072.036-.108.09-.108.162 0 .108.09.162.27.162.108 0 .162-.072.162-.216Zm2.052 26.514c0-.18-.018-.306-.054-.378h.054v.378ZM207.868 46.562c.36.288.54.612.54.972s-.198.684-.594.972c-.36.288-.882.432-1.566.432h-.486a10.551 10.551 0 0 0-.486-.108 25.015 25.015 0 0 0-5.562 2.43c-.576.36-.882.828-.918 1.404-.036.54-.072 1.026-.108 1.458-.072.612-.216 1.134-.432 1.566-.216.432-.324.954-.324 1.566 0 .432-.162.774-.486 1.026-.288.252-.432.612-.432 1.08v.27a.48.48 0 0 1 .054.216c0 .504-.108.936-.324 1.296-.18.324-.432.72-.756 1.188-.072.252-.306.684-.702 1.296-.36.576-.792 1.17-1.296 1.782a11.48 11.48 0 0 1-1.62 1.62c-.54.468-1.026.702-1.458.702-.216 0-.54.162-.972.486-.396.324-.81.594-1.242.81a19.696 19.696 0 0 1-2.322-.648 5.567 5.567 0 0 1-1.89-1.188 13.332 13.332 0 0 1-1.242-1.728 18.176 18.176 0 0 1-1.026-2.052 27.794 27.794 0 0 1-.648-2.106 9.224 9.224 0 0 1-.216-1.89c0-.648.072-1.26.216-1.836a7.77 7.77 0 0 0 .216-1.782c0-.216.054-.504.162-.864l.432-1.08c.144-.396.27-.792.378-1.188.144-.396.216-.738.216-1.026 0-.252-.09-.576-.27-.972a16.913 16.913 0 0 0-.54-1.296l-.54-1.404a4.585 4.585 0 0 1-.216-1.35c0-1.404.126-2.502.378-3.294.288-.792.684-1.386 1.188-1.782a3.852 3.852 0 0 1 1.836-.81c.72-.108 1.512-.162 2.376-.162h2.484c.324 0 .882.144 1.674.432.792.252 1.638.648 2.538 1.188.9.54 1.728 1.224 2.484 2.052a6.31 6.31 0 0 1 1.512 2.916c.072.36.198.738.378 1.134.216.396.522.594.918.594a.752.752 0 0 0 .324-.054 643.77 643.77 0 0 1 4.104-1.458 14.946 14.946 0 0 1 4.266-.81ZM195.88 54.5a7.286 7.286 0 0 1-.162-.864c0-.324-.144-.486-.432-.486-.144 0-.36.036-.648.108l-2.7.972c-.9.324-1.854.486-2.862.486-.432 0-.756.324-.972.972a10.685 10.685 0 0 0-.486 2.106c-.108.756-.18 1.494-.216 2.214v1.35c0 .72.18 1.44.54 2.16.36.684.846 1.026 1.458 1.026.684 0 1.332-.342 1.944-1.026a14.34 14.34 0 0 0 1.728-2.376c.54-.864.99-1.674 1.35-2.43.396-.756.684-1.206.864-1.35.216-.36.342-.828.378-1.404.072-.576.144-1.062.216-1.458Zm-11.394-8.046c.036.216.072.558.108 1.026.072.468.252.702.54.702.144 0 .27-.054.378-.162.108-.144.216-.27.324-.378.108-.144.216-.27.324-.378a.671.671 0 0 1 .486-.216l.648.162c.468.108.972.27 1.512.486.54.216 1.044.486 1.512.81.468.288.702.612.702.972 0 .216-.108.522-.324.918-.216.36-.378.666-.486.918 0 .252.072.414.216.486.18.072.306.108.378.108.36 0 .792-.036 1.296-.108a9.272 9.272 0 0 0 1.512-.432c.504-.18.936-.396 1.296-.648.36-.288.54-.612.54-.972 0-.72-.234-1.512-.702-2.376a9.116 9.116 0 0 0-1.728-2.376 9.57 9.57 0 0 0-2.376-1.836c-.864-.504-1.692-.756-2.484-.756-1.152 0-2.052.432-2.7 1.296-.648.864-.972 1.782-.972 2.754Z" fill="#302E2E"/><path d="M209.348 50.936h.324a.888.888 0 0 1 .27-.054c.252 0 .504-.18.756-.54.252-.36.522-.774.81-1.242.324-.504.666-.99 1.026-1.458.36-.468.756-.81 1.188-1.026.252-.324.63-.738 1.134-1.242.504-.54 1.08-1.062 1.728-1.566.684-.54 1.44-.99 2.268-1.35a6.953 6.953 0 0 1 2.7-.54c.36 0 .702.054 1.026.162.324.072.648.162.972.27.288.072.468.234.54.486.072.216.252.324.54.324.252.072.486.234.702.486.216.252.396.54.54.864.18.288.306.594.378.918.108.288.162.504.162.648 0 .756-.108 1.656-.324 2.7a10.722 10.722 0 0 1-.864 2.754 13.055 13.055 0 0 1-1.134 1.944 9.921 9.921 0 0 0-1.026 1.944 3.292 3.292 0 0 1-.918 1.404c-.396.396-.792.828-1.188 1.296-.18.18-.342.414-.486.702a8.894 8.894 0 0 1-.486.756c-.18.252-.378.486-.594.702-.216.18-.468.288-.756.324-.288 0-.468.072-.54.216a1.072 1.072 0 0 0-.108.486c0 .252-.288.54-.864.864a22.05 22.05 0 0 1-1.998.864 26.8 26.8 0 0 1-2.268.648c-.72.18-1.26.27-1.62.27-.252 0-.504-.054-.756-.162a1.24 1.24 0 0 0-.702-.216c-.252 0-.468.198-.648.594-.18.36-.342.81-.486 1.35-.108.54-.198 1.08-.27 1.62-.036.54-.054.972-.054 1.296 0 .288.018.576.054.864.072.324.108.63.108.918 0 .288-.018.558-.054.81v.81c0 .324.09.576.27.756.216.18.36.396.432.648.108.288.18.594.216.918.036.324.054.648.054.972 0 .36.018.666.054.918.108.468.234.864.378 1.188.144.324.216.684.216 1.08v.702c0 .252-.072.486-.216.702-.108.216-.306.396-.594.54-.288.144-.72.216-1.296.216-.324 0-.63-.162-.918-.486-.288-.288-.54-.684-.756-1.188a9.53 9.53 0 0 1-.54-1.782 12.476 12.476 0 0 1-.162-2.052c0-.288.054-.594.162-.918.144-.324.216-.594.216-.81a8.599 8.599 0 0 1-.594-1.35c-.144-.36-.27-.738-.378-1.134-.108-.36-.162-.63-.162-.81 0-.18.054-.36.162-.54a1.042 1.042 0 0 0 .054-1.026 1.072 1.072 0 0 1-.054-.81.959.959 0 0 0 .108-.432c0-.18-.018-.324-.054-.432a2.008 2.008 0 0 1-.054-.486c0-.108.036-.27.108-.486 0-.288-.072-.576-.216-.864a1.917 1.917 0 0 1-.216-.864c0-.504.09-1.062.27-1.674.216-.648.324-1.134.324-1.458 0-.072-.018-.126-.054-.162a.48.48 0 0 1-.054-.216c0-.144.036-.252.108-.324a.518.518 0 0 0 .162-.378c0-.216-.108-.414-.324-.594-.18-.216-.27-.396-.27-.54 0-.108.108-.252.324-.432.216-.18.324-.36.324-.54 0-.144-.054-.342-.162-.594a1.906 1.906 0 0 1-.162-.756c0-.432.054-.774.162-1.026.108-.252.234-.45.378-.594.144-.144.27-.252.378-.324a.518.518 0 0 0 .162-.378.513.513 0 0 0-.216-.432c-.144-.108-.27-.342-.378-.702.144-.324.288-.684.432-1.08.18-.432.27-.828.27-1.188s-.126-.72-.378-1.08c-.252-.36-.378-.81-.378-1.35 0-.252.108-.594.324-1.026a3.14 3.14 0 0 0 .378-1.512c0-.396-.054-.792-.162-1.188a7.559 7.559 0 0 1-.108-1.242c0-.396.126-.774.378-1.134.288-.36.432-.774.432-1.242 0-.252-.018-.486-.054-.702a4.985 4.985 0 0 1-.054-.702c0-.288.018-.612.054-.972a4.72 4.72 0 0 1 .216-1.026c.108-.324.252-.594.432-.81.18-.252.414-.378.702-.378.252 0 .576.054.972.162.432.108.828.288 1.188.54.36.216.666.522.918.918.288.36.432.81.432 1.35 0 .36-.09.774-.27 1.242-.144.468-.324.954-.54 1.458a23.37 23.37 0 0 0-.594 1.404c-.144.468-.216.882-.216 1.242 0 .828-.108 1.566-.324 2.214a8.54 8.54 0 0 0-.432 1.998c0 .18.054.342.162.486a.718.718 0 0 1 .162.432c0 .144-.072.27-.216.378a.584.584 0 0 0-.162.432c0 .072.072.216.216.432-.324.144-.558.306-.702.486-.144.144-.27.324-.378.54-.072.216-.144.468-.216.756-.036.252-.144.558-.324.918l.108.108c.18 0 .324-.072.432-.216.108-.144.198-.306.27-.486.072-.216.126-.414.162-.594.036-.18.054-.324.054-.432 0-.288-.072-.558-.216-.81a.87.87 0 0 1 .378-.108 1.2 1.2 0 0 0 .378-.162Zm5.454-1.998c0 .396-.054.702-.162.918-.108.18-.234.36-.378.54-.108.144-.234.306-.378.486-.144.144-.252.36-.324.648-.144.468-.36.882-.648 1.242-.288.36-.576.738-.864 1.134-.108.144-.27.45-.486.918-.18.432-.378.936-.594 1.512a22.71 22.71 0 0 0-.486 1.674c-.144.576-.216 1.062-.216 1.458 0 .252.018.576.054.972.072.36.252.54.54.54.072 0 .432-.054 1.08-.162a18.71 18.71 0 0 0 2.268-.648 11.657 11.657 0 0 0 2.43-1.188c.792-.54 1.35-1.224 1.674-2.052.288-.36.558-.72.81-1.08.216-.288.45-.576.702-.864.252-.288.468-.522.648-.702.144-.108.324-.504.54-1.188.252-.72.486-1.53.702-2.43.252-.9.45-1.8.594-2.7.18-.936.27-1.674.27-2.214 0-.432-.108-.702-.324-.81-.216-.108-.486-.162-.81-.162-.612 0-1.206.198-1.782.594a18.84 18.84 0 0 0-1.728 1.35c-.54.504-1.08.99-1.62 1.458-.504.432-1.008.684-1.512.756Zm-7.776 5.508c-.144.072-.216.216-.216.432 0 .108.018.18.054.216.036.036.054.09.054.162a.628.628 0 0 1 .108-.162.628.628 0 0 0 .108-.162c0-.108-.036-.27-.108-.486Zm.702 16.794.162.054-.108-.216-.054.162Zm-.756-2.754c.072-.216.108-.342.108-.378l-.108-.108a.87.87 0 0 0-.108.378l.108.108ZM251.624 63.734c.036.216.072.486.108.81.036.324.09.648.162.972.108.288.252.54.432.756a.87.87 0 0 0 .702.324c.18 0 .378-.054.594-.162.252-.144.486-.288.702-.432.252-.18.486-.324.702-.432.216-.144.414-.216.594-.216.072 0 .162.054.27.162.144.072.216.162.216.27 0 1.044-.198 1.872-.594 2.484a66.64 66.64 0 0 1-1.35 1.998 1.33 1.33 0 0 1-.648.054c-.216-.036-.396.054-.54.27-.936.72-1.926 1.08-2.97 1.08-.36 0-.792-.054-1.296-.162-.504-.108-.792-.324-.864-.648a1.49 1.49 0 0 0-.324-.81 9.707 9.707 0 0 0-.594-.648c-.18-.216-.36-.45-.54-.702-.18-.216-.288-.504-.324-.864a2.358 2.358 0 0 0-.594-1.242c-.324-.396-.486-.81-.486-1.242 0-.144.054-.306.162-.486-.216-.792-.324-1.458-.324-1.998 0-.576-.054-1.098-.162-1.566 0-.252.09-.486.27-.702.18-.216.27-.432.27-.648 0-.18-.162-.288-.486-.324-.288-.036-.432-.162-.432-.378 0-.144.018-.288.054-.432.072-.18.108-.324.108-.432 0-.36-.072-.72-.216-1.08a3.025 3.025 0 0 1-.216-1.134c0-.792-.162-1.296-.486-1.512-.288-.252-.684-.378-1.188-.378-.612 0-1.26.054-1.944.162-.648.072-1.278.144-1.89.216-.936.18-1.764.342-2.484.486-.612.144-1.17.306-1.674.486s-.756.342-.756.486v.756c.036.216.054.45.054.702 0 .36-.036.72-.108 1.08-.072.36-.108.738-.108 1.134 0 .18.018.378.054.594.072.216.108.414.108.594s-.09.36-.27.54c-.144.18-.342.36-.594.54a2.84 2.84 0 0 1-.702.432 1.793 1.793 0 0 1-.702.162c-.54 0-.954-.252-1.242-.756-.288-.54-.504-1.206-.648-1.998-.108-.828-.18-1.71-.216-2.646a845.44 845.44 0 0 0-.108-2.7c0-.396.036-.81.108-1.242.108-.468.162-.9.162-1.296 0-.18-.036-.36-.108-.54a2.039 2.039 0 0 1-.108-.648c.036-.72.108-1.458.216-2.214s.198-1.494.27-2.214c.036-.18.162-.324.378-.432.216-.144.45-.252.702-.324.288-.072.558-.126.81-.162a5.73 5.73 0 0 1 .648-.054c.432 0 .846.144 1.242.432.396.252.594.63.594 1.134 0 .828-.054 1.638-.162 2.43a23.909 23.909 0 0 0-.108 2.268c0 .288.09.576.27.864.18.252.414.378.702.378.216 0 .612-.018 1.188-.054.576-.036 1.224-.09 1.944-.162.72-.072 1.476-.144 2.268-.216a74.27 74.27 0 0 0 2.16-.324c.648-.144 1.17-.288 1.566-.432.432-.18.648-.36.648-.54 0-.18-.018-.36-.054-.54a3.636 3.636 0 0 1-.054-.594c0-.288.072-.576.216-.864.144-.288.216-.576.216-.864a.768.768 0 0 0-.108-.432 2.008 2.008 0 0 1-.054-.486c0-.612.108-1.206.324-1.782a4.79 4.79 0 0 0 .378-1.836c0-.396-.018-.774-.054-1.134a13.115 13.115 0 0 1-.054-1.188c0-.396.054-.738.162-1.026.144-.288.504-.432 1.08-.432.972 0 1.728.162 2.268.486.576.324 1.008.756 1.296 1.296.288.54.468 1.152.54 1.836.108.648.162 1.314.162 1.998 0 1.008.036 1.98.108 2.916.108.936.162 1.872.162 2.808 0 .576-.09 1.134-.27 1.674a6.469 6.469 0 0 0-.216 1.674c0 .288-.126.522-.378.702-.252.144-.378.414-.378.81 0 .072.036.144.108.216.108.036.216.09.324.162a.483.483 0 0 1 .324.27c.108.108.162.27.162.486 0 .072-.036.162-.108.27-.072.072-.108.18-.108.324 0 .972.108 1.8.324 2.484.216.648.324 1.17.324 1.566a.959.959 0 0 1-.108.432 2.008 2.008 0 0 0-.054.486c0 .18.072.342.216.486l.432.324Zm-1.512-11.07v-.108c-.036 0-.072.018-.108.054.036.036.072.054.108.054.072 0 .108-.054.108-.162l-.108-.054-.108.108.108.108ZM281.528 65.624c-.288 1.044-.702 1.818-1.242 2.322-.504.468-1.206.828-2.106 1.08-.468-.324-.99-.666-1.566-1.026-.54-.396-.81-.918-.81-1.566 0-.468-.126-.774-.378-.918-.252-.144-.378-.414-.378-.81v-.864c.036-.324.054-.63.054-.918-.072-.468-.162-.99-.27-1.566a12.387 12.387 0 0 1-.108-1.512c0-.216.018-.432.054-.648.036-.252.054-.486.054-.702a5.374 5.374 0 0 0-.162-.81l-.108-.756c0-.216.036-.432.108-.648.108-.252.162-.468.162-.648s-.036-.36-.108-.54a3.636 3.636 0 0 1-.054-.594c0-.576.054-1.206.162-1.89.108-.684.162-1.35.162-1.998 0-.18-.018-.342-.054-.486 0-.18-.09-.324-.27-.432a.48.48 0 0 0-.216.054h-.216c0 .072-.144.288-.432.648-.252.36-.558.774-.918 1.242-.324.432-.648.882-.972 1.35-.288.432-.486.774-.594 1.026-.072.18-.162.414-.27.702a8.994 8.994 0 0 1-.378.864c-.108.252-.216.486-.324.702l-.108.27a1.207 1.207 0 0 0-.648.54c-.144.216-.27.45-.378.702a6.342 6.342 0 0 0-.27.756c-.072.216-.162.378-.27.486-.432.36-.846.918-1.242 1.674a25.033 25.033 0 0 1-1.35 2.268 10.303 10.303 0 0 1-1.728 1.998c-.648.576-1.44.864-2.376.864-.864 0-1.728-.306-2.592-.918-.864-.612-1.35-1.548-1.458-2.808a7.578 7.578 0 0 0-.432-1.782 5.34 5.34 0 0 1-.324-1.782c0-.972.036-1.962.108-2.97a31.98 31.98 0 0 1 .432-2.862c0-.036.036-.288.108-.756.072-.504.126-1.116.162-1.836.072-.756.126-1.602.162-2.538.072-.936.108-1.89.108-2.862 0-.216-.036-.432-.108-.648a4.985 4.985 0 0 1-.054-.702c0-.18.072-.342.216-.486.18-.144.36-.216.54-.216.648.072 1.278.27 1.89.594.612.288.918.756.918 1.404-.18 2.16-.378 4.266-.594 6.318a58.796 58.796 0 0 0-.324 6.264v1.35c.036.504.072.99.108 1.458.072.468.162.864.27 1.188.144.324.324.486.54.486.324 0 .756-.36 1.296-1.08a31.11 31.11 0 0 0 1.836-2.592 90.149 90.149 0 0 0 1.998-3.078 46.71 46.71 0 0 1 1.728-2.7c.288-.396.576-.684.864-.864.324-.216.54-.558.648-1.026.144-.504.432-.972.864-1.404.468-.468.864-.882 1.188-1.242.216-.216.504-.576.864-1.08.36-.504.756-1.008 1.188-1.512.432-.504.864-.936 1.296-1.296.432-.396.792-.594 1.08-.594.252 0 .522-.018.81-.054.324-.036.648-.054.972-.054 1.224 0 2.088.378 2.592 1.134.54.72.81 1.602.81 2.646 0 1.044-.126 2.07-.378 3.078s-.378 1.926-.378 2.754v.594c.036.18.054.378.054.594 0 .756-.072 1.494-.216 2.214-.144.72-.216 1.44-.216 2.16.072.828.162 1.674.27 2.538.108.864.162 1.674.162 2.43a.48.48 0 0 1-.054.216v.162c0 .36.054.702.162 1.026.108.324.252.63.432.918ZM292.919 48.236c-.18.576-.396 1.116-.648 1.62a4.207 4.207 0 0 0-.324 1.674v.27a.888.888 0 0 1 .054.27c0 .288-.108.648-.324 1.08-.216.396-.324.936-.324 1.62-.036.108-.144.27-.324.486-.144.216-.306.468-.486.756a7.4 7.4 0 0 0-.486.918 2.376 2.376 0 0 0-.216.972c0 .144.018.27.054.378.036.108.054.234.054.378a.752.752 0 0 1-.054.324c-.288.612-.558 1.386-.81 2.322-.252.9-.54 1.782-.864 2.646-.324.864-.702 1.602-1.134 2.214-.432.612-.954.918-1.566.918-.288 0-.558-.072-.81-.216a4.86 4.86 0 0 1-.702-.486 3.064 3.064 0 0 1-.486-.486c-.144-.18-.216-.306-.216-.378 0-.216.144-.504.432-.864.504-.756.882-1.674 1.134-2.754a13.15 13.15 0 0 1 1.134-3.078c.072-.216.108-.414.108-.594.144-1.152.45-2.358.918-3.618a17.527 17.527 0 0 1 1.836-3.456c.072-.144.144-.396.216-.756a6.859 6.859 0 0 1 1.026-2.538 33.237 33.237 0 0 1 1.566-2.16c.216-.288.522-.738.918-1.35.396-.648.864-1.278 1.404-1.89a9.75 9.75 0 0 1 1.782-1.674c.648-.504 1.35-.756 2.106-.756.612 0 1.188.162 1.728.486.576.288 1.116.576 1.62.864h-.054c0 .036.054.162.162.378.108.18.216.396.324.648l.324.648c.108.18.162.288.162.324 0 .324-.09.666-.27 1.026a2.63 2.63 0 0 0-.216 1.08v.216c.036.036.054.09.054.162a2.06 2.06 0 0 0-.324 1.296c.072.432.036.846-.108 1.242a4.31 4.31 0 0 0-.162 1.134v.648l.108.648c0 .18-.018.36-.054.54 0 .144-.018.306-.054.486 0 .504-.18.972-.54 1.404-.324.396-.486.828-.486 1.296 0 .108.018.18.054.216.18.396.288.828.324 1.296.072.432.108.828.108 1.188 0 .864-.18 1.584-.54 2.16.288 1.044.468 1.926.54 2.646.108.72.162 1.512.162 2.376 0 .504.054.99.162 1.458.144.468.216.9.216 1.296 0 .288-.072.558-.216.81a5.888 5.888 0 0 1-.27.702c-.072.18-.144.306-.216.378-.072.108-.198.162-.378.162-.144.036-.36.054-.648.054-.864 0-1.566-.342-2.106-1.026-.504-.648-.9-1.44-1.188-2.376a19.11 19.11 0 0 1-.54-2.862 36.177 36.177 0 0 1-.108-2.484c0-.54.018-1.152.054-1.836.072-.684.108-1.44.108-2.268 0-.288-.018-.594-.054-.918v-.918c0-.504.036-1.08.108-1.728.072-.684.144-1.404.216-2.16.072-.756.144-1.53.216-2.322.072-.792.108-1.566.108-2.322v-.378c0-.144-.072-.216-.216-.216-.18 0-.378.144-.594.432a.876.876 0 0 1-.756.378c-.18 0-.414.234-.702.702-.252.432-.612.864-1.08 1.296 0-.072.018-.108.054-.108.036-.036.054-.072.054-.108l-.162-.108a.414.414 0 0 1 .054.162l.054.108ZM334.062 46.562c.36.288.54.612.54.972s-.198.684-.594.972c-.36.288-.882.432-1.566.432h-.486a10.551 10.551 0 0 0-.486-.108 25.015 25.015 0 0 0-5.562 2.43c-.576.36-.882.828-.918 1.404-.036.54-.072 1.026-.108 1.458-.072.612-.216 1.134-.432 1.566-.216.432-.324.954-.324 1.566 0 .432-.162.774-.486 1.026-.288.252-.432.612-.432 1.08v.27a.48.48 0 0 1 .054.216c0 .504-.108.936-.324 1.296-.18.324-.432.72-.756 1.188-.072.252-.306.684-.702 1.296-.36.576-.792 1.17-1.296 1.782a11.48 11.48 0 0 1-1.62 1.62c-.54.468-1.026.702-1.458.702-.216 0-.54.162-.972.486-.396.324-.81.594-1.242.81a19.696 19.696 0 0 1-2.322-.648 5.567 5.567 0 0 1-1.89-1.188 13.332 13.332 0 0 1-1.242-1.728 18.176 18.176 0 0 1-1.026-2.052 27.794 27.794 0 0 1-.648-2.106 9.224 9.224 0 0 1-.216-1.89c0-.648.072-1.26.216-1.836a7.77 7.77 0 0 0 .216-1.782c0-.216.054-.504.162-.864l.432-1.08c.144-.396.27-.792.378-1.188.144-.396.216-.738.216-1.026 0-.252-.09-.576-.27-.972a16.913 16.913 0 0 0-.54-1.296l-.54-1.404a4.585 4.585 0 0 1-.216-1.35c0-1.404.126-2.502.378-3.294.288-.792.684-1.386 1.188-1.782a3.852 3.852 0 0 1 1.836-.81c.72-.108 1.512-.162 2.376-.162h2.484c.324 0 .882.144 1.674.432.792.252 1.638.648 2.538 1.188.9.54 1.728 1.224 2.484 2.052a6.31 6.31 0 0 1 1.512 2.916c.072.36.198.738.378 1.134.216.396.522.594.918.594a.752.752 0 0 0 .324-.054 643.77 643.77 0 0 1 4.104-1.458 14.946 14.946 0 0 1 4.266-.81ZM322.074 54.5a7.286 7.286 0 0 1-.162-.864c0-.324-.144-.486-.432-.486-.144 0-.36.036-.648.108l-2.7.972c-.9.324-1.854.486-2.862.486-.432 0-.756.324-.972.972a10.685 10.685 0 0 0-.486 2.106c-.108.756-.18 1.494-.216 2.214v1.35c0 .72.18 1.44.54 2.16.36.684.846 1.026 1.458 1.026.684 0 1.332-.342 1.944-1.026a14.34 14.34 0 0 0 1.728-2.376c.54-.864.99-1.674 1.35-2.43.396-.756.684-1.206.864-1.35.216-.36.342-.828.378-1.404.072-.576.144-1.062.216-1.458Zm-11.394-8.046c.036.216.072.558.108 1.026.072.468.252.702.54.702.144 0 .27-.054.378-.162.108-.144.216-.27.324-.378.108-.144.216-.27.324-.378a.671.671 0 0 1 .486-.216l.648.162c.468.108.972.27 1.512.486.54.216 1.044.486 1.512.81.468.288.702.612.702.972 0 .216-.108.522-.324.918-.216.36-.378.666-.486.918 0 .252.072.414.216.486.18.072.306.108.378.108.36 0 .792-.036 1.296-.108a9.272 9.272 0 0 0 1.512-.432c.504-.18.936-.396 1.296-.648.36-.288.54-.612.54-.972 0-.72-.234-1.512-.702-2.376a9.116 9.116 0 0 0-1.728-2.376 9.57 9.57 0 0 0-2.376-1.836c-.864-.504-1.692-.756-2.484-.756-1.152 0-2.052.432-2.7 1.296-.648.864-.972 1.782-.972 2.754Z" fill="#302E2E"/><path d="M333.058 42.512c.108-.972.342-1.782.702-2.43.36-.684.54-1.404.54-2.16 0-.648.144-1.278.432-1.89.324-.612.486-1.098.486-1.458 0-.18-.072-.378-.216-.594-.108-.216-.162-.36-.162-.432 0-.108.108-.252.324-.432.36-.36.576-.702.648-1.026.072-.324.108-.738.108-1.242 0-.18-.018-.36-.054-.54a2.747 2.747 0 0 1-.054-.54c0-.612.126-1.08.378-1.404.252-.324.378-.72.378-1.188 0-.252.036-.432.108-.54.072-.144.144-.252.216-.324l.216-.216c.072-.072.108-.18.108-.324 0-.18-.018-.342-.054-.486a1.775 1.775 0 0 1-.054-.432c0-.036.09-.27.27-.702.216-.468.432-.99.648-1.566.216-.576.414-1.152.594-1.728.216-.576.324-1.008.324-1.296a.48.48 0 0 0-.054-.216.888.888 0 0 1-.054-.27c0-.72.162-1.224.486-1.512.324-.324.486-.648.486-.972 0-.108-.018-.234-.054-.378v-.378c.072-.432.252-.756.54-.972.288-.252.432-.486.432-.702 0-.504.072-.972.216-1.404.18-.468.396-.972.648-1.512.252-.576.54-1.224.864-1.944.324-.72.666-1.602 1.026-2.646.324-.972.738-1.746 1.242-2.322a23.659 23.659 0 0 0 1.728-2.106c.252 0 .54-.072.864-.216.36-.144.774-.306 1.242-.486.468-.18 1.008-.342 1.62-.486.648-.144 1.404-.216 2.268-.216.72 0 1.386.234 1.998.702.612.468 1.134 1.08 1.566 1.836.432.72.774 1.548 1.026 2.484.252.9.378 1.818.378 2.754 0 .684-.108 1.332-.324 1.944a5.798 5.798 0 0 0-.324 1.944v.648c.036.216.054.45.054.702a5.3 5.3 0 0 1-.216 1.458c-.108.468-.234.936-.378 1.404a48.72 48.72 0 0 1-.432 1.242c-.108.36-.162.648-.162.864 0 .504-.072.936-.216 1.296a7.882 7.882 0 0 1-.432 1.026 7.681 7.681 0 0 0-.54 1.458 32.577 32.577 0 0 1-.378 1.566 9.804 9.804 0 0 1-.594 1.62 4.898 4.898 0 0 1-1.08 1.404 2.099 2.099 0 0 0-.486.756c-.108.252-.216.54-.324.864-.072.324-.18.684-.324 1.08-.144.36-.378.756-.702 1.188-.144.144-.252.378-.324.702 0 .288-.108.648-.324 1.08-.18.396-.414.828-.702 1.296-.252.432-.522.882-.81 1.35-.252.468-.486.882-.702 1.242a22.23 22.23 0 0 1-1.35 2.214 27.956 27.956 0 0 1-1.08 1.566c-.324.432-.612.81-.864 1.134-.216.324-.36.648-.432.972 0 .144-.162.36-.486.648-.324.288-.702.594-1.134.918-.396.288-.81.558-1.242.81-.396.216-.666.342-.81.378-.144.036-.396.09-.756.162-.324.072-.684.18-1.08.324-.36.144-.684.324-.972.54-.288.18-.432.414-.432.702 0 .108.018.234.054.378.036.108.054.216.054.324 0 .216-.072.486-.216.81a2.376 2.376 0 0 0-.216.972c0 .396.018.81.054 1.242.036.432.072.882.108 1.35 0 .324-.09.594-.27.81-.144.216-.216.414-.216.594 0 .144.018.288.054.432.036.108.072.234.108.378 0 .144-.018.288-.054.432a1.02 1.02 0 0 0-.054.324c0 .216.054.36.162.432.108.036.252.054.432.054h.756a6.96 6.96 0 0 1 .864-.054c.54 0 1.008.144 1.404.432.396.288.81.432 1.242.432.864 0 1.512.234 1.944.702.468.468.972 1.008 1.512 1.62.396.432.828.918 1.296 1.458.468.54.702 1.26.702 2.16 0 .216-.072.36-.216.432-.108.036-.162.09-.162.162 0 .108.09.27.27.486.216.216.324.396.324.54 0 .216-.09.432-.27.648a.884.884 0 0 0-.27.648c0 .18-.072.666-.216 1.458-.144.792-.468 1.62-.972 2.484-.504.9-1.242 1.71-2.214 2.43-.972.72-2.286 1.08-3.942 1.08a4.437 4.437 0 0 1-2.808-.972c-.828-.648-1.422-1.386-1.782-2.214a2.28 2.28 0 0 0-.432-.594 8.489 8.489 0 0 0-.594-.432 1.827 1.827 0 0 1-.486-.432c-.108-.144-.162-.342-.162-.594 0-.396.144-.684.432-.864.288-.18.432-.468.432-.864v-.27c0-.144-.018-.288-.054-.432a.821.821 0 0 0-.216-.432c-.072-.144-.18-.216-.324-.216-.18 0-.36.072-.54.216-.18.108-.306.162-.378.162-.144 0-.216-.072-.216-.216 0-.324.18-.756.54-1.296.36-.54.54-1.062.54-1.566a.671.671 0 0 0-.216-.486c-.144-.18-.216-.36-.216-.54 0-.144.018-.27.054-.378.036-.144.054-.288.054-.432 0-.324-.144-.54-.432-.648-.252-.144-.378-.396-.378-.756s.036-.738.108-1.134a5.12 5.12 0 0 0 .162-1.242c0-.288-.054-.594-.162-.918a5.238 5.238 0 0 1-.108-1.026c0-.468.108-.918.324-1.35.252-.432.378-.9.378-1.404 0-.432-.036-.774-.108-1.026-.036-.288-.234-.648-.594-1.08l.054.054c.324-.108.522-.252.594-.432.108-.216.162-.45.162-.702 0-.18-.018-.342-.054-.486v-.54c0-.36.108-.684.324-.972.216-.252.324-.648.324-1.188 0-.576.036-1.08.108-1.512a.875.875 0 0 0-.162-.54 6.437 6.437 0 0 1-.216-.486Zm3.294-.81c.072-.216.108-.342.108-.378 0-.036-.018-.072-.054-.108l-.054.108c0 .072.036.18.108.324-.036-.036-.09-.054-.162-.054h.054c0-.036.018-.054.054-.054 0 .036-.018.072-.054.108v.054Zm1.026 25.65a.87.87 0 0 1 .108-.378v-.162c0-.072-.036-.108-.108-.108 0 .036-.018.072-.054.108v.378c.036.036.054.09.054.162 0-.072.036-.108.108-.108 0 .036.018.054.054.054l.054.054c0 .036-.018.072-.054.108v.054h-.054c-.072 0-.108-.054-.108-.162Zm17.226-57.726a11.941 11.941 0 0 1-.27-1.458c0-.396-.072-.828-.216-1.296l-.324-.81a3.131 3.131 0 0 0-.594-1.134 3.757 3.757 0 0 0-.972-1.026c-.396-.288-.882-.432-1.458-.432-.288 0-.612.198-.972.594-.324.36-.648.828-.972 1.404-.324.54-.63 1.116-.918 1.728-.288.576-.486 1.08-.594 1.512-.072.216-.18.522-.324.918-.144.396-.306.792-.486 1.188-.144.36-.306.684-.486.972-.144.288-.27.468-.378.54-.288.288-.54.648-.756 1.08-.18.432-.36.918-.54 1.458a91.864 91.864 0 0 0-.432 1.566c-.144.54-.288 1.026-.432 1.458-.288.936-.72 2.088-1.296 3.456-.54 1.368-1.206 3.222-1.998 5.562v.216c.036.036.054.09.054.162 0 .9-.162 1.728-.486 2.484-.288.72-.432 1.332-.432 1.836 0 .9-.09 1.782-.27 2.646-.18.864-.396 1.728-.648 2.592a52.361 52.361 0 0 0-.594 2.538c-.18.864-.27 1.728-.27 2.592 0 .216.018.468.054.756.036.288.216.432.54.432.324 0 .702-.144 1.134-.432a8.91 8.91 0 0 0 1.35-1.026c.468-.396.882-.81 1.242-1.242.36-.468.63-.846.81-1.134.432-.828.936-1.62 1.512-2.376a13.317 13.317 0 0 0 1.566-2.43c.108-.324.27-.612.486-.864l.648-.864c.216-.288.414-.576.594-.864a3.08 3.08 0 0 0 .486-.972c.18-.216.378-.504.594-.864.252-.36.486-.738.702-1.134.216-.432.396-.846.54-1.242.144-.396.234-.756.27-1.08l.27-.27c.216-.18.432-.45.648-.81.252-.36.468-.774.648-1.242.216-.468.324-.972.324-1.512 0-.108.108-.216.324-.324.216-.144.324-.252.324-.324.108-.468.18-.882.216-1.242.036-.36.072-.702.108-1.026.072-.36.162-.72.27-1.08.108-.36.306-.774.594-1.242.072-.18.198-.576.378-1.188.216-.612.324-1.26.324-1.944a2.74 2.74 0 0 0-.108-.756 5.34 5.34 0 0 1-.054-.756c0-.252.072-.468.216-.648.144-.216.216-.486.216-.81l-.108-.972c0-.324-.018-.612-.054-.864ZM341.698 66.65c0-.54-.108-1.116-.324-1.728a6.965 6.965 0 0 0-.81-1.836 7.126 7.126 0 0 0-1.296-1.62 6.243 6.243 0 0 0-1.62-1.188.888.888 0 0 0-.27.054c-.108 0-.162.054-.162.162.108.576.234 1.332.378 2.268.144.936.342 1.854.594 2.754.288.9.63 1.674 1.026 2.322.432.648.972.972 1.62.972.468 0 .72-.234.756-.702a9.58 9.58 0 0 0 .108-1.458Zm-5.292-2.106a.628.628 0 0 1-.162-.108c-.036-.072-.09-.108-.162-.108l-.108.108c0 .108.036.198.108.27.072.036.144.09.216.162a.414.414 0 0 0 .054-.162c0-.036.018-.09.054-.162Zm-1.026 5.346c0-.324-.072-.486-.216-.486-.108 0-.162.108-.162.324 0 .108.09.198.27.27l.108-.108Zm-2.646-15.984c0 .072-.018.126-.054.162v.378c.036.072.09.108.162.108.072 0 .108-.036.108-.108v-.324c0-.144-.072-.216-.216-.216Zm1.836 13.824c-.036.036-.054.072-.054.108v.054c.036.072.072.108.108.108l.054-.054.054-.108c0-.072-.054-.108-.162-.108Zm20.304-48.06c0-.036-.036-.09-.108-.162-.108.108-.162.198-.162.27 0 .036.018.072.054.108l.108.108c.108-.036.162-.09.162-.162 0-.072-.018-.126-.054-.162ZM381.188 56.336c-.288.936-.63 1.872-1.026 2.808a44.907 44.907 0 0 0-1.08 2.808c-.18.504-.342 1.062-.486 1.674a132.11 132.11 0 0 1-.432 1.782c-.108.54-.234 1.062-.378 1.566-.108.504-.27.9-.486 1.188 0 .072-.18.612-.54 1.62-.36 1.008-.54 2.322-.54 3.942 0 .648-.126 1.17-.378 1.566-.252.396-.54.882-.864 1.458-.252.432-.63.684-1.134.756a9.97 9.97 0 0 1-1.404.108c-.432 0-.774-.054-1.026-.162a1.912 1.912 0 0 1-.594-.324 5.892 5.892 0 0 1-.432-.486c-.144-.18-.36-.36-.648-.54a.994.994 0 0 1-.54-.81c-.036-.324-.144-.558-.324-.702-.396-.396-.612-.828-.648-1.296 0-.432-.018-.9-.054-1.404 0-.288.018-.576.054-.864.036-.252.054-.522.054-.81 0-.36-.144-.648-.432-.864-.288-.216-.432-.522-.432-.918 0-1.332.018-2.682.054-4.05.072-1.404.162-2.79.27-4.158.036-.648.072-1.35.108-2.106.036-.792.072-1.548.108-2.268.072-.756.162-1.44.27-2.052.144-.648.36-1.152.648-1.512.144-.144.216-.342.216-.594 0-.18-.018-.36-.054-.54a3.935 3.935 0 0 1-.054-.648c0-.288.018-.576.054-.864a3.55 3.55 0 0 0 .108-.864c0-.144-.018-.27-.054-.378a1.775 1.775 0 0 1-.054-.432.73.73 0 0 1 .432-.702c.288-.18.432-.378.432-.594l-.216-.864-.216-.864c-.612.072-1.026.198-1.242.378-.216.18-.378.378-.486.594-.072.18-.162.36-.27.54-.072.144-.27.234-.594.27-.252.072-.432.306-.54.702-.108.396-.324.666-.648.81-.252.144-.432.288-.54.432l-.378.378c-.108.144-.27.324-.486.54-.18.18-.486.396-.918.648-.18.252-.288.54-.324.864 0 .288-.018.576-.054.864a2.129 2.129 0 0 1-.27.756c-.144.216-.396.36-.756.432-.432.288-.648.522-.648.702 0 .18-.072.432-.216.756-.18.432-.486.9-.918 1.404-.396.468-.63.99-.702 1.566a1.217 1.217 0 0 1-.216.432l-.216.432a32.367 32.367 0 0 0-1.08 2.268 9.248 9.248 0 0 1-1.08 2.052 5.047 5.047 0 0 1-1.512 1.512c-.612.36-1.404.54-2.376.54s-1.836-.432-2.592-1.296c-.72-.864-1.08-2.214-1.08-4.05 0-.9.108-1.782.324-2.646.216-.9.396-1.782.54-2.646.072-.432.216-.81.432-1.134.252-.36.414-.792.486-1.296.072-.396.18-.756.324-1.08.144-.324.306-.666.486-1.026.216-.36.45-.756.702-1.188.252-.432.54-.954.864-1.566l1.08-1.512c.396-.54.702-1.116.918-1.728.108-.324.324-.612.648-.864.36-.288.738-.504 1.134-.648a6.06 6.06 0 0 1 1.242-.378 4.76 4.76 0 0 1 1.134-.162c1.08 0 2.178.306 3.294.918.396.216.738.576 1.026 1.08.288.468.558.702.81.702.216-.036.45-.18.702-.432l.864-.864c.324-.36.666-.684 1.026-.972a4.115 4.115 0 0 1 1.188-.702c.36-.108.756-.36 1.188-.756.468-.396.918-.594 1.35-.594.792 0 1.53.216 2.214.648.684.432 1.026 1.062 1.026 1.89a85.043 85.043 0 0 0-.162 3.024 7.959 7.959 0 0 1-.702 2.97c-.18.504-.306 1.116-.378 1.836l-.108 2.16c0 .684-.036 1.314-.108 1.89-.072.576-.216.99-.432 1.242-.216.324-.396.792-.54 1.404a23.095 23.095 0 0 0-.27 1.944l-.108 2.106v2.16a.601.601 0 0 1 .054.27c0 .396-.054.774-.162 1.134-.072.36-.108.738-.108 1.134 0 .9.072 1.782.216 2.646.144.864.216 1.548.216 2.052a.48.48 0 0 1-.054.216v.27l.054.324c.072.216.144.45.216.702.072.252.144.486.216.702.108.216.198.324.27.324.18 0 .378-.27.594-.81.252-.54.486-.99.702-1.35.36-.576.594-1.368.702-2.376.144-.972.36-1.872.648-2.7.108-.36.216-.774.324-1.242.144-.468.27-.918.378-1.35.144-.468.288-.882.432-1.242.18-.396.36-.684.54-.864.144-.072.252-.288.324-.648.072-.396.144-.828.216-1.296l.324-1.404c.144-.504.342-.918.594-1.242a8.433 8.433 0 0 0 1.242-2.052c.36-.756.882-1.44 1.566-2.052.108 0 .216.054.324.162.072.072.144.198.216.378.072.18.108.432.108.756 0 .288-.036.648-.108 1.08-.072.432-.198.954-.378 1.566ZM363.422 45.59a2.074 2.074 0 0 0-1.35-.486 2.28 2.28 0 0 0-1.242.378 11.247 11.247 0 0 0-2.322 2.214c-.684.864-1.296 1.8-1.836 2.808a31.033 31.033 0 0 0-1.458 3.132 30.855 30.855 0 0 0-.972 3.132c-.036.036-.054.108-.054.216 0 .072.018.162.054.27.036.072.09.108.162.108.108 0 .306-.162.594-.486.324-.324.648-.702.972-1.134.36-.468.702-.936 1.026-1.404.324-.468.576-.846.756-1.134.396-.612.81-1.188 1.242-1.728.432-.54.9-1.044 1.404-1.512a5.571 5.571 0 0 0 1.08-1.35c.288-.504.684-.9 1.188-1.188-.036 0 .054-.198.27-.594.216-.396.396-.738.54-1.026 0-.036-.018-.054-.054-.054v-.162ZM138.206 106.688c-.128.448-.336.88-.624 1.296a4.548 4.548 0 0 1-.96.96c-.352.864-.528 1.68-.528 2.448 0 .32-.064.624-.192.912a2.718 2.718 0 0 0-.144.864c0 .16.016.304.048.432.032.096.048.224.048.384 0 .192-.016.384-.048.576l-.096.576c-.16 1.216-.32 2.56-.48 4.032a48.823 48.823 0 0 0-.192 4.224v.24a.534.534 0 0 1 .048.24c0 .064-.064.16-.192.288a.456.456 0 0 0-.192.384c0 .128.032.24.096.336a.592.592 0 0 1 .096.336c0 .16-.064.368-.192.624a2.174 2.174 0 0 0-.144.768c0 .32.032.624.096.912.096.256.144.512.144.768a.906.906 0 0 1-.048.288v.288c0 .192.032.4.096.624.096.192.144.384.144.576 0 .448-.096.912-.288 1.392-.16.448-.24.912-.24 1.392 0 .64.064 1.344.192 2.112.16.736.24 1.472.24 2.208 0 1.248.032 2.416.096 3.504s.096 2.176.096 3.264c0 .384-.128.688-.384.912a2.265 2.265 0 0 1-.96.48 6.18 6.18 0 0 1-1.152.192c-.384.032-.736.048-1.056.048-.128 0-.304-.048-.528-.144-.192-.096-.4-.24-.624-.432a3.056 3.056 0 0 1-.528-.576.956.956 0 0 1-.24-.624c0-.192.048-.4.144-.624.096-.224.144-.464.144-.72 0-.16-.016-.336-.048-.528a2.442 2.442 0 0 1-.048-.48c0-.16.016-.288.048-.384.064-.064.128-.144.192-.24.096-.096.16-.24.192-.432.064-.16.096-.416.096-.768 0-.256-.016-.496-.048-.72v-.576c0-.256-.112-.464-.336-.624-.224-.16-.336-.368-.336-.624 0-.224.096-.496.288-.816.192-.352.288-.736.288-1.152 0-.48.016-.96.048-1.44s.048-.96.048-1.44c0-.736-.048-1.488-.144-2.256a18.181 18.181 0 0 1-.144-2.256c0-.448.064-.912.192-1.392.128-.48.192-.96.192-1.44 0-.256-.016-.512-.048-.768v-.816c0-1.056.064-2.08.192-3.072.16-1.024.24-2.064.24-3.12 0-.96.08-2.064.24-3.312.16-1.248.32-2.48.48-3.696a2.82 2.82 0 0 0-.096-.672c-.064-.256-.224-.384-.48-.384-.16 0-.32.048-.48.144-.16.064-.32.096-.48.096-.352 0-.688-.032-1.008-.096a3.326 3.326 0 0 0-.96-.144c-.8 0-1.584.096-2.352.288a9.86 9.86 0 0 1-2.4.288c-.896 0-1.76-.048-2.592-.144a21.758 21.758 0 0 0-2.496-.144c-.288 0-.608.016-.96.048-.32.032-.48.192-.48.48a197.841 197.841 0 0 1-.24 4.464c-.064 1.472-.128 2.976-.192 4.512v1.296c.032.416.048.848.048 1.296 0 2.56-.048 5.104-.144 7.632a627.372 627.372 0 0 1-.24 7.632c0 .352-.016.768-.048 1.248 0 .48-.032.976-.096 1.488-.032.48-.08.912-.144 1.296-.064.416-.144.704-.24.864a2.09 2.09 0 0 0-.336.816c-.064.32-.176.624-.336.912-.128.32-.336.576-.624.768-.256.224-.672.336-1.248.336a.953.953 0 0 1-.432-.096 1.249 1.249 0 0 0-.384-.048c-.128 0-.256.016-.384.048a1.064 1.064 0 0 1-.336.048c-.064 0-.16-.096-.288-.288a6.276 6.276 0 0 1-.384-.672 7.994 7.994 0 0 1-.336-.768c-.096-.256-.144-.464-.144-.624.032-.224.048-.448.048-.672.032-.224.048-.448.048-.672a3.77 3.77 0 0 0-.192-1.2 4.55 4.55 0 0 1-.144-1.104c0-.16.016-.32.048-.48.064-.192.096-.368.096-.528 0-.352-.064-.72-.192-1.104a4.734 4.734 0 0 1-.144-1.152c0-1.216.032-2.432.096-3.648.064-1.248.096-2.48.096-3.696 0-.224-.016-.448-.048-.672a4.746 4.746 0 0 1-.048-.672c0-.736.064-1.44.192-2.112.16-.704.24-1.328.24-1.872 0-.16-.032-.336-.096-.528a3.232 3.232 0 0 1-.048-.528c0-.416.048-.816.144-1.2.096-.384.144-.768.144-1.152a2.065 2.065 0 0 1-.048-.384v-.432c0-.448.032-.944.096-1.488.064-.576.096-1.136.096-1.68 0-.224-.016-.432-.048-.624v-.672c0-.544.064-1.072.192-1.584a7.104 7.104 0 0 0 .192-1.632c0-.16-.032-.32-.096-.48a.439.439 0 0 0-.288-.336 53.736 53.736 0 0 0-2.448-.24 10.527 10.527 0 0 1-1.152-.192 1.522 1.522 0 0 1-.576-.432 17.913 17.913 0 0 0-.72-.96 1.533 1.533 0 0 1-.384-1.056c0-.224.016-.4.048-.528s.224-.24.576-.336c.384-.096.816-.192 1.296-.288.48-.096.96-.176 1.44-.24.512-.064.912-.128 1.2-.192a34.564 34.564 0 0 1 4.08-.432c1.408-.096 2.8-.16 4.176-.192 1.408-.032 2.784-.08 4.128-.144a42.941 42.941 0 0 0 4.08-.384h.192a.79.79 0 0 1 .24-.048c.256 0 .496.016.72.048.256.032.512.048.768.048.16 0 .336-.016.528-.048.192-.064.384-.096.576-.096.448 0 .88.016 1.296.048.416.032.848.048 1.296.048.256 0 .512-.016.768-.048.288-.032.56-.048.816-.048.128 0 .48.016 1.056.048.576.032 1.168.096 1.776.192a6.09 6.09 0 0 1 1.632.48c.512.192.768.48.768.864 0 .192-.064.384-.192.576a2.943 2.943 0 0 0-.288.528ZM142.049 132.464c0-.96.112-1.888.336-2.784a9.912 9.912 0 0 0 .384-2.736c0-.256.064-.592.192-1.008.128-.448.288-.912.48-1.392.192-.512.4-1.024.624-1.536.256-.512.496-.976.72-1.392.256-.448.544-.832.864-1.152.32-.352.56-.752.72-1.2.096-.32.272-.544.528-.672s.416-.368.48-.72a.449.449 0 0 1 .24-.336c.16-.064.32-.112.48-.144.16-.032.304-.064.432-.096a.439.439 0 0 0 .336-.288c.096-.224.256-.432.48-.624.224-.224.464-.416.72-.576.256-.192.512-.336.768-.432.256-.096.448-.144.576-.144.928.16 1.776.368 2.544.624.64.224 1.232.496 1.776.816.544.32.816.72.816 1.2 0 .32-.048.768-.144 1.344a9.86 9.86 0 0 1-.336 1.632c-.16.512-.368.976-.624 1.392-.256.384-.56.576-.912.576s-.656-.192-.912-.576c-.224-.384-.336-.752-.336-1.104 0-.288.016-.56.048-.816.032-.288.064-.56.096-.816 0-.224-.112-.336-.336-.336-.48 0-.992.192-1.536.576-.512.352-1.024.816-1.536 1.392a13.915 13.915 0 0 0-1.44 1.824 27.377 27.377 0 0 0-1.152 1.872 23.59 23.59 0 0 1-.864 2.928 8.853 8.853 0 0 0-.528 3.072c0 .448.032.992.096 1.632.064.64.16 1.264.288 1.872.16.576.336 1.072.528 1.488.224.416.496.624.816.624.128 0 .464-.16 1.008-.48.576-.352 1.2-.768 1.872-1.248.672-.48 1.312-.96 1.92-1.44.64-.512 1.104-.912 1.392-1.2.416-.48.944-1.024 1.584-1.632a48.366 48.366 0 0 1 2.016-1.728 14.102 14.102 0 0 1 2.064-1.344c.672-.384 1.232-.576 1.68-.576.224 0 .416.032.576.096.16.064.24.208.24.432 0 .256-.128.512-.384.768a9.955 9.955 0 0 1-.816.72c-.32.224-.64.48-.96.768a2.421 2.421 0 0 0-.624.816c-.064 0-.32.224-.768.672-.416.448-.896.944-1.44 1.488l-1.584 1.584c-.48.512-.816.864-1.008 1.056-.192.224-.576.608-1.152 1.152a25.365 25.365 0 0 1-1.872 1.68 23.607 23.607 0 0 1-2.16 1.488c-.736.416-1.392.624-1.968.624-.96 0-1.728-.176-2.304-.528a4.173 4.173 0 0 1-1.296-1.296 7.304 7.304 0 0 1-.768-1.68 13.844 13.844 0 0 0-.672-1.728 2.87 2.87 0 0 1-.24-1.2c0-.448-.016-.864-.048-1.248Z" fill="#302E2E"/><path d="M180.865 137.888c-.256.928-.624 1.616-1.104 2.064-.448.416-1.072.736-1.872.96-.416-.288-.88-.592-1.392-.912-.48-.352-.72-.816-.72-1.392 0-.416-.112-.688-.336-.816-.224-.128-.336-.368-.336-.72v-.768c.032-.288.048-.56.048-.816-.064-.416-.144-.88-.24-1.392a11.01 11.01 0 0 1-.096-1.344c0-.192.016-.384.048-.576.032-.224.048-.432.048-.624a4.777 4.777 0 0 0-.144-.72l-.096-.672c0-.192.032-.384.096-.576.096-.224.144-.416.144-.576 0-.16-.032-.32-.096-.48a3.232 3.232 0 0 1-.048-.528c0-.512.048-1.072.144-1.68.096-.608.144-1.2.144-1.776 0-.16-.016-.304-.048-.432 0-.16-.08-.288-.24-.384a.426.426 0 0 0-.192.048h-.192c0 .064-.128.256-.384.576-.224.32-.496.688-.816 1.104-.288.384-.576.784-.864 1.2-.256.384-.432.688-.528.912-.064.16-.144.368-.24.624a7.994 7.994 0 0 1-.336.768c-.096.224-.192.432-.288.624l-.096.24a1.073 1.073 0 0 0-.576.48c-.128.192-.24.4-.336.624a5.637 5.637 0 0 0-.24.672 1.094 1.094 0 0 1-.24.432c-.384.32-.752.816-1.104 1.488a22.252 22.252 0 0 1-1.2 2.016 9.158 9.158 0 0 1-1.536 1.776c-.576.512-1.28.768-2.112.768-.768 0-1.536-.272-2.304-.816-.768-.544-1.2-1.376-1.296-2.496a6.736 6.736 0 0 0-.384-1.584 4.747 4.747 0 0 1-.288-1.584c0-.864.032-1.744.096-2.64.096-.896.224-1.744.384-2.544 0-.032.032-.256.096-.672.064-.448.112-.992.144-1.632.064-.672.112-1.424.144-2.256.064-.832.096-1.68.096-2.544 0-.192-.032-.384-.096-.576a4.431 4.431 0 0 1-.048-.624c0-.16.064-.304.192-.432.16-.128.32-.192.48-.192a4.67 4.67 0 0 1 1.68.528c.544.256.816.672.816 1.248-.16 1.92-.336 3.792-.528 5.616a52.263 52.263 0 0 0-.288 5.568v1.2c.032.448.064.88.096 1.296.064.416.144.768.24 1.056.128.288.288.432.48.432.288 0 .672-.32 1.152-.96a27.653 27.653 0 0 0 1.632-2.304c.608-.896 1.2-1.808 1.776-2.736a41.52 41.52 0 0 1 1.536-2.4c.256-.352.512-.608.768-.768.288-.192.48-.496.576-.912.128-.448.384-.864.768-1.248.416-.416.768-.784 1.056-1.104.192-.192.448-.512.768-.96.32-.448.672-.896 1.056-1.344a9.775 9.775 0 0 1 1.152-1.152c.384-.352.704-.528.96-.528.224 0 .464-.016.72-.048.288-.032.576-.048.864-.048 1.088 0 1.856.336 2.304 1.008.48.64.72 1.424.72 2.352 0 .928-.112 1.84-.336 2.736-.224.896-.336 1.712-.336 2.448v.528c.032.16.048.336.048.528 0 .672-.064 1.328-.192 1.968a9.768 9.768 0 0 0-.192 1.92c.064.736.144 1.488.24 2.256.096.768.144 1.488.144 2.16a.426.426 0 0 1-.048.192v.144c0 .32.048.624.144.912.096.288.224.56.384.816ZM186.19 139.04c0 .256-.064.528-.192.816a1.8 1.8 0 0 0-.192.816c0 .288-.112.64-.336 1.056a2.982 2.982 0 0 0-.336 1.344v.288a.906.906 0 0 1 .048.288c0 .192-.112.304-.336.336-.224.032-.4.048-.528.048-.64 0-1.104-.096-1.392-.288-.32-.192-.48-.608-.48-1.248 0-.128.016-.304.048-.528 0-.224.032-.448.096-.672a1.53 1.53 0 0 1 .192-.576c.064-.16.144-.24.24-.24.032 0 .176.032.432.096-.064-.064-.096-.112-.096-.144.064 0 .112.016.144.048h-.096c0 .032-.016.048-.048.048a3.79 3.79 0 0 1-.144-.576 3.567 3.567 0 0 0-.144-.624v.048c-.032 0-.048-.016-.048-.048 0-.096.112-.304.336-.624.192-.352.4-.704.624-1.056l.672-1.008a8.48 8.48 0 0 1 .384-.528c.096-.128.224-.272.384-.432l.528-.528.48-.48.192-.192c0-.096-.064-.208-.192-.336a.926.926 0 0 1-.144-.48c0-.192.064-.384.192-.576.128-.192.272-.352.432-.48.192-.16.352-.288.48-.384.128-.128.192-.24.192-.336 0-.064-.048-.176-.144-.336a.874.874 0 0 1 .288-.384.651.651 0 0 0 .192-.48c.064.128.176.192.336.192.064 0 .176-.048.336-.144.192-.096.288-.208.288-.336 0-.064-.016-.112-.048-.144v-.192c0-.096.048-.224.144-.384.352-.704.608-1.328.768-1.872.16-.576.24-1.232.24-1.968 0-.352-.016-.72-.048-1.104-.032-.384-.064-.752-.096-1.104-.192-.608-.32-1.312-.384-2.112a44.779 44.779 0 0 0-.24-2.352c-.064-.736-.192-1.36-.384-1.872-.16-.512-.448-.768-.864-.768-.288 0-.704.176-1.248.528-.512.352-.96.656-1.344.912-.288-.064-.656-.208-1.104-.432-.416-.256-.624-.48-.624-.672 0-.064.16-.224.48-.48a9.246 9.246 0 0 1 1.296-.768 14.45 14.45 0 0 1 1.584-.768c.576-.224 1.088-.336 1.536-.336.384 0 .816.08 1.296.24.48.16.928.368 1.344.624.416.256.768.576 1.056.96.288.384.432.784.432 1.2 0 .064-.016.112-.048.144v.144c.16.224.32.48.48.768.192.256.288.464.288.624a.79.79 0 0 1-.048.24.79.79 0 0 0-.048.24c.16.288.24.624.24 1.008 0 .16-.032.336-.096.528-.064.16-.096.32-.096.48 0 .192.096.384.288.576.192.192.384.288.576.288.224 0 .448-.08.672-.24.224-.16.432-.336.624-.528.224-.224.4-.432.528-.624.16-.224.288-.368.384-.432.16-.096.352-.288.576-.576.256-.288.528-.624.816-1.008.32-.384.656-.752 1.008-1.104a4.8 4.8 0 0 1 1.248-.912c.032 0 .176-.128.432-.384l.816-.816c.32-.32.624-.592.912-.816.32-.256.544-.384.672-.384.256 0 .608.096 1.056.288.448.16.88.384 1.296.672.448.256.832.544 1.152.864.32.32.48.608.48.864 0 .16-.128.288-.384.384-.256.096-.464.144-.624.144-.864 0-1.696.208-2.496.624-.8.416-1.584.928-2.352 1.536a24.762 24.762 0 0 0-2.256 1.92 27.712 27.712 0 0 1-2.208 1.824c-.16.352-.352.592-.576.72a2.954 2.954 0 0 0-.624.48c-.192.16-.368.4-.528.72-.128.32-.192.832-.192 1.536 0 .736.016 1.488.048 2.256.064.736.096 1.488.096 2.256 0 .352.096.8.288 1.344a8.52 8.52 0 0 0 .864 1.584c.352.48.752.912 1.2 1.296.48.352.96.528 1.44.528.576 0 1.168-.192 1.776-.576.608-.384 1.2-.816 1.776-1.296a40.45 40.45 0 0 1 1.728-1.296c.544-.384 1.04-.576 1.488-.576.096 0 .224.016.384.048s.24.128.24.288c0 .384-.128.736-.384 1.056-.224.32-.48.608-.768.864-.288.224-.56.448-.816.672-.256.192-.416.384-.48.576-.16.48-.464.848-.912 1.104-.416.256-.88.464-1.392.624a9.182 9.182 0 0 0-2.016.816c-.608.352-1.232.528-1.872.528a3.6 3.6 0 0 1-1.632-.384 8.188 8.188 0 0 1-1.344-1.008 13.51 13.51 0 0 1-1.152-1.2 17.438 17.438 0 0 0-.96-1.056.645.645 0 0 1-.192-.576.645.645 0 0 0-.192-.576 2.172 2.172 0 0 1-.384-.384 5.058 5.058 0 0 1-.288-.432c-.064-.064-.112-.208-.144-.432 0-.224-.016-.464-.048-.72 0-.256-.048-.48-.144-.672-.064-.192-.16-.288-.288-.288-.256 0-.512.144-.768.432a7.58 7.58 0 0 0-.672 1.056l-.576 1.248a9.313 9.313 0 0 1-.528 1.008 6.644 6.644 0 0 0-.864 1.872 3.926 3.926 0 0 1-1.008 1.728c.064-.064.096-.112.096-.144 0 .032-.016.064-.048.096v.048Zm-1.392 1.152c0-.128-.032-.192-.096-.192-.096 0-.176.08-.24.24 0 .096.064.144.192.144.096 0 .144-.064.144-.192Zm9.12-11.568c0 .064.016.112.048.144.032.032.064.08.096.144a.558.558 0 0 1 .096-.144c.032-.032.048-.08.048-.144 0-.032-.016-.064-.048-.096l-.096-.192-.144.288Zm-8.16 8.688-.048-.096c-.128 0-.192.032-.192.096s.048.096.144.096l.096-.096Zm1.824-4.368c.032-.032.048-.08.048-.144l-.096-.048c0 .032-.016.064-.048.096v.048l.096.048Zm-1.392 3.168a.326.326 0 0 0-.096-.24l-.048.048v.192h.144ZM230.937 120.944c.32.256.48.544.48.864 0 .32-.176.608-.528.864-.32.256-.784.384-1.392.384h-.432a9.379 9.379 0 0 0-.432-.096 22.235 22.235 0 0 0-4.944 2.16c-.512.32-.784.736-.816 1.248-.032.48-.064.912-.096 1.296-.064.544-.192 1.008-.384 1.392-.192.384-.288.848-.288 1.392 0 .384-.144.688-.432.912-.256.224-.384.544-.384.96v.24a.426.426 0 0 1 .048.192c0 .448-.096.832-.288 1.152-.16.288-.384.64-.672 1.056-.064.224-.272.608-.624 1.152a15.09 15.09 0 0 1-1.152 1.584 10.205 10.205 0 0 1-1.44 1.44c-.48.416-.912.624-1.296.624-.192 0-.48.144-.864.432-.352.288-.72.528-1.104.72a17.507 17.507 0 0 1-2.064-.576 4.949 4.949 0 0 1-1.68-1.056 11.85 11.85 0 0 1-1.104-1.536 16.156 16.156 0 0 1-.912-1.824 24.706 24.706 0 0 1-.576-1.872 8.2 8.2 0 0 1-.192-1.68c0-.576.064-1.12.192-1.632a6.907 6.907 0 0 0 .192-1.584c0-.192.048-.448.144-.768l.384-.96c.128-.352.24-.704.336-1.056.128-.352.192-.656.192-.912 0-.224-.08-.512-.24-.864a15.034 15.034 0 0 0-.48-1.152l-.48-1.248a4.076 4.076 0 0 1-.192-1.2c0-1.248.112-2.224.336-2.928.256-.704.608-1.232 1.056-1.584a3.424 3.424 0 0 1 1.632-.72 14.29 14.29 0 0 1 2.112-.144h2.208c.288 0 .784.128 1.488.384.704.224 1.456.576 2.256 1.056.8.48 1.536 1.088 2.208 1.824.672.736 1.12 1.6 1.344 2.592.064.32.176.656.336 1.008.192.352.464.528.816.528a.669.669 0 0 0 .288-.048 572.24 572.24 0 0 1 3.648-1.296 13.285 13.285 0 0 1 3.792-.72ZM220.281 128a6.477 6.477 0 0 1-.144-.768c0-.288-.128-.432-.384-.432-.128 0-.32.032-.576.096l-2.4.864c-.8.288-1.648.432-2.544.432-.384 0-.672.288-.864.864a9.498 9.498 0 0 0-.432 1.872c-.096.672-.16 1.328-.192 1.968v1.2c0 .64.16 1.28.48 1.92.32.608.752.912 1.296.912.608 0 1.184-.304 1.728-.912a12.746 12.746 0 0 0 1.536-2.112c.48-.768.88-1.488 1.2-2.16.352-.672.608-1.072.768-1.2.192-.32.304-.736.336-1.248.064-.512.128-.944.192-1.296Zm-10.128-7.152c.032.192.064.496.096.912.064.416.224.624.48.624a.46.46 0 0 0 .336-.144c.096-.128.192-.24.288-.336.096-.128.192-.24.288-.336a.597.597 0 0 1 .432-.192l.576.144c.416.096.864.24 1.344.432.48.192.928.432 1.344.72.416.256.624.544.624.864 0 .192-.096.464-.288.816-.192.32-.336.592-.432.816 0 .224.064.368.192.432.16.064.272.096.336.096.32 0 .704-.032 1.152-.096.48-.096.928-.224 1.344-.384a4.84 4.84 0 0 0 1.152-.576c.32-.256.48-.544.48-.864 0-.64-.208-1.344-.624-2.112a8.104 8.104 0 0 0-1.536-2.112 8.506 8.506 0 0 0-2.112-1.632c-.768-.448-1.504-.672-2.208-.672-1.024 0-1.824.384-2.4 1.152-.576.768-.864 1.584-.864 2.448Z" fill="#302E2E"/><path d="M233.74 122.432a9.65 9.65 0 0 1-.576 1.44 3.74 3.74 0 0 0-.288 1.488v.24a.79.79 0 0 1 .048.24c0 .256-.096.576-.288.96-.192.352-.288.832-.288 1.44-.032.096-.128.24-.288.432a27.54 27.54 0 0 0-.432.672c-.16.256-.304.528-.432.816a2.112 2.112 0 0 0-.192.864c0 .128.016.24.048.336.032.096.048.208.048.336a.669.669 0 0 1-.048.288c-.256.544-.496 1.232-.72 2.064-.224.8-.48 1.584-.768 2.352-.288.768-.624 1.424-1.008 1.968s-.848.816-1.392.816c-.256 0-.496-.064-.72-.192a4.32 4.32 0 0 1-.624-.432 2.724 2.724 0 0 1-.432-.432c-.128-.16-.192-.272-.192-.336 0-.192.128-.448.384-.768.448-.672.784-1.488 1.008-2.448.224-.96.56-1.872 1.008-2.736.064-.192.096-.368.096-.528.128-1.024.4-2.096.816-3.216a15.58 15.58 0 0 1 1.632-3.072c.064-.128.128-.352.192-.672.16-.832.464-1.584.912-2.256.448-.672.912-1.312 1.392-1.92.192-.256.464-.656.816-1.2.352-.576.768-1.136 1.248-1.68a8.667 8.667 0 0 1 1.584-1.488c.576-.448 1.2-.672 1.872-.672.544 0 1.056.144 1.536.432.512.256.992.512 1.44.768h-.048c0 .032.048.144.144.336.096.16.192.352.288.576l.288.576c.096.16.144.256.144.288 0 .288-.08.592-.24.912a2.338 2.338 0 0 0-.192.96v.192c.032.032.048.08.048.144a1.83 1.83 0 0 0-.288 1.152c.064.384.032.752-.096 1.104a3.831 3.831 0 0 0-.144 1.008v.576l.096.576c0 .16-.016.32-.048.48 0 .128-.016.272-.048.432 0 .448-.16.864-.48 1.248-.288.352-.432.736-.432 1.152 0 .096.016.16.048.192.16.352.256.736.288 1.152.064.384.096.736.096 1.056 0 .768-.16 1.408-.48 1.92.256.928.416 1.712.48 2.352.096.64.144 1.344.144 2.112 0 .448.048.88.144 1.296.128.416.192.8.192 1.152 0 .256-.064.496-.192.72a5.234 5.234 0 0 1-.24.624 1.03 1.03 0 0 1-.192.336c-.064.096-.176.144-.336.144-.128.032-.32.048-.576.048-.768 0-1.392-.304-1.872-.912-.448-.576-.8-1.28-1.056-2.112a16.986 16.986 0 0 1-.48-2.544 32.157 32.157 0 0 1-.096-2.208c0-.48.016-1.024.048-1.632.064-.608.096-1.28.096-2.016 0-.256-.016-.528-.048-.816v-.816c0-.448.032-.96.096-1.536.064-.608.128-1.248.192-1.92.064-.672.128-1.36.192-2.064s.096-1.392.096-2.064v-.336c0-.128-.064-.192-.192-.192-.16 0-.336.128-.528.384a.779.779 0 0 1-.672.336c-.16 0-.368.208-.624.624-.224.384-.544.768-.96 1.152 0-.064.016-.096.048-.096.032-.032.048-.064.048-.096l-.144-.096a.368.368 0 0 1 .048.144l.048.096ZM270.312 120.944c.32.256.48.544.48.864 0 .32-.176.608-.528.864-.32.256-.784.384-1.392.384h-.432a9.379 9.379 0 0 0-.432-.096 22.235 22.235 0 0 0-4.944 2.16c-.512.32-.784.736-.816 1.248-.032.48-.064.912-.096 1.296-.064.544-.192 1.008-.384 1.392-.192.384-.288.848-.288 1.392 0 .384-.144.688-.432.912-.256.224-.384.544-.384.96v.24a.426.426 0 0 1 .048.192c0 .448-.096.832-.288 1.152-.16.288-.384.64-.672 1.056-.064.224-.272.608-.624 1.152a15.09 15.09 0 0 1-1.152 1.584 10.205 10.205 0 0 1-1.44 1.44c-.48.416-.912.624-1.296.624-.192 0-.48.144-.864.432-.352.288-.72.528-1.104.72a17.507 17.507 0 0 1-2.064-.576 4.949 4.949 0 0 1-1.68-1.056 11.85 11.85 0 0 1-1.104-1.536 16.156 16.156 0 0 1-.912-1.824 24.706 24.706 0 0 1-.576-1.872 8.2 8.2 0 0 1-.192-1.68c0-.576.064-1.12.192-1.632a6.907 6.907 0 0 0 .192-1.584c0-.192.048-.448.144-.768l.384-.96c.128-.352.24-.704.336-1.056.128-.352.192-.656.192-.912 0-.224-.08-.512-.24-.864a15.034 15.034 0 0 0-.48-1.152l-.48-1.248a4.076 4.076 0 0 1-.192-1.2c0-1.248.112-2.224.336-2.928.256-.704.608-1.232 1.056-1.584a3.424 3.424 0 0 1 1.632-.72 14.29 14.29 0 0 1 2.112-.144h2.208c.288 0 .784.128 1.488.384.704.224 1.456.576 2.256 1.056.8.48 1.536 1.088 2.208 1.824.672.736 1.12 1.6 1.344 2.592.064.32.176.656.336 1.008.192.352.464.528.816.528a.669.669 0 0 0 .288-.048 572.24 572.24 0 0 1 3.648-1.296 13.285 13.285 0 0 1 3.792-.72ZM259.656 128a6.477 6.477 0 0 1-.144-.768c0-.288-.128-.432-.384-.432-.128 0-.32.032-.576.096l-2.4.864c-.8.288-1.648.432-2.544.432-.384 0-.672.288-.864.864a9.498 9.498 0 0 0-.432 1.872c-.096.672-.16 1.328-.192 1.968v1.2c0 .64.16 1.28.48 1.92.32.608.752.912 1.296.912.608 0 1.184-.304 1.728-.912a12.746 12.746 0 0 0 1.536-2.112c.48-.768.88-1.488 1.2-2.16.352-.672.608-1.072.768-1.2.192-.32.304-.736.336-1.248.064-.512.128-.944.192-1.296Zm-10.128-7.152c.032.192.064.496.096.912.064.416.224.624.48.624a.46.46 0 0 0 .336-.144c.096-.128.192-.24.288-.336.096-.128.192-.24.288-.336a.597.597 0 0 1 .432-.192l.576.144c.416.096.864.24 1.344.432.48.192.928.432 1.344.72.416.256.624.544.624.864 0 .192-.096.464-.288.816-.192.32-.336.592-.432.816 0 .224.064.368.192.432.16.064.272.096.336.096.32 0 .704-.032 1.152-.096.48-.096.928-.224 1.344-.384a4.84 4.84 0 0 0 1.152-.576c.32-.256.48-.544.48-.864 0-.64-.208-1.344-.624-2.112a8.104 8.104 0 0 0-1.536-2.112A8.506 8.506 0 0 0 255 117.92c-.768-.448-1.504-.672-2.208-.672-1.024 0-1.824.384-2.4 1.152-.576.768-.864 1.584-.864 2.448Z" fill="#302E2E"/><path d="M268.21 129.152a3.494 3.494 0 0 1-1.824-.72c-.576-.448-.864-.896-.864-1.344 0-.416.096-.88.288-1.392.192-.544.432-1.088.72-1.632.256-.576.56-1.12.912-1.632.32-.544.624-1.008.912-1.392.352-.48.752-1.04 1.2-1.68.48-.64.992-1.168 1.536-1.584.192-.16.352-.368.48-.624s.304-.464.528-.624a33.516 33.516 0 0 1 3.024-2.064 6.394 6.394 0 0 1 3.504-1.008c.48 0 .928.112 1.344.336.448.192.832.464 1.152.816.32.352.576.752.768 1.2.192.416.288.832.288 1.248 0 .544-.096 1.056-.288 1.536-.16.48-.24.992-.24 1.536v.24a.79.79 0 0 1 .048.24.651.651 0 0 1-.192.48 3.138 3.138 0 0 0-.528 1.248 9.9 9.9 0 0 0-.096 1.296c0 .16-.048.384-.144.672-.096.288-.208.608-.336.96-.128.32-.24.656-.336 1.008a3.68 3.68 0 0 0-.144.96l-.144.432c-.064.256-.144.56-.24.912a9.303 9.303 0 0 1-.336 1.008c-.096.32-.192.544-.288.672-.224.256-.352.688-.384 1.296a12.79 12.79 0 0 1-.192 1.68 3.105 3.105 0 0 1-.336.96c-.16.256-.24.56-.24.912 0 .128.016.288.048.48s.128.288.288.288c.128 0 .256-.08.384-.24.16-.16.304-.336.432-.528.16-.224.304-.448.432-.672.128-.224.24-.4.336-.528.352-.48.72-.928 1.104-1.344.384-.416.72-.864 1.008-1.344.032-.096.176-.288.432-.576s.544-.576.864-.864c.352-.32.72-.592 1.104-.816.384-.224.736-.336 1.056-.336.192 0 .384.064.576.192.192.096.288.304.288.624 0 .352-.288.88-.864 1.584a94.458 94.458 0 0 1-1.824 2.064c-.288.352-.464.784-.528 1.296-.064.48-.128.752-.192.816-.288.288-.464.608-.528.96l-.096 1.056a2.045 2.045 0 0 1-.288.912c-.16.224-.336.432-.528.624l-.48.576a1.183 1.183 0 0 0-.192.672c0 .288-.096.56-.288.816a2.919 2.919 0 0 1-.768.768 3.4 3.4 0 0 1-1.056.576c-.352.16-.704.24-1.056.24a.786.786 0 0 1-.576-.24.893.893 0 0 0-.576-.192 1.34 1.34 0 0 1-.912-.336 2.26 2.26 0 0 1-.624-.72 4.212 4.212 0 0 1-.288-.96 5.408 5.408 0 0 1-.096-.96c0-.672.016-1.328.048-1.968.064-.64.096-1.28.096-1.92 0-.352-.032-.72-.096-1.104a6.463 6.463 0 0 1-.096-1.056c0-.16.048-.304.144-.432a.926.926 0 0 0 .144-.48.906.906 0 0 0-.048-.288v-.24c0-.416.176-.752.528-1.008.352-.288.528-.56.528-.816a.516.516 0 0 0-.096-.288.852.852 0 0 1-.096-.384c0-.384.048-.672.144-.864.096-.224.192-.4.288-.528.096-.128.192-.24.288-.336a.778.778 0 0 0 .144-.48.702.702 0 0 0-.144-.432 1.284 1.284 0 0 1-.096-.48c0-.352.08-.752.24-1.2.16-.48.336-.944.528-1.392.192-.448.368-.848.528-1.2.16-.384.24-.672.24-.864a.516.516 0 0 0-.096-.288.852.852 0 0 1-.096-.384c0-.576.048-1.216.144-1.92.128-.736.224-1.424.288-2.064a.953.953 0 0 0-.096-.432c-.032-.16-.128-.24-.288-.24a93.73 93.73 0 0 1-.72.624c-.192.16-.4.336-.624.528-.224.192-.416.352-.576.48-.288.064-.576.224-.864.48-.288.256-.592.544-.912.864-.288.32-.576.656-.864 1.008-.288.352-.544.672-.768.96a1.517 1.517 0 0 0-.384.864c-.032.32-.16.624-.384.912a7.513 7.513 0 0 0-.96 1.728c-.224.64-.432 1.28-.624 1.92-.192.608-.4 1.184-.624 1.728-.224.512-.528.896-.912 1.152Zm14.496.048.048.144h-.096l.048-.144Z" fill="#302E2E"/></svg>