<svg width="45" height="40" viewBox="0 0 45 40" fill="none" xmlns="http://www.w3.org/2000/svg">
<g clip-path="url(#clip0_90_114)">
<path d="M11.3199 18.6882C17.3222 16.2404 21.3247 14.6266 23.3273 13.8469C29.0452 11.6207 30.2333 11.234 31.0078 11.2211C31.178 11.2184 31.5588 11.258 31.8056 11.4453C32.0138 11.6034 32.0711 11.8172 32.0987 11.9672C32.126 12.1171 32.1602 12.459 32.133 12.726C31.8232 15.7734 30.4824 23.1688 29.8003 26.582C29.5117 28.0263 28.9433 28.5106 28.3931 28.558C27.1976 28.6609 26.2896 27.8184 25.1315 27.1078C23.3193 25.9959 22.2956 25.3036 20.5366 24.2186C18.5038 22.9646 19.8216 22.2755 20.9802 21.1492C21.2833 20.8545 26.5515 16.3691 26.6534 15.9622C26.6662 15.9113 26.678 15.7216 26.5576 15.6214C26.4372 15.5213 26.2596 15.5556 26.1313 15.5828C25.9496 15.6214 23.0546 17.4125 17.4465 20.956C16.6248 21.4842 15.8805 21.7415 15.2137 21.728C14.4785 21.7131 13.0644 21.3389 12.0131 21.019C10.7237 20.6267 9.69889 20.4193 9.78813 19.753C9.83461 19.406 10.3452 19.0509 11.3199 18.6882Z" fill="#302E2E"/>
</g>
<defs>
<clipPath id="clip0_90_114">
<rect width="44.7205" height="40" fill="white"/>
</clipPath>
</defs>
</svg>
