<svg width="45" height="40" viewBox="0 0 45 40" fill="none" xmlns="http://www.w3.org/2000/svg">
<path d="M11.46 18.6512C11.46 13.914 11.46 11.5489 13.0252 10.0698C14.6128 8.60468 17.1395 8.60468 22.1929 8.60468H23.0873C28.1481 8.60468 30.6748 8.60468 32.255 10.0698C33.8202 11.5558 33.8202 13.921 33.8202 18.6512V19.4884C33.8202 24.2256 33.8202 26.5907 32.255 28.0698C30.6674 29.5349 28.1407 29.5349 23.0873 29.5349H22.1929C17.1321 29.5349 14.6053 29.5349 13.0252 28.0698C11.46 26.5837 11.46 24.2186 11.46 19.4884V18.6512Z" fill="#302E2E"/>
<path d="M23.3107 22.6674C18.2126 22.6674 15.3057 19.4023 15.1865 13.9604H17.7504C17.8324 17.9512 19.7107 19.6395 21.2014 19.9883V13.9604H23.6088V17.3999C25.0772 17.2534 26.6274 15.6836 27.1493 13.9535H29.5492C29.3536 14.8492 28.9627 15.6974 28.4009 16.4452C27.8392 17.1931 27.1188 17.8245 26.2846 18.2999C27.2155 18.7337 28.0375 19.3472 28.6967 20.0999C29.3558 20.8527 29.8368 21.7279 30.1082 22.6674H27.4623C26.8957 21.0139 25.4796 19.7302 23.6088 19.5557V22.6674H23.3181H23.3107Z" fill="white"/>
</svg>
