<svg width="46" height="40" viewBox="0 0 46 40" fill="none" xmlns="http://www.w3.org/2000/svg">
<g clip-path="url(#clip0_90_117)">
<path fill-rule="evenodd" clip-rule="evenodd" d="M30.826 11.6134C28.7298 9.65119 25.9347 8.60468 22.9999 8.60468C16.8509 8.60468 11.8198 13.314 11.8198 19.0698C11.8198 20.9012 12.3788 22.7326 13.3571 24.3024L11.8198 29.5349L17.6894 28.096C19.3664 28.8808 21.1832 29.4041 22.9999 29.4041C29.149 29.4041 34.1801 24.6948 34.1801 18.939C34.1801 16.1919 32.9223 13.5756 30.826 11.6134ZM22.9999 27.7035C21.3229 27.7035 19.6459 27.3111 18.2484 26.5262L17.9689 26.3954L14.4751 27.3111L15.4534 24.1715L15.1739 23.7791C14.1956 22.3401 13.7763 20.7704 13.7763 19.2006C13.7763 14.4913 17.9689 10.5669 22.9999 10.5669C25.5155 10.5669 27.7515 11.4826 29.5683 13.0523C31.385 14.7529 32.2236 16.846 32.2236 19.2006C32.2236 23.7791 28.1708 27.7035 22.9999 27.7035ZM28.031 21.1628C27.7515 21.032 26.354 20.3779 26.0745 20.3779C25.795 20.2471 25.6552 20.2471 25.5155 20.5087C25.3757 20.7704 24.8167 21.2936 24.677 21.5553C24.5372 21.6861 24.3975 21.6861 24.118 21.6861C23.8385 21.5553 22.9999 21.2936 21.8819 20.3779C21.0434 19.7239 20.4844 18.8082 20.3447 18.5465C20.2049 18.2849 20.3447 18.1541 20.4844 18.0233C20.6242 17.8925 20.7639 17.7617 20.9037 17.6308C21.0434 17.5 21.0434 17.3692 21.1832 17.2384C21.3229 17.1076 21.1832 16.9768 21.1832 16.846C21.1832 16.7151 20.6242 15.407 20.3447 14.8837C20.2049 14.4913 19.9254 14.4913 19.7857 14.4913C19.6459 14.4913 19.5062 14.4913 19.2267 14.4913C19.0869 14.4913 18.8074 14.4913 18.5279 14.7529C18.2484 15.0146 17.5496 15.6686 17.5496 16.9768C17.5496 18.2849 18.5279 19.4622 18.6676 19.7239C18.8074 19.8547 20.6242 22.6018 23.4192 23.6483C25.795 24.564 26.2142 24.3024 26.7732 24.3024C27.3322 24.3024 28.4503 23.6483 28.59 23.125C28.8695 22.471 28.8695 21.9477 28.7298 21.9477C28.59 21.2936 28.3105 21.2936 28.031 21.1628Z" fill="#302E2E"/>
</g>
<defs>
<clipPath id="clip0_90_117">
<rect width="44.7205" height="40" fill="white" transform="translate(0.639648)"/>
</clipPath>
</defs>
</svg>
